STARTFONT 2.1
FONT -Baekmuk-Dotum-Medium-R-Normal--12-120-75-75-M-120-ksx1001.1997-0
SIZE 12 75 75
FONTBOUNDINGBOX 12 12 0 -3
STARTPROPERTIES 18
FOUNDRY "Baekmuk"
FAMILY_NAME "Dotum"
WEIGHT_NAME "Medium"
SLANT "R"
SETWIDTH_NAME "Normal"
ADD_STYLE_NAME ""
PIXEL_SIZE 12
POINT_SIZE 120
RESOLUTION_X 75
RESOLUTION_Y 75
SPACING "M"
AVERAGE_WIDTH 120
CHARSET_REGISTRY "ksx1001.1997"
CHARSET_ENCODING "0"
DEFAULT_CHAR 8481
FONT_ASCENT 9
FONT_DESCENT 2
COPYRIGHT "(c)Hwan Design Inc. and Mizi Research Inc."
ENDPROPERTIES
CHARS 8224
STARTCHAR 3000
ENCODING 8481
SWIDTH 1200 0
DWIDTH 12 0
BBX 0 0 0 0
BITMAP
ENDCHAR
STARTCHAR 3001
ENCODING 8482
SWIDTH 1200 0
DWIDTH 12 0
BBX 2 2 5 7
BITMAP
80
40
ENDCHAR
STARTCHAR 3002
ENCODING 8483
SWIDTH 1200 0
DWIDTH 12 0
BBX 3 2 4 7
BITMAP
E0
A0
ENDCHAR
STARTCHAR 00B7
ENCODING 8484
SWIDTH 1200 0
DWIDTH 12 0
BBX 2 2 5 3
BITMAP
C0
C0
ENDCHAR
STARTCHAR 2025
ENCODING 8485
SWIDTH 1200 0
DWIDTH 12 0
BBX 6 1 3 3
BITMAP
84
ENDCHAR
STARTCHAR 2026
ENCODING 8486
SWIDTH 1200 0
DWIDTH 12 0
BBX 8 1 2 3
BITMAP
91
ENDCHAR
STARTCHAR 00A8
ENCODING 8487
SWIDTH 1200 0
DWIDTH 12 0
BBX 4 1 4 8
BITMAP
90
ENDCHAR
STARTCHAR 3003
ENCODING 8488
SWIDTH 1200 0
DWIDTH 12 0
BBX 4 4 4 2
BITMAP
50
60
A0
A0
ENDCHAR
STARTCHAR 00AD
ENCODING 8489
SWIDTH 1200 0
DWIDTH 12 0
BBX 6 1 3 3
BITMAP
FC
ENDCHAR
STARTCHAR 2015
ENCODING 8490
SWIDTH 1200 0
DWIDTH 12 0
BBX 12 1 0 3
BITMAP
FFF0
ENDCHAR
STARTCHAR 2225
ENCODING 8491
SWIDTH 1200 0
DWIDTH 12 0
BBX 4 10 4 -1
BITMAP
90
90
90
90
90
90
90
90
90
90
ENDCHAR
STARTCHAR FF3C
ENCODING 8492
SWIDTH 1200 0
DWIDTH 12 0
BBX 10 10 1 -1
BITMAP
8000
4000
2000
1000
0800
0400
0200
0100
0080
0040
ENDCHAR
STARTCHAR 223C
ENCODING 8493
SWIDTH 1200 0
DWIDTH 12 0
BBX 8 2 2 3
BITMAP
70
8F
ENDCHAR
STARTCHAR 2018
ENCODING 8494
SWIDTH 1200 0
DWIDTH 12 0
BBX 1 2 8 6
BITMAP
80
80
ENDCHAR
STARTCHAR 2019
ENCODING 8495
SWIDTH 1200 0
DWIDTH 12 0
BBX 1 2 3 7
BITMAP
80
80
ENDCHAR
STARTCHAR 201C
ENCODING 8496
SWIDTH 1200 0
DWIDTH 12 0
BBX 4 4 6 6
BITMAP
10
20
B0
80
ENDCHAR
STARTCHAR 201D
ENCODING 8497
SWIDTH 1200 0
DWIDTH 12 0
BBX 4 3 2 6
BITMAP
D0
50
90
ENDCHAR
STARTCHAR 3014
ENCODING 8498
SWIDTH 1200 0
DWIDTH 12 0
BBX 3 11 8 -2
BITMAP
60
80
80
80
80
80
80
80
80
80
60
ENDCHAR
STARTCHAR 3015
ENCODING 8499
SWIDTH 1200 0
DWIDTH 12 0
BBX 3 11 1 -2
BITMAP
C0
20
20
20
20
20
20
20
20
20
C0
ENDCHAR
STARTCHAR 3008
ENCODING 8500
SWIDTH 1200 0
DWIDTH 12 0
BBX 4 10 4 -2
BITMAP
20
40
40
80
80
80
40
20
10
10
ENDCHAR
STARTCHAR 3009
ENCODING 8501
SWIDTH 1200 0
DWIDTH 12 0
BBX 4 10 4 -1
BITMAP
80
80
40
20
20
10
20
20
40
80
ENDCHAR
STARTCHAR 300A
ENCODING 8502
SWIDTH 1200 0
DWIDTH 12 0
BBX 5 9 3 -1
BITMAP
30
30
60
60
C0
60
60
30
28
ENDCHAR
STARTCHAR 300B
ENCODING 8503
SWIDTH 1200 0
DWIDTH 12 0
BBX 4 9 4 -1
BITMAP
C0
A0
60
50
30
30
60
C0
C0
ENDCHAR
STARTCHAR 300C
ENCODING 8504
SWIDTH 1200 0
DWIDTH 12 0
BBX 4 6 7 4
BITMAP
F0
80
80
80
80
80
ENDCHAR
STARTCHAR 300D
ENCODING 8505
SWIDTH 1200 0
DWIDTH 12 0
BBX 4 6 1 -2
BITMAP
10
10
10
10
10
F0
ENDCHAR
STARTCHAR 300E
ENCODING 8506
SWIDTH 1200 0
DWIDTH 12 0
BBX 5 6 6 4
BITMAP
F8
F8
C0
C0
C0
C0
ENDCHAR
STARTCHAR 300F
ENCODING 8507
SWIDTH 1200 0
DWIDTH 12 0
BBX 5 5 1 -2
BITMAP
18
18
18
18
F8
ENDCHAR
STARTCHAR 3010
ENCODING 8508
SWIDTH 1200 0
DWIDTH 12 0
BBX 3 11 7 -2
BITMAP
E0
E0
C0
C0
C0
C0
C0
C0
C0
E0
E0
ENDCHAR
STARTCHAR 3011
ENCODING 8509
SWIDTH 1200 0
DWIDTH 12 0
BBX 3 11 2 -2
BITMAP
E0
E0
60
60
60
60
60
60
60
E0
E0
ENDCHAR
STARTCHAR 00B1
ENCODING 8510
SWIDTH 1200 0
DWIDTH 12 0
BBX 8 8 2 0
BITMAP
10
10
10
FF
10
10
10
FF
ENDCHAR
STARTCHAR 00D7
ENCODING 8511
SWIDTH 1200 0
DWIDTH 12 0
BBX 8 7 2 0
BITMAP
81
46
28
10
28
44
82
ENDCHAR
STARTCHAR 00F7
ENCODING 8512
SWIDTH 1200 0
DWIDTH 12 0
BBX 8 7 2 0
BITMAP
10
00
00
FF
00
00
10
ENDCHAR
STARTCHAR 2260
ENCODING 8513
SWIDTH 1200 0
DWIDTH 12 0
BBX 8 5 2 1
BITMAP
10
FF
10
FF
08
ENDCHAR
STARTCHAR 2264
ENCODING 8514
SWIDTH 1200 0
DWIDTH 12 0
BBX 8 7 2 0
BITMAP
0E
30
40
30
0E
00
FF
ENDCHAR
STARTCHAR 2265
ENCODING 8515
SWIDTH 1200 0
DWIDTH 12 0
BBX 8 8 2 0
BITMAP
80
70
0C
03
0E
70
00
FF
ENDCHAR
STARTCHAR 221E
ENCODING 8516
SWIDTH 1200 0
DWIDTH 12 0
BBX 10 5 1 1
BITMAP
7380
8C40
8840
D440
7380
ENDCHAR
STARTCHAR 2234
ENCODING 8517
SWIDTH 1200 0
DWIDTH 12 0
BBX 6 6 3 1
BITMAP
20
00
00
00
00
84
ENDCHAR
STARTCHAR 00B0
ENCODING 8518
SWIDTH 1200 0
DWIDTH 12 0
BBX 4 4 4 6
BITMAP
60
90
90
60
ENDCHAR
STARTCHAR 2032
ENCODING 8519
SWIDTH 1200 0
DWIDTH 12 0
BBX 2 2 5 7
BITMAP
40
80
ENDCHAR
STARTCHAR 2033
ENCODING 8520
SWIDTH 1200 0
DWIDTH 12 0
BBX 4 2 4 7
BITMAP
50
A0
ENDCHAR
STARTCHAR 2103
ENCODING 8521
SWIDTH 1200 0
DWIDTH 12 0
BBX 9 10 1 0
BITMAP
E000
A400
FB80
1080
2000
2000
2000
2080
1080
0F00
ENDCHAR
STARTCHAR 212B
ENCODING 8522
SWIDTH 1200 0
DWIDTH 12 0
BBX 8 10 2 0
BITMAP
38
28
10
10
28
24
44
7E
82
81
ENDCHAR
STARTCHAR FFE0
ENCODING 8523
SWIDTH 1200 0
DWIDTH 12 0
BBX 9 9 1 -1
BITMAP
1F80
2100
4200
4400
4800
5000
2100
2100
DE00
ENDCHAR
STARTCHAR FFE1
ENCODING 8524
SWIDTH 1200 0
DWIDTH 12 0
BBX 8 8 2 0
BITMAP
0E
11
10
7E
10
10
F1
AE
ENDCHAR
STARTCHAR FFE5
ENCODING 8525
SWIDTH 1200 0
DWIDTH 12 0
BBX 7 7 2 0
BITMAP
44
FE
38
FE
10
10
10
ENDCHAR
STARTCHAR 2642
ENCODING 8526
SWIDTH 1200 0
DWIDTH 12 0
BBX 5 11 3 -2
BITMAP
20
70
A8
28
20
20
20
D8
88
C8
70
ENDCHAR
STARTCHAR 2640
ENCODING 8527
SWIDTH 1200 0
DWIDTH 12 0
BBX 9 11 1 -2
BITMAP
1C00
2200
2200
3200
0C00
0800
FF80
0800
0800
0800
0800
ENDCHAR
STARTCHAR 2220
ENCODING 8528
SWIDTH 1200 0
DWIDTH 12 0
BBX 7 7 3 0
BITMAP
04
08
10
20
40
80
FE
ENDCHAR
STARTCHAR 22A5
ENCODING 8529
SWIDTH 1200 0
DWIDTH 12 0
BBX 9 7 1 0
BITMAP
0800
0800
0800
0800
0800
0800
FF80
ENDCHAR
STARTCHAR 2312
ENCODING 8530
SWIDTH 1200 0
DWIDTH 12 0
BBX 6 2 3 8
BITMAP
38
C4
ENDCHAR
STARTCHAR 2202
ENCODING 8531
SWIDTH 1200 0
DWIDTH 12 0
BBX 5 9 3 -1
BITMAP
30
48
08
08
78
88
90
90
E0
ENDCHAR
STARTCHAR 2207
ENCODING 8532
SWIDTH 1200 0
DWIDTH 12 0
BBX 9 8 1 0
BITMAP
7F80
8080
4100
4100
2200
1400
1400
0800
ENDCHAR
STARTCHAR 2261
ENCODING 8533
SWIDTH 1200 0
DWIDTH 12 0
BBX 8 5 2 1
BITMAP
FF
00
FF
00
FF
ENDCHAR
STARTCHAR 2252
ENCODING 8534
SWIDTH 1200 0
DWIDTH 12 0
BBX 8 7 2 0
BITMAP
40
00
FF
00
FF
00
02
ENDCHAR
STARTCHAR 00A7
ENCODING 8535
SWIDTH 1200 0
DWIDTH 12 0
BBX 4 11 4 -2
BITMAP
E0
90
80
60
B0
90
D0
20
10
90
70
ENDCHAR
STARTCHAR 203B
ENCODING 8536
SWIDTH 1200 0
DWIDTH 12 0
BBX 8 8 2 -1
BITMAP
99
5A
E7
DB
18
3C
5A
81
ENDCHAR
STARTCHAR 2606
ENCODING 8537
SWIDTH 1200 0
DWIDTH 12 0
BBX 8 9 2 -1
BITMAP
08
18
18
E7
81
46
44
5A
66
ENDCHAR
STARTCHAR 2605
ENCODING 8538
SWIDTH 1200 0
DWIDTH 12 0
BBX 8 8 2 0
BITMAP
18
18
18
FF
7E
3C
7C
66
ENDCHAR
STARTCHAR 25CB
ENCODING 8539
SWIDTH 1200 0
DWIDTH 12 0
BBX 10 11 1 -2
BITMAP
1E00
2100
4080
8040
8040
8040
8040
8040
4080
2180
1E00
ENDCHAR
STARTCHAR 25CF
ENCODING 8540
SWIDTH 1200 0
DWIDTH 12 0
BBX 10 10 1 -1
BITMAP
1E00
3F80
7F80
FFC0
FFC0
FFC0
FFC0
7F80
7F80
1E00
ENDCHAR
STARTCHAR 25CE
ENCODING 8541
SWIDTH 1200 0
DWIDTH 12 0
BBX 10 11 1 -2
BITMAP
1E00
6180
5E80
A140
C0C0
C0C0
C0C0
A180
5E80
2300
1C00
ENDCHAR
STARTCHAR 25C7
ENCODING 8542
SWIDTH 1200 0
DWIDTH 12 0
BBX 11 11 0 -2
BITMAP
0200
0D00
1080
2040
4040
8020
4040
2080
1100
0A00
0400
ENDCHAR
STARTCHAR 25C6
ENCODING 8543
SWIDTH 1200 0
DWIDTH 12 0
BBX 10 10 1 -1
BITMAP
0400
0E00
1F00
3F80
7F80
FFC0
7F80
3F00
1E00
0C00
ENDCHAR
STARTCHAR 25A1
ENCODING 8544
SWIDTH 1200 0
DWIDTH 12 0
BBX 10 10 1 -1
BITMAP
FFC0
8040
8040
8040
8040
8040
8040
8040
8040
FFC0
ENDCHAR
STARTCHAR 25A0
ENCODING 8545
SWIDTH 1200 0
DWIDTH 12 0
BBX 10 9 1 -1
BITMAP
FFC0
FFC0
FFC0
FFC0
FFC0
FFC0
FFC0
FFC0
FFC0
ENDCHAR
STARTCHAR 25B3
ENCODING 8546
SWIDTH 1200 0
DWIDTH 12 0
BBX 10 9 1 -1
BITMAP
0800
1400
1400
2200
4100
4100
8080
8080
FFC0
ENDCHAR
STARTCHAR 25B2
ENCODING 8547
SWIDTH 1200 0
DWIDTH 12 0
BBX 10 8 1 -1
BITMAP
0C00
0E00
1E00
3F00
3F00
7F80
7F80
FFC0
ENDCHAR
STARTCHAR 25BD
ENCODING 8548
SWIDTH 1200 0
DWIDTH 12 0
BBX 10 9 1 -1
BITMAP
FFC0
8080
8080
4100
4100
2200
1400
1400
0800
ENDCHAR
STARTCHAR 25BC
ENCODING 8549
SWIDTH 1200 0
DWIDTH 12 0
BBX 10 8 1 0
BITMAP
FFC0
7F80
7F80
3F00
3F00
1E00
0E00
0C00
ENDCHAR
STARTCHAR 2192
ENCODING 8550
SWIDTH 1200 0
DWIDTH 12 0
BBX 10 2 1 3
BITMAP
00C0
FFC0
ENDCHAR
STARTCHAR 2190
ENCODING 8551
SWIDTH 1200 0
DWIDTH 12 0
BBX 10 2 1 3
BITMAP
C000
FFC0
ENDCHAR
STARTCHAR 2191
ENCODING 8552
SWIDTH 1200 0
DWIDTH 12 0
BBX 2 11 5 -2
BITMAP
80
C0
80
80
80
80
80
80
80
80
80
ENDCHAR
STARTCHAR 2193
ENCODING 8553
SWIDTH 1200 0
DWIDTH 12 0
BBX 3 11 5 -2
BITMAP
40
40
40
40
40
40
40
40
40
E0
40
ENDCHAR
STARTCHAR 2194
ENCODING 8554
SWIDTH 1200 0
DWIDTH 12 0
BBX 9 3 1 2
BITMAP
4080
FF80
4000
ENDCHAR
STARTCHAR 3013
ENCODING 8555
SWIDTH 1200 0
DWIDTH 12 0
BBX 8 3 2 2
BITMAP
FF
00
FF
ENDCHAR
STARTCHAR 226A
ENCODING 8556
SWIDTH 1200 0
DWIDTH 12 0
BBX 10 9 1 -1
BITMAP
0240
0D80
1200
6C00
9000
4800
3600
0900
06C0
ENDCHAR
STARTCHAR 226B
ENCODING 8557
SWIDTH 1200 0
DWIDTH 12 0
BBX 10 9 1 -1
BITMAP
9000
4800
3600
0900
06C0
0D80
1200
6C00
9000
ENDCHAR
STARTCHAR 221A
ENCODING 8558
SWIDTH 1200 0
DWIDTH 12 0
BBX 10 9 1 0
BITMAP
07C0
0400
0800
0800
1000
1000
9000
6000
6000
ENDCHAR
STARTCHAR 223D
ENCODING 8559
SWIDTH 1200 0
DWIDTH 12 0
BBX 10 5 1 1
BITMAP
7380
8440
8440
8840
5080
ENDCHAR
STARTCHAR 221D
ENCODING 8560
SWIDTH 1200 0
DWIDTH 12 0
BBX 9 6 1 0
BITMAP
7180
8E00
8400
4C00
3200
0100
ENDCHAR
STARTCHAR 2235
ENCODING 8561
SWIDTH 1200 0
DWIDTH 12 0
BBX 6 6 3 1
BITMAP
84
00
00
00
00
20
ENDCHAR
STARTCHAR 222B
ENCODING 8562
SWIDTH 1200 0
DWIDTH 12 0
BBX 3 11 4 -2
BITMAP
20
C0
40
40
40
40
20
20
20
20
40
ENDCHAR
STARTCHAR 222C
ENCODING 8563
SWIDTH 1200 0
DWIDTH 12 0
BBX 6 11 3 -2
BITMAP
6C
90
90
90
48
48
48
48
44
48
C8
ENDCHAR
STARTCHAR 2208
ENCODING 8564
SWIDTH 1200 0
DWIDTH 12 0
BBX 9 8 1 -1
BITMAP
3F00
4000
8000
7F80
8000
4000
2000
1F00
ENDCHAR
STARTCHAR 220B
ENCODING 8565
SWIDTH 1200 0
DWIDTH 12 0
BBX 8 7 2 0
BITMAP
FE
01
01
FF
01
01
02
ENDCHAR
STARTCHAR 2286
ENCODING 8566
SWIDTH 1200 0
DWIDTH 12 0
BBX 8 7 2 0
BITMAP
3F
C0
80
80
80
7F
FF
ENDCHAR
STARTCHAR 2287
ENCODING 8567
SWIDTH 1200 0
DWIDTH 12 0
BBX 8 7 2 0
BITMAP
FC
03
01
03
FC
00
FF
ENDCHAR
STARTCHAR 2282
ENCODING 8568
SWIDTH 1200 0
DWIDTH 12 0
BBX 9 7 1 0
BITMAP
3F80
4000
8000
8000
8000
4000
3F80
ENDCHAR
STARTCHAR 2283
ENCODING 8569
SWIDTH 1200 0
DWIDTH 12 0
BBX 8 7 2 0
BITMAP
FC
03
01
01
01
01
02
ENDCHAR
STARTCHAR 222A
ENCODING 8570
SWIDTH 1200 0
DWIDTH 12 0
BBX 8 9 2 -1
BITMAP
81
81
81
81
81
81
81
42
24
ENDCHAR
STARTCHAR 2229
ENCODING 8571
SWIDTH 1200 0
DWIDTH 12 0
BBX 8 9 2 -1
BITMAP
3C
42
81
81
81
81
81
81
81
ENDCHAR
STARTCHAR 2227
ENCODING 8572
SWIDTH 1200 0
DWIDTH 12 0
BBX 8 6 2 0
BITMAP
18
28
44
42
82
81
ENDCHAR
STARTCHAR 2228
ENCODING 8573
SWIDTH 1200 0
DWIDTH 12 0
BBX 8 6 2 1
BITMAP
81
82
42
44
28
18
ENDCHAR
STARTCHAR FFE2
ENCODING 8574
SWIDTH 1200 0
DWIDTH 12 0
BBX 8 5 2 1
BITMAP
FF
01
01
01
01
ENDCHAR
STARTCHAR 21D2
ENCODING 8737
SWIDTH 1200 0
DWIDTH 12 0
BBX 12 7 0 0
BITMAP
0080
0040
FFE0
0010
FFE0
0040
0080
ENDCHAR
STARTCHAR 21D4
ENCODING 8738
SWIDTH 1200 0
DWIDTH 12 0
BBX 11 5 0 1
BITMAP
1080
3FC0
C020
7FC0
2080
ENDCHAR
STARTCHAR 2200
ENCODING 8739
SWIDTH 1200 0
DWIDTH 12 0
BBX 8 8 2 0
BITMAP
81
82
7E
44
44
28
28
18
ENDCHAR
STARTCHAR 2203
ENCODING 8740
SWIDTH 1200 0
DWIDTH 12 0
BBX 6 9 3 -1
BITMAP
FC
04
04
04
FC
04
04
04
FC
ENDCHAR
STARTCHAR 00B4
ENCODING 8741
SWIDTH 1200 0
DWIDTH 12 0
BBX 1 1 5 8
BITMAP
80
ENDCHAR
STARTCHAR FF5E
ENCODING 8742
SWIDTH 1200 0
DWIDTH 12 0
BBX 4 2 4 7
BITMAP
C0
30
ENDCHAR
STARTCHAR 02C7
ENCODING 8743
SWIDTH 1200 0
DWIDTH 12 0
BBX 2 1 5 8
BITMAP
C0
ENDCHAR
STARTCHAR 02D8
ENCODING 8744
SWIDTH 1200 0
DWIDTH 12 0
BBX 3 1 4 7
BITMAP
E0
ENDCHAR
STARTCHAR 02DD
ENCODING 8745
SWIDTH 1200 0
DWIDTH 12 0
BBX 0 0 0 0
BITMAP
ENDCHAR
STARTCHAR 02DA
ENCODING 8746
SWIDTH 1200 0
DWIDTH 12 0
BBX 3 3 4 6
BITMAP
60
A0
40
ENDCHAR
STARTCHAR 02D9
ENCODING 8747
SWIDTH 1200 0
DWIDTH 12 0
BBX 1 2 5 8
BITMAP
80
80
ENDCHAR
STARTCHAR 00B8
ENCODING 8748
SWIDTH 1200 0
DWIDTH 12 0
BBX 1 2 6 -2
BITMAP
80
80
ENDCHAR
STARTCHAR 02DB
ENCODING 8749
SWIDTH 1200 0
DWIDTH 12 0
BBX 2 2 5 -2
BITMAP
80
C0
ENDCHAR
STARTCHAR 00A1
ENCODING 8750
SWIDTH 1200 0
DWIDTH 12 0
BBX 2 9 5 -1
BITMAP
C0
00
00
00
80
80
80
C0
C0
ENDCHAR
STARTCHAR 00BF
ENCODING 8751
SWIDTH 1200 0
DWIDTH 12 0
BBX 4 9 4 -1
BITMAP
20
00
00
20
20
C0
80
80
70
ENDCHAR
STARTCHAR 02D0
ENCODING 8752
SWIDTH 1200 0
DWIDTH 12 0
BBX 2 5 5 1
BITMAP
C0
00
00
00
C0
ENDCHAR
STARTCHAR 222E
ENCODING 8753
SWIDTH 1200 0
DWIDTH 12 0
BBX 5 9 3 -1
BITMAP
18
20
20
20
F0
60
20
40
C0
ENDCHAR
STARTCHAR 2211
ENCODING 8754
SWIDTH 1200 0
DWIDTH 12 0
BBX 10 10 1 -1
BITMAP
FFC0
40C0
2040
1040
0C40
0800
1000
2040
4040
FFC0
ENDCHAR
STARTCHAR 220F
ENCODING 8755
SWIDTH 1200 0
DWIDTH 12 0
BBX 8 11 2 -2
BITMAP
FF
42
42
42
42
42
42
42
42
42
E7
ENDCHAR
STARTCHAR 00A4
ENCODING 8756
SWIDTH 1200 0
DWIDTH 12 0
BBX 7 8 2 -1
BITMAP
FE
82
82
82
82
82
66
98
ENDCHAR
STARTCHAR 2109
ENCODING 8757
SWIDTH 1200 0
DWIDTH 12 0
BBX 9 8 1 0
BITMAP
CF80
C800
0800
0F80
0800
0800
0800
0800
ENDCHAR
STARTCHAR 2030
ENCODING 8758
SWIDTH 1200 0
DWIDTH 12 0
BBX 10 11 1 -2
BITMAP
E100
9200
9400
9800
9800
7080
2F40
4B40
4B40
8B40
0480
ENDCHAR
STARTCHAR 25C1
ENCODING 8759
SWIDTH 1200 0
DWIDTH 12 0
BBX 8 9 2 -1
BITMAP
01
07
19
61
81
41
31
0D
03
ENDCHAR
STARTCHAR 25C0
ENCODING 8760
SWIDTH 1200 0
DWIDTH 12 0
BBX 8 9 2 -1
BITMAP
01
07
0F
3F
FF
3F
0F
07
01
ENDCHAR
STARTCHAR 25B7
ENCODING 8761
SWIDTH 1200 0
DWIDTH 12 0
BBX 8 9 2 -1
BITMAP
80
E0
98
84
83
86
98
A0
C0
ENDCHAR
STARTCHAR 25B6
ENCODING 8762
SWIDTH 1200 0
DWIDTH 12 0
BBX 8 9 2 -1
BITMAP
80
E0
F0
FC
FF
FC
F0
E0
80
ENDCHAR
STARTCHAR 2664
ENCODING 8763
SWIDTH 1200 0
DWIDTH 12 0
BBX 8 10 2 -2
BITMAP
18
24
42
42
81
81
99
FE
28
3C
ENDCHAR
STARTCHAR 2660
ENCODING 8764
SWIDTH 1200 0
DWIDTH 12 0
BBX 8 10 2 -2
BITMAP
18
3C
7E
7E
FF
FF
FF
F7
18
18
ENDCHAR
STARTCHAR 2661
ENCODING 8765
SWIDTH 1200 0
DWIDTH 12 0
BBX 8 10 2 -1
BITMAP
66
FF
99
81
81
81
42
44
24
18
ENDCHAR
STARTCHAR 2665
ENCODING 8766
SWIDTH 1200 0
DWIDTH 12 0
BBX 10 10 1 -2
BITMAP
7780
FFC0
FFC0
FFC0
7F80
7F80
3F00
1E00
0C00
0C00
ENDCHAR
STARTCHAR 2667
ENCODING 8767
SWIDTH 1200 0
DWIDTH 12 0
BBX 11 10 0 -2
BITMAP
1F00
1100
1100
0A00
79E0
8020
8A20
7BE0
0A00
0E00
ENDCHAR
STARTCHAR 2663
ENCODING 8768
SWIDTH 1200 0
DWIDTH 12 0
BBX 10 10 1 -1
BITMAP
1E00
1E00
1E00
1E00
6F80
FFC0
FFC0
FBC0
2D00
0C00
ENDCHAR
STARTCHAR 2299
ENCODING 8769
SWIDTH 1200 0
DWIDTH 12 0
BBX 10 11 1 -2
BITMAP
1E00
2100
5E80
BF40
BF40
BF40
BF40
BF40
4C80
2100
1E00
ENDCHAR
STARTCHAR 25C8
ENCODING 8770
SWIDTH 1200 0
DWIDTH 12 0
BBX 11 11 0 -2
BITMAP
0200
0D00
1700
2F80
5FC0
BFE0
5FC0
2F80
1680
0900
0600
ENDCHAR
STARTCHAR 25A3
ENCODING 8771
SWIDTH 1200 0
DWIDTH 12 0
BBX 10 11 1 -2
BITMAP
FFC0
8040
8040
BF40
BF40
BF40
BF40
BF40
8040
8040
FFC0
ENDCHAR
STARTCHAR 25D0
ENCODING 8772
SWIDTH 1200 0
DWIDTH 12 0
BBX 10 11 1 -2
BITMAP
1E00
3180
7080
F040
F040
F040
F040
F0C0
7080
3380
1E00
ENDCHAR
STARTCHAR 25D1
ENCODING 8773
SWIDTH 1200 0
DWIDTH 12 0
BBX 10 11 1 -2
BITMAP
1E00
6300
4380
83C0
83C0
83C0
83C0
4380
4380
3200
0C00
ENDCHAR
STARTCHAR 2592
ENCODING 8774
SWIDTH 1200 0
DWIDTH 12 0
BBX 10 11 1 -2
BITMAP
FFC0
B5C0
CA40
B5C0
CA40
FFC0
B5C0
E8C0
B5C0
E8C0
FFC0
ENDCHAR
STARTCHAR 25A4
ENCODING 8775
SWIDTH 1200 0
DWIDTH 12 0
BBX 10 10 1 -1
BITMAP
FFC0
8040
8040
FFC0
8040
FFC0
8040
FFC0
8040
FFC0
ENDCHAR
STARTCHAR 25A5
ENCODING 8776
SWIDTH 1200 0
DWIDTH 12 0
BBX 10 11 1 -2
BITMAP
FFC0
A940
A940
A940
A940
A940
A940
A940
A940
A940
FFC0
ENDCHAR
STARTCHAR 25A8
ENCODING 8777
SWIDTH 1200 0
DWIDTH 12 0
BBX 10 11 1 -2
BITMAP
FFC0
8840
91C0
A240
C440
8840
91C0
A240
C440
8840
FFC0
ENDCHAR
STARTCHAR 25A7
ENCODING 8778
SWIDTH 1200 0
DWIDTH 12 0
BBX 10 11 1 -2
BITMAP
FFC0
C840
A440
9240
8940
84C0
C240
A140
90C0
8840
FFC0
ENDCHAR
STARTCHAR 25A6
ENCODING 8779
SWIDTH 1200 0
DWIDTH 12 0
BBX 10 10 1 -1
BITMAP
FFC0
A940
A940
FFC0
A940
FFC0
A940
FFC0
A940
FFC0
ENDCHAR
STARTCHAR 25A9
ENCODING 8780
SWIDTH 1200 0
DWIDTH 12 0
BBX 10 10 1 -1
BITMAP
FFC0
CC40
B3C0
A340
D4C0
8840
D5C0
B340
CEC0
FFC0
ENDCHAR
STARTCHAR 2668
ENCODING 8781
SWIDTH 1200 0
DWIDTH 12 0
BBX 10 10 1 -2
BITMAP
1A00
1A00
2A00
1600
1500
1600
5A40
8840
C1C0
3F00
ENDCHAR
STARTCHAR 260F
ENCODING 8782
SWIDTH 1200 0
DWIDTH 12 0
BBX 11 9 0 -1
BITMAP
1F80
7060
BFA0
D760
3980
3140
5140
4E40
3980
ENDCHAR
STARTCHAR 260E
ENCODING 8783
SWIDTH 1200 0
DWIDTH 12 0
BBX 10 8 1 0
BITMAP
3F00
F3C0
DEC0
9240
2100
6180
7380
FF80
ENDCHAR
STARTCHAR 261C
ENCODING 8784
SWIDTH 1200 0
DWIDTH 12 0
BBX 12 5 0 1
BITMAP
FFD0
7E30
1710
0F10
02E0
ENDCHAR
STARTCHAR 261E
ENCODING 8785
SWIDTH 1200 0
DWIDTH 12 0
BBX 11 5 1 1
BITMAP
BFE0
C7C0
9F00
9600
6800
ENDCHAR
STARTCHAR 00B6
ENCODING 8786
SWIDTH 1200 0
DWIDTH 12 0
BBX 8 11 2 -2
BITMAP
01
F9
89
89
79
09
09
09
09
09
09
ENDCHAR
STARTCHAR 2020
ENCODING 8787
SWIDTH 1200 0
DWIDTH 12 0
BBX 7 11 3 -2
BITMAP
10
10
10
FE
10
10
10
10
10
10
10
ENDCHAR
STARTCHAR 2021
ENCODING 8788
SWIDTH 1200 0
DWIDTH 12 0
BBX 7 11 2 -2
BITMAP
10
FE
10
7E
10
10
10
10
10
10
10
ENDCHAR
STARTCHAR 2195
ENCODING 8789
SWIDTH 1200 0
DWIDTH 12 0
BBX 3 10 4 -1
BITMAP
40
E0
40
40
40
40
40
40
E0
40
ENDCHAR
STARTCHAR 2197
ENCODING 8790
SWIDTH 1200 0
DWIDTH 12 0
BBX 7 6 3 1
BITMAP
06
0C
10
20
40
80
ENDCHAR
STARTCHAR 2199
ENCODING 8791
SWIDTH 1200 0
DWIDTH 12 0
BBX 7 6 2 0
BITMAP
06
08
10
20
C0
E0
ENDCHAR
STARTCHAR 2196
ENCODING 8792
SWIDTH 1200 0
DWIDTH 12 0
BBX 7 7 2 0
BITMAP
C0
C0
20
10
08
04
02
ENDCHAR
STARTCHAR 2198
ENCODING 8793
SWIDTH 1200 0
DWIDTH 12 0
BBX 7 6 3 0
BITMAP
80
40
20
10
0C
06
ENDCHAR
STARTCHAR 266D
ENCODING 8794
SWIDTH 1200 0
DWIDTH 12 0
BBX 4 9 4 -1
BITMAP
80
80
80
F0
90
90
90
A0
C0
ENDCHAR
STARTCHAR 2669
ENCODING 8795
SWIDTH 1200 0
DWIDTH 12 0
BBX 3 10 5 -1
BITMAP
20
20
20
20
20
20
20
20
60
C0
ENDCHAR
STARTCHAR 266A
ENCODING 8796
SWIDTH 1200 0
DWIDTH 12 0
BBX 6 10 3 -1
BITMAP
20
30
38
2C
24
24
24
20
60
C0
ENDCHAR
STARTCHAR 266C
ENCODING 8797
SWIDTH 1200 0
DWIDTH 12 0
BBX 8 9 2 -1
BITMAP
3F
21
3F
21
21
21
21
E7
C4
ENDCHAR
STARTCHAR 327F
ENCODING 8798
SWIDTH 1200 0
DWIDTH 12 0
BBX 10 11 1 -2
BITMAP
1E00
6100
4080
9240
9400
DDC0
1240
9240
4080
2100
1E00
ENDCHAR
STARTCHAR 321C
ENCODING 8799
SWIDTH 1200 0
DWIDTH 12 0
BBX 12 9 0 -1
BITMAP
5FA0
8220
8E10
9190
BFF0
8210
8220
4220
4200
ENDCHAR
STARTCHAR 2116
ENCODING 8800
SWIDTH 1200 0
DWIDTH 12 0
BBX 12 8 0 0
BITMAP
8400
C400
C5C0
A620
A620
9620
8E20
85D0
ENDCHAR
STARTCHAR 33C7
ENCODING 8801
SWIDTH 1200 0
DWIDTH 12 0
BBX 12 10 0 -1
BITMAP
3000
4800
8000
81C0
8220
8220
8220
8220
4A50
3180
ENDCHAR
STARTCHAR 2122
ENCODING 8802
SWIDTH 1200 0
DWIDTH 12 0
BBX 10 9 1 0
BITMAP
FC40
2440
2440
26C0
2740
2740
2740
2740
2540
ENDCHAR
STARTCHAR 33C2
ENCODING 8803
SWIDTH 1200 0
DWIDTH 12 0
BBX 12 6 0 0
BITMAP
E3E0
92A0
32A0
D2A0
92A0
92B0
ENDCHAR
STARTCHAR 33D8
ENCODING 8804
SWIDTH 1200 0
DWIDTH 12 0
BBX 12 8 0 -2
BITMAP
F3E0
8AA0
8AA0
8AA0
8AA0
D2B0
A000
8000
ENDCHAR
STARTCHAR 2121
ENCODING 8805
SWIDTH 1200 0
DWIDTH 12 0
BBX 10 10 1 0
BITMAP
0040
F840
2040
2040
2F40
2940
2F40
3040
2840
2600
ENDCHAR
STARTCHAR FF01
ENCODING 8993
SWIDTH 1200 0
DWIDTH 12 0
BBX 2 8 5 0
BITMAP
80
80
80
80
80
80
00
40
ENDCHAR
STARTCHAR FF02
ENCODING 8994
SWIDTH 1200 0
DWIDTH 12 0
BBX 1 1 6 7
BITMAP
80
ENDCHAR
STARTCHAR FF03
ENCODING 8995
SWIDTH 1200 0
DWIDTH 12 0
BBX 8 9 2 0
BITMAP
02
02
14
7F
24
FE
48
48
40
ENDCHAR
STARTCHAR FF04
ENCODING 8996
SWIDTH 1200 0
DWIDTH 12 0
BBX 5 10 3 -1
BITMAP
20
F8
A8
A0
60
38
28
28
F8
20
ENDCHAR
STARTCHAR FF05
ENCODING 8997
SWIDTH 1200 0
DWIDTH 12 0
BBX 10 8 1 0
BITMAP
7000
8A00
8C00
7400
0B80
1440
1440
0380
ENDCHAR
STARTCHAR FF06
ENCODING 8998
SWIDTH 1200 0
DWIDTH 12 0
BBX 7 10 2 -1
BITMAP
10
28
28
28
30
4A
8C
84
6A
10
ENDCHAR
STARTCHAR FF07
ENCODING 8999
SWIDTH 1200 0
DWIDTH 12 0
BBX 1 1 5 7
BITMAP
80
ENDCHAR
STARTCHAR FF08
ENCODING 9000
SWIDTH 1200 0
DWIDTH 12 0
BBX 2 11 5 -2
BITMAP
40
80
80
80
80
80
80
80
80
80
40
ENDCHAR
STARTCHAR FF09
ENCODING 9001
SWIDTH 1200 0
DWIDTH 12 0
BBX 2 11 5 -2
BITMAP
80
80
40
40
40
40
40
40
40
80
80
ENDCHAR
STARTCHAR FF0A
ENCODING 9002
SWIDTH 1200 0
DWIDTH 12 0
BBX 5 4 4 2
BITMAP
20
F8
20
50
ENDCHAR
STARTCHAR FF0B
ENCODING 9003
SWIDTH 1200 0
DWIDTH 12 0
BBX 9 8 1 0
BITMAP
0800
0800
0800
0800
FF80
0800
0800
0800
ENDCHAR
STARTCHAR FF0C
ENCODING 9004
SWIDTH 1200 0
DWIDTH 12 0
BBX 1 2 2 -2
BITMAP
80
80
ENDCHAR
STARTCHAR FF0D
ENCODING 9005
SWIDTH 1200 0
DWIDTH 12 0
BBX 8 1 2 3
BITMAP
FF
ENDCHAR
STARTCHAR FF0E
ENCODING 9006
SWIDTH 1200 0
DWIDTH 12 0
BBX 1 1 2 0
BITMAP
80
ENDCHAR
STARTCHAR FF0F
ENCODING 9007
SWIDTH 1200 0
DWIDTH 12 0
BBX 10 11 1 -2
BITMAP
0040
0080
0100
0200
0400
0800
1000
2000
6000
4000
8000
ENDCHAR
STARTCHAR FF10
ENCODING 9008
SWIDTH 1200 0
DWIDTH 12 0
BBX 6 9 3 0
BITMAP
78
48
84
84
84
84
84
48
78
ENDCHAR
STARTCHAR FF11
ENCODING 9009
SWIDTH 1200 0
DWIDTH 12 0
BBX 3 8 4 0
BITMAP
20
E0
20
20
20
20
20
20
ENDCHAR
STARTCHAR FF12
ENCODING 9010
SWIDTH 1200 0
DWIDTH 12 0
BBX 6 9 3 0
BITMAP
38
44
04
08
08
30
40
80
FC
ENDCHAR
STARTCHAR FF13
ENCODING 9011
SWIDTH 1200 0
DWIDTH 12 0
BBX 6 10 3 -1
BITMAP
38
48
08
08
30
08
04
84
68
10
ENDCHAR
STARTCHAR FF14
ENCODING 9012
SWIDTH 1200 0
DWIDTH 12 0
BBX 6 8 3 0
BITMAP
08
18
28
48
88
FC
08
08
ENDCHAR
STARTCHAR FF15
ENCODING 9013
SWIDTH 1200 0
DWIDTH 12 0
BBX 6 8 3 0
BITMAP
78
40
40
78
04
84
48
38
ENDCHAR
STARTCHAR FF16
ENCODING 9014
SWIDTH 1200 0
DWIDTH 12 0
BBX 6 9 3 0
BITMAP
78
44
80
B0
CC
84
84
84
78
ENDCHAR
STARTCHAR FF17
ENCODING 9015
SWIDTH 1200 0
DWIDTH 12 0
BBX 6 7 3 1
BITMAP
FC
08
10
10
20
20
20
ENDCHAR
STARTCHAR FF18
ENCODING 9016
SWIDTH 1200 0
DWIDTH 12 0
BBX 6 9 3 0
BITMAP
38
44
44
44
38
C4
84
84
78
ENDCHAR
STARTCHAR FF19
ENCODING 9017
SWIDTH 1200 0
DWIDTH 12 0
BBX 6 9 3 0
BITMAP
78
CC
84
84
84
7C
04
88
78
ENDCHAR
STARTCHAR FF1A
ENCODING 9018
SWIDTH 1200 0
DWIDTH 12 0
BBX 1 6 6 0
BITMAP
80
00
00
00
00
80
ENDCHAR
STARTCHAR FF1B
ENCODING 9019
SWIDTH 1200 0
DWIDTH 12 0
BBX 1 8 5 -2
BITMAP
80
00
00
00
00
80
80
80
ENDCHAR
STARTCHAR FF1C
ENCODING 9020
SWIDTH 1200 0
DWIDTH 12 0
BBX 7 8 3 0
BITMAP
02
0C
30
C0
80
60
18
06
ENDCHAR
STARTCHAR FF1D
ENCODING 9021
SWIDTH 1200 0
DWIDTH 12 0
BBX 8 3 2 2
BITMAP
FF
00
FF
ENDCHAR
STARTCHAR FF1E
ENCODING 9022
SWIDTH 1200 0
DWIDTH 12 0
BBX 7 8 2 0
BITMAP
80
60
18
06
02
0C
30
C0
ENDCHAR
STARTCHAR FF1F
ENCODING 9023
SWIDTH 1200 0
DWIDTH 12 0
BBX 5 9 4 0
BITMAP
60
90
08
10
10
20
00
00
40
ENDCHAR
STARTCHAR FF20
ENCODING 9024
SWIDTH 1200 0
DWIDTH 12 0
BBX 10 9 1 -1
BITMAP
3F00
6180
DE40
A240
A240
A240
5D80
6080
1F00
ENDCHAR
STARTCHAR FF21
ENCODING 9025
SWIDTH 1200 0
DWIDTH 12 0
BBX 7 9 2 -1
BITMAP
18
18
28
24
24
3E
42
40
80
ENDCHAR
STARTCHAR FF22
ENCODING 9026
SWIDTH 1200 0
DWIDTH 12 0
BBX 6 9 3 0
BITMAP
F8
84
84
88
F8
84
84
84
F8
ENDCHAR
STARTCHAR FF23
ENCODING 9027
SWIDTH 1200 0
DWIDTH 12 0
BBX 7 9 2 0
BITMAP
3C
42
82
80
80
80
80
42
3C
ENDCHAR
STARTCHAR FF24
ENCODING 9028
SWIDTH 1200 0
DWIDTH 12 0
BBX 7 8 3 0
BITMAP
FC
84
82
82
82
82
84
F8
ENDCHAR
STARTCHAR FF25
ENCODING 9029
SWIDTH 1200 0
DWIDTH 12 0
BBX 6 9 3 0
BITMAP
FC
80
80
80
F8
80
80
80
FC
ENDCHAR
STARTCHAR FF26
ENCODING 9030
SWIDTH 1200 0
DWIDTH 12 0
BBX 5 8 3 0
BITMAP
F8
80
80
F8
80
80
80
80
ENDCHAR
STARTCHAR FF27
ENCODING 9031
SWIDTH 1200 0
DWIDTH 12 0
BBX 8 9 2 0
BITMAP
3C
42
80
80
8F
81
81
43
3D
ENDCHAR
STARTCHAR FF28
ENCODING 9032
SWIDTH 1200 0
DWIDTH 12 0
BBX 6 9 3 0
BITMAP
04
84
84
84
FC
84
84
84
84
ENDCHAR
STARTCHAR FF29
ENCODING 9033
SWIDTH 1200 0
DWIDTH 12 0
BBX 1 8 5 0
BITMAP
80
80
80
80
80
80
80
80
ENDCHAR
STARTCHAR FF2A
ENCODING 9034
SWIDTH 1200 0
DWIDTH 12 0
BBX 5 8 3 0
BITMAP
08
08
08
08
08
88
88
70
ENDCHAR
STARTCHAR FF2B
ENCODING 9035
SWIDTH 1200 0
DWIDTH 12 0
BBX 6 8 3 0
BITMAP
84
88
90
A0
D0
88
84
84
ENDCHAR
STARTCHAR FF2C
ENCODING 9036
SWIDTH 1200 0
DWIDTH 12 0
BBX 5 8 3 0
BITMAP
80
80
80
80
80
80
80
F8
ENDCHAR
STARTCHAR FF2D
ENCODING 9037
SWIDTH 1200 0
DWIDTH 12 0
BBX 8 8 2 0
BITMAP
81
C3
C5
A5
A5
A9
99
99
ENDCHAR
STARTCHAR FF2E
ENCODING 9038
SWIDTH 1200 0
DWIDTH 12 0
BBX 6 8 3 0
BITMAP
84
C4
C4
A4
A4
94
8C
84
ENDCHAR
STARTCHAR FF2F
ENCODING 9039
SWIDTH 1200 0
DWIDTH 12 0
BBX 8 10 2 -1
BITMAP
18
66
81
81
81
81
81
42
24
18
ENDCHAR
STARTCHAR FF30
ENCODING 9040
SWIDTH 1200 0
DWIDTH 12 0
BBX 6 8 3 0
BITMAP
FC
84
84
8C
F0
80
80
80
ENDCHAR
STARTCHAR FF31
ENCODING 9041
SWIDTH 1200 0
DWIDTH 12 0
BBX 8 10 2 -1
BITMAP
3C
42
C3
81
81
81
81
4E
66
19
ENDCHAR
STARTCHAR FF32
ENCODING 9042
SWIDTH 1200 0
DWIDTH 12 0
BBX 6 9 3 0
BITMAP
F8
84
84
84
F8
84
84
84
84
ENDCHAR
STARTCHAR FF33
ENCODING 9043
SWIDTH 1200 0
DWIDTH 12 0
BBX 6 9 3 0
BITMAP
70
88
84
80
70
0C
84
8C
78
ENDCHAR
STARTCHAR FF34
ENCODING 9044
SWIDTH 1200 0
DWIDTH 12 0
BBX 7 8 2 0
BITMAP
FE
10
10
10
10
10
10
10
ENDCHAR
STARTCHAR FF35
ENCODING 9045
SWIDTH 1200 0
DWIDTH 12 0
BBX 6 8 3 0
BITMAP
84
84
84
84
84
84
84
78
ENDCHAR
STARTCHAR FF36
ENCODING 9046
SWIDTH 1200 0
DWIDTH 12 0
BBX 6 8 3 0
BITMAP
84
84
88
48
48
50
30
30
ENDCHAR
STARTCHAR FF37
ENCODING 9047
SWIDTH 1200 0
DWIDTH 12 0
BBX 10 8 1 0
BITMAP
8C40
8C40
8C80
5480
5280
5300
6300
2100
ENDCHAR
STARTCHAR FF38
ENCODING 9048
SWIDTH 1200 0
DWIDTH 12 0
BBX 6 8 3 0
BITMAP
84
48
50
30
30
50
48
84
ENDCHAR
STARTCHAR FF39
ENCODING 9049
SWIDTH 1200 0
DWIDTH 12 0
BBX 7 8 2 0
BITMAP
82
44
28
28
10
10
10
10
ENDCHAR
STARTCHAR FF3A
ENCODING 9050
SWIDTH 1200 0
DWIDTH 12 0
BBX 6 9 3 0
BITMAP
FC
08
08
10
20
40
40
80
FC
ENDCHAR
STARTCHAR FF3B
ENCODING 9051
SWIDTH 1200 0
DWIDTH 12 0
BBX 2 11 5 -2
BITMAP
C0
80
80
80
80
80
80
80
80
80
C0
ENDCHAR
STARTCHAR FFE6
ENCODING 9052
SWIDTH 1200 0
DWIDTH 12 0
BBX 12 8 0 0
BITMAP
4620
4620
FFF0
2A40
FFF0
2940
3180
1080
ENDCHAR
STARTCHAR FF3D
ENCODING 9053
SWIDTH 1200 0
DWIDTH 12 0
BBX 2 11 5 -2
BITMAP
C0
40
40
40
40
40
40
40
40
40
C0
ENDCHAR
STARTCHAR FF3E
ENCODING 9054
SWIDTH 1200 0
DWIDTH 12 0
BBX 2 1 5 8
BITMAP
C0
ENDCHAR
STARTCHAR FF3F
ENCODING 9055
SWIDTH 1200 0
DWIDTH 12 0
BBX 12 1 0 -2
BITMAP
FFF0
ENDCHAR
STARTCHAR FF40
ENCODING 9056
SWIDTH 1200 0
DWIDTH 12 0
BBX 2 3 5 6
BITMAP
80
80
40
ENDCHAR
STARTCHAR FF41
ENCODING 9057
SWIDTH 1200 0
DWIDTH 12 0
BBX 6 6 3 0
BITMAP
70
48
08
F8
88
7C
ENDCHAR
STARTCHAR FF42
ENCODING 9058
SWIDTH 1200 0
DWIDTH 12 0
BBX 6 8 3 0
BITMAP
80
80
B8
C4
84
84
84
F8
ENDCHAR
STARTCHAR FF43
ENCODING 9059
SWIDTH 1200 0
DWIDTH 12 0
BBX 6 6 3 0
BITMAP
38
C4
80
80
80
78
ENDCHAR
STARTCHAR FF44
ENCODING 9060
SWIDTH 1200 0
DWIDTH 12 0
BBX 6 8 3 0
BITMAP
04
04
74
8C
84
84
84
7C
ENDCHAR
STARTCHAR FF45
ENCODING 9061
SWIDTH 1200 0
DWIDTH 12 0
BBX 6 6 3 0
BITMAP
78
88
FC
80
80
78
ENDCHAR
STARTCHAR FF46
ENCODING 9062
SWIDTH 1200 0
DWIDTH 12 0
BBX 3 8 4 0
BITMAP
40
40
E0
40
40
40
40
40
ENDCHAR
STARTCHAR FF47
ENCODING 9063
SWIDTH 1200 0
DWIDTH 12 0
BBX 6 8 3 -2
BITMAP
7C
CC
84
84
CC
74
84
78
ENDCHAR
STARTCHAR FF48
ENCODING 9064
SWIDTH 1200 0
DWIDTH 12 0
BBX 4 8 4 0
BITMAP
80
80
E0
90
90
90
90
90
ENDCHAR
STARTCHAR FF49
ENCODING 9065
SWIDTH 1200 0
DWIDTH 12 0
BBX 1 8 6 0
BITMAP
80
00
80
80
80
80
80
80
ENDCHAR
STARTCHAR FF4A
ENCODING 9066
SWIDTH 1200 0
DWIDTH 12 0
BBX 1 10 6 -2
BITMAP
80
00
80
80
80
80
80
80
80
80
ENDCHAR
STARTCHAR FF4B
ENCODING 9067
SWIDTH 1200 0
DWIDTH 12 0
BBX 5 8 3 0
BITMAP
80
80
80
B0
E0
A0
90
88
ENDCHAR
STARTCHAR FF4C
ENCODING 9068
SWIDTH 1200 0
DWIDTH 12 0
BBX 1 8 6 0
BITMAP
80
80
80
80
80
80
80
80
ENDCHAR
STARTCHAR FF4D
ENCODING 9069
SWIDTH 1200 0
DWIDTH 12 0
BBX 8 6 2 0
BITMAP
FF
91
91
91
91
91
ENDCHAR
STARTCHAR FF4E
ENCODING 9070
SWIDTH 1200 0
DWIDTH 12 0
BBX 5 6 4 0
BITMAP
F0
88
88
88
88
88
ENDCHAR
STARTCHAR FF4F
ENCODING 9071
SWIDTH 1200 0
DWIDTH 12 0
BBX 6 6 3 0
BITMAP
78
CC
84
84
CC
78
ENDCHAR
STARTCHAR FF50
ENCODING 9072
SWIDTH 1200 0
DWIDTH 12 0
BBX 6 8 3 -2
BITMAP
B8
C4
84
84
84
F8
80
80
ENDCHAR
STARTCHAR FF51
ENCODING 9073
SWIDTH 1200 0
DWIDTH 12 0
BBX 6 8 3 -2
BITMAP
7C
84
84
84
84
7C
04
04
ENDCHAR
STARTCHAR FF52
ENCODING 9074
SWIDTH 1200 0
DWIDTH 12 0
BBX 3 5 4 1
BITMAP
20
40
80
80
80
ENDCHAR
STARTCHAR FF53
ENCODING 9075
SWIDTH 1200 0
DWIDTH 12 0
BBX 4 7 4 -1
BITMAP
F0
90
80
70
10
90
60
ENDCHAR
STARTCHAR FF54
ENCODING 9076
SWIDTH 1200 0
DWIDTH 12 0
BBX 3 8 4 0
BITMAP
40
40
E0
40
40
40
40
40
ENDCHAR
STARTCHAR FF55
ENCODING 9077
SWIDTH 1200 0
DWIDTH 12 0
BBX 5 6 3 0
BITMAP
88
88
88
88
88
F8
ENDCHAR
STARTCHAR FF56
ENCODING 9078
SWIDTH 1200 0
DWIDTH 12 0
BBX 4 5 4 0
BITMAP
90
90
A0
60
60
ENDCHAR
STARTCHAR FF57
ENCODING 9079
SWIDTH 1200 0
DWIDTH 12 0
BBX 8 6 2 0
BITMAP
89
99
9A
6A
66
24
ENDCHAR
STARTCHAR FF58
ENCODING 9080
SWIDTH 1200 0
DWIDTH 12 0
BBX 4 5 4 1
BITMAP
90
A0
60
60
90
ENDCHAR
STARTCHAR FF59
ENCODING 9081
SWIDTH 1200 0
DWIDTH 12 0
BBX 4 7 4 -2
BITMAP
90
90
A0
60
20
40
40
ENDCHAR
STARTCHAR FF5A
ENCODING 9082
SWIDTH 1200 0
DWIDTH 12 0
BBX 4 6 4 0
BITMAP
F0
20
20
40
80
F0
ENDCHAR
STARTCHAR FF5B
ENCODING 9083
SWIDTH 1200 0
DWIDTH 12 0
BBX 2 12 5 -2
BITMAP
40
80
80
80
80
80
80
80
80
80
80
40
ENDCHAR
STARTCHAR FF5C
ENCODING 9084
SWIDTH 1200 0
DWIDTH 12 0
BBX 1 11 6 -2
BITMAP
80
80
80
80
80
80
80
80
80
80
80
ENDCHAR
STARTCHAR FF5D
ENCODING 9085
SWIDTH 1200 0
DWIDTH 12 0
BBX 1 10 5 -1
BITMAP
80
80
80
80
80
80
80
80
80
80
ENDCHAR
STARTCHAR FFE3
ENCODING 9086
SWIDTH 1200 0
DWIDTH 12 0
BBX 4 1 4 9
BITMAP
F0
ENDCHAR
STARTCHAR 3131
ENCODING 9249
SWIDTH 1200 0
DWIDTH 12 0
BBX 8 6 2 1
BITMAP
FF
01
01
01
01
01
ENDCHAR
STARTCHAR 3132
ENCODING 9250
SWIDTH 1200 0
DWIDTH 12 0
BBX 8 6 2 0
BITMAP
FF
11
11
11
11
01
ENDCHAR
STARTCHAR 3133
ENCODING 9251
SWIDTH 1200 0
DWIDTH 12 0
BBX 10 6 1 1
BITMAP
F100
1100
1100
1280
1280
1440
ENDCHAR
STARTCHAR 3134
ENCODING 9252
SWIDTH 1200 0
DWIDTH 12 0
BBX 8 6 2 1
BITMAP
80
80
80
80
80
FF
ENDCHAR
STARTCHAR 3135
ENCODING 9253
SWIDTH 1200 0
DWIDTH 12 0
BBX 9 7 1 0
BITMAP
8780
8200
8300
8300
8480
8080
E000
ENDCHAR
STARTCHAR 3136
ENCODING 9254
SWIDTH 1200 0
DWIDTH 12 0
BBX 10 7 1 0
BITMAP
8300
8000
8FC0
8380
8480
8480
E780
ENDCHAR
STARTCHAR 3137
ENCODING 9255
SWIDTH 1200 0
DWIDTH 12 0
BBX 8 5 2 2
BITMAP
FE
80
80
80
FF
ENDCHAR
STARTCHAR 3138
ENCODING 9256
SWIDTH 1200 0
DWIDTH 12 0
BBX 9 6 1 1
BITMAP
F780
8400
8400
8400
8400
F780
ENDCHAR
STARTCHAR 3139
ENCODING 9257
SWIDTH 1200 0
DWIDTH 12 0
BBX 8 7 2 0
BITMAP
FE
02
02
FE
80
80
FF
ENDCHAR
STARTCHAR 313A
ENCODING 9258
SWIDTH 1200 0
DWIDTH 12 0
BBX 9 7 2 0
BITMAP
F780
1080
1080
F080
8080
8080
F080
ENDCHAR
STARTCHAR 313B
ENCODING 9259
SWIDTH 1200 0
DWIDTH 12 0
BBX 8 7 2 0
BITMAP
F7
15
15
F5
85
87
F9
ENDCHAR
STARTCHAR 313C
ENCODING 9260
SWIDTH 1200 0
DWIDTH 12 0
BBX 9 7 1 0
BITMAP
F400
1480
1780
7480
4480
4480
7F80
ENDCHAR
STARTCHAR 313D
ENCODING 9261
SWIDTH 1200 0
DWIDTH 12 0
BBX 10 7 1 0
BITMAP
F100
1100
1100
F300
8280
8280
F440
ENDCHAR
STARTCHAR 313E
ENCODING 9262
SWIDTH 1200 0
DWIDTH 12 0
BBX 9 7 1 0
BITMAP
F780
1400
1400
F780
8400
8400
FF80
ENDCHAR
STARTCHAR 313F
ENCODING 9263
SWIDTH 1200 0
DWIDTH 12 0
BBX 10 7 1 0
BITMAP
F780
1480
1500
F500
8500
87C0
F000
ENDCHAR
STARTCHAR 3140
ENCODING 9264
SWIDTH 1200 0
DWIDTH 12 0
BBX 10 7 1 0
BITMAP
F300
1000
1FC0
F380
8480
8480
F780
ENDCHAR
STARTCHAR 3141
ENCODING 9265
SWIDTH 1200 0
DWIDTH 12 0
BBX 8 6 2 1
BITMAP
FF
81
81
81
81
FF
ENDCHAR
STARTCHAR 3142
ENCODING 9266
SWIDTH 1200 0
DWIDTH 12 0
BBX 8 6 2 1
BITMAP
81
81
FF
81
81
FF
ENDCHAR
STARTCHAR 3143
ENCODING 9267
SWIDTH 1200 0
DWIDTH 12 0
BBX 9 6 1 1
BITMAP
9280
9280
F380
9280
9280
F380
ENDCHAR
STARTCHAR 3144
ENCODING 9268
SWIDTH 1200 0
DWIDTH 12 0
BBX 10 7 1 0
BITMAP
9100
9100
F100
9300
9280
F280
0440
ENDCHAR
STARTCHAR 3145
ENCODING 9269
SWIDTH 1200 0
DWIDTH 12 0
BBX 10 6 1 0
BITMAP
0800
0C00
0C00
1200
2100
C0C0
ENDCHAR
STARTCHAR 3146
ENCODING 9270
SWIDTH 1200 0
DWIDTH 12 0
BBX 8 6 2 1
BITMAP
20
24
24
66
8A
11
ENDCHAR
STARTCHAR 3147
ENCODING 9271
SWIDTH 1200 0
DWIDTH 12 0
BBX 8 7 2 0
BITMAP
3C
C3
81
81
81
C3
3C
ENDCHAR
STARTCHAR 3148
ENCODING 9272
SWIDTH 1200 0
DWIDTH 12 0
BBX 8 6 2 1
BITMAP
FF
10
18
24
42
81
ENDCHAR
STARTCHAR 3149
ENCODING 9273
SWIDTH 1200 0
DWIDTH 12 0
BBX 8 6 2 1
BITMAP
FF
44
64
6A
9A
91
ENDCHAR
STARTCHAR 314A
ENCODING 9274
SWIDTH 1200 0
DWIDTH 12 0
BBX 8 6 2 1
BITMAP
3C
00
FF
10
2C
C3
ENDCHAR
STARTCHAR 314B
ENCODING 9275
SWIDTH 1200 0
DWIDTH 12 0
BBX 8 5 2 2
BITMAP
FF
01
01
FD
01
ENDCHAR
STARTCHAR 314C
ENCODING 9276
SWIDTH 1200 0
DWIDTH 12 0
BBX 8 6 2 1
BITMAP
FE
80
80
FE
80
FF
ENDCHAR
STARTCHAR 314D
ENCODING 9277
SWIDTH 1200 0
DWIDTH 12 0
BBX 8 6 2 1
BITMAP
FF
00
00
44
44
FF
ENDCHAR
STARTCHAR 314E
ENCODING 9278
SWIDTH 1200 0
DWIDTH 12 0
BBX 8 7 2 0
BITMAP
3C
FF
00
3C
42
42
3C
ENDCHAR
STARTCHAR 314F
ENCODING 9279
SWIDTH 1200 0
DWIDTH 12 0
BBX 4 11 4 -2
BITMAP
80
80
80
80
80
F0
80
80
80
80
80
ENDCHAR
STARTCHAR 3150
ENCODING 9280
SWIDTH 1200 0
DWIDTH 12 0
BBX 4 11 4 -2
BITMAP
90
90
90
90
90
F0
90
90
90
90
90
ENDCHAR
STARTCHAR 3151
ENCODING 9281
SWIDTH 1200 0
DWIDTH 12 0
BBX 4 11 4 -2
BITMAP
80
80
80
F0
80
80
80
F0
80
80
80
ENDCHAR
STARTCHAR 3152
ENCODING 9282
SWIDTH 1200 0
DWIDTH 12 0
BBX 4 11 4 -2
BITMAP
90
90
90
F0
90
90
F0
90
90
90
10
ENDCHAR
STARTCHAR 3153
ENCODING 9283
SWIDTH 1200 0
DWIDTH 12 0
BBX 4 11 4 -2
BITMAP
10
10
10
10
F0
10
10
10
10
10
10
ENDCHAR
STARTCHAR 3154
ENCODING 9284
SWIDTH 1200 0
DWIDTH 12 0
BBX 6 11 3 -2
BITMAP
14
14
14
14
F4
14
14
14
14
14
04
ENDCHAR
STARTCHAR 3155
ENCODING 9285
SWIDTH 1200 0
DWIDTH 12 0
BBX 5 11 3 -2
BITMAP
08
08
08
F8
08
08
F8
08
08
08
08
ENDCHAR
STARTCHAR 3156
ENCODING 9286
SWIDTH 1200 0
DWIDTH 12 0
BBX 6 11 3 -2
BITMAP
14
14
14
F4
14
14
F4
14
14
14
04
ENDCHAR
STARTCHAR 3157
ENCODING 9287
SWIDTH 1200 0
DWIDTH 12 0
BBX 11 5 0 1
BITMAP
0400
0400
0400
0400
FFE0
ENDCHAR
STARTCHAR 3158
ENCODING 9288
SWIDTH 1200 0
DWIDTH 12 0
BBX 10 11 1 -2
BITMAP
0100
0100
0100
1100
1100
11C0
1100
FF00
0100
0100
0100
ENDCHAR
STARTCHAR 3159
ENCODING 9289
SWIDTH 1200 0
DWIDTH 12 0
BBX 9 11 2 -2
BITMAP
0480
0480
0480
2480
2480
2780
2480
FC80
0480
0480
0080
ENDCHAR
STARTCHAR 315A
ENCODING 9290
SWIDTH 1200 0
DWIDTH 12 0
BBX 7 11 3 -2
BITMAP
02
02
02
22
22
22
22
7E
82
02
02
ENDCHAR
STARTCHAR 315B
ENCODING 9291
SWIDTH 1200 0
DWIDTH 12 0
BBX 10 6 1 1
BITMAP
1100
1100
1100
1100
1100
FFC0
ENDCHAR
STARTCHAR 315C
ENCODING 9292
SWIDTH 1200 0
DWIDTH 12 0
BBX 11 8 1 -2
BITMAP
FFE0
0400
0400
0400
0400
0400
0400
0400
ENDCHAR
STARTCHAR 315D
ENCODING 9293
SWIDTH 1200 0
DWIDTH 12 0
BBX 8 11 2 -2
BITMAP
01
01
01
FF
11
1F
11
11
11
11
01
ENDCHAR
STARTCHAR 315E
ENCODING 9294
SWIDTH 1200 0
DWIDTH 12 0
BBX 10 10 1 -1
BITMAP
0040
0140
0140
FD40
1140
1740
1140
1140
1140
0140
ENDCHAR
STARTCHAR 315F
ENCODING 9295
SWIDTH 1200 0
DWIDTH 12 0
BBX 8 11 2 -2
BITMAP
01
01
01
0F
F1
11
11
11
11
01
01
ENDCHAR
STARTCHAR 3160
ENCODING 9296
SWIDTH 1200 0
DWIDTH 12 0
BBX 10 8 1 -2
BITMAP
FFC0
1200
1200
1200
1200
1200
1200
1000
ENDCHAR
STARTCHAR 3161
ENCODING 9297
SWIDTH 1200 0
DWIDTH 12 0
BBX 10 1 1 3
BITMAP
FFC0
ENDCHAR
STARTCHAR 3162
ENCODING 9298
SWIDTH 1200 0
DWIDTH 12 0
BBX 8 11 2 -2
BITMAP
01
01
01
01
01
01
3F
C1
01
01
01
ENDCHAR
STARTCHAR 3163
ENCODING 9299
SWIDTH 1200 0
DWIDTH 12 0
BBX 1 11 5 -2
BITMAP
80
80
80
80
80
80
80
80
80
80
80
ENDCHAR
STARTCHAR 3164
ENCODING 9300
SWIDTH 1200 0
DWIDTH 12 0
BBX 0 0 0 0
BITMAP
ENDCHAR
STARTCHAR 3165
ENCODING 9301
SWIDTH 1200 0
DWIDTH 12 0
BBX 10 6 1 1
BITMAP
8400
8400
8400
8400
8400
F7C0
ENDCHAR
STARTCHAR 3166
ENCODING 9302
SWIDTH 1200 0
DWIDTH 12 0
BBX 10 6 1 1
BITMAP
8780
8400
8400
8400
8400
E7C0
ENDCHAR
STARTCHAR 3167
ENCODING 9303
SWIDTH 1200 0
DWIDTH 12 0
BBX 10 7 1 0
BITMAP
8100
8100
8100
8280
8280
9440
6000
ENDCHAR
STARTCHAR 3168
ENCODING 9304
SWIDTH 1200 0
DWIDTH 12 0
BBX 9 6 1 0
BITMAP
8200
8500
8500
8880
8780
E000
ENDCHAR
STARTCHAR 3169
ENCODING 9305
SWIDTH 1200 0
DWIDTH 12 0
BBX 10 7 1 0
BITMAP
FC00
2500
2500
E580
8580
8640
F000
ENDCHAR
STARTCHAR 316A
ENCODING 9306
SWIDTH 1200 0
DWIDTH 12 0
BBX 9 7 1 0
BITMAP
F780
1400
1400
F400
8400
8400
F780
ENDCHAR
STARTCHAR 316B
ENCODING 9307
SWIDTH 1200 0
DWIDTH 12 0
BBX 10 7 1 0
BITMAP
F480
3480
3C80
F580
9540
9C00
4000
ENDCHAR
STARTCHAR 316C
ENCODING 9308
SWIDTH 1200 0
DWIDTH 12 0
BBX 9 7 1 0
BITMAP
F000
1100
1100
F300
8480
8480
FF80
ENDCHAR
STARTCHAR 316D
ENCODING 9309
SWIDTH 1200 0
DWIDTH 12 0
BBX 10 7 1 0
BITMAP
F7C0
1000
1000
F780
8480
F480
0300
ENDCHAR
STARTCHAR 316E
ENCODING 9310
SWIDTH 1200 0
DWIDTH 12 0
BBX 10 6 1 1
BITMAP
0040
F440
97C0
9440
9440
F7C0
ENDCHAR
STARTCHAR 316F
ENCODING 9311
SWIDTH 1200 0
DWIDTH 12 0
BBX 9 5 1 1
BITMAP
F000
9200
9300
9300
F480
ENDCHAR
STARTCHAR 3170
ENCODING 9312
SWIDTH 1200 0
DWIDTH 12 0
BBX 9 5 1 1
BITMAP
F100
9300
9500
9480
F780
ENDCHAR
STARTCHAR 3171
ENCODING 9313
SWIDTH 1200 0
DWIDTH 12 0
BBX 6 9 3 -1
BITMAP
FC
84
84
FC
78
84
84
88
70
ENDCHAR
STARTCHAR 3172
ENCODING 9314
SWIDTH 1200 0
DWIDTH 12 0
BBX 10 6 1 1
BITMAP
0BC0
8840
F840
8840
8840
F840
ENDCHAR
STARTCHAR 3173
ENCODING 9315
SWIDTH 1200 0
DWIDTH 12 0
BBX 9 6 1 1
BITMAP
1000
9780
F400
9400
9400
F780
ENDCHAR
STARTCHAR 3174
ENCODING 9316
SWIDTH 1200 0
DWIDTH 12 0
BBX 10 6 1 1
BITMAP
15C0
9440
F440
9C40
9A40
F140
ENDCHAR
STARTCHAR 3175
ENCODING 9317
SWIDTH 1200 0
DWIDTH 12 0
BBX 10 7 1 0
BITMAP
A9C0
A900
E900
A900
B900
B5C0
E000
ENDCHAR
STARTCHAR 3176
ENCODING 9318
SWIDTH 1200 0
DWIDTH 12 0
BBX 10 6 1 1
BITMAP
9780
9100
F100
9300
9480
F440
ENDCHAR
STARTCHAR 3177
ENCODING 9319
SWIDTH 1200 0
DWIDTH 12 0
BBX 9 6 1 1
BITMAP
9780
9400
F400
9780
9400
F780
ENDCHAR
STARTCHAR 3178
ENCODING 9320
SWIDTH 1200 0
DWIDTH 12 0
BBX 6 10 3 -2
BITMAP
84
FC
84
FC
00
30
CC
84
8C
78
ENDCHAR
STARTCHAR 3179
ENCODING 9321
SWIDTH 1200 0
DWIDTH 12 0
BBX 8 10 2 -2
BITMAP
99
FF
99
FF
00
3C
62
42
44
38
ENDCHAR
STARTCHAR 317A
ENCODING 9322
SWIDTH 1200 0
DWIDTH 12 0
BBX 10 6 1 1
BITMAP
17C0
1040
1040
2840
4840
C640
ENDCHAR
STARTCHAR 317B
ENCODING 9323
SWIDTH 1200 0
DWIDTH 12 0
BBX 11 6 1 1
BITMAP
0200
2200
2200
2200
5200
8BE0
ENDCHAR
STARTCHAR 317C
ENCODING 9324
SWIDTH 1200 0
DWIDTH 12 0
BBX 10 6 1 1
BITMAP
2780
2400
2400
6400
5400
8FC0
ENDCHAR
STARTCHAR 317D
ENCODING 9325
SWIDTH 1200 0
DWIDTH 12 0
BBX 10 6 1 1
BITMAP
2240
2240
23C0
6240
5240
8BC0
ENDCHAR
STARTCHAR 317E
ENCODING 9326
SWIDTH 1200 0
DWIDTH 12 0
BBX 10 6 1 1
BITMAP
27C0
2100
2100
5280
5280
8C40
ENDCHAR
STARTCHAR 317F
ENCODING 9327
SWIDTH 1200 0
DWIDTH 12 0
BBX 8 6 2 0
BITMAP
18
28
24
42
82
FF
ENDCHAR
STARTCHAR 3180
ENCODING 9328
SWIDTH 1200 0
DWIDTH 12 0
BBX 10 7 1 0
BITMAP
7100
9680
8C40
8C40
9440
9480
6300
ENDCHAR
STARTCHAR 3181
ENCODING 9329
SWIDTH 1200 0
DWIDTH 12 0
BBX 6 5 3 1
BITMAP
78
84
84
CC
78
ENDCHAR
STARTCHAR 3182
ENCODING 9330
SWIDTH 1200 0
DWIDTH 12 0
BBX 10 6 1 0
BITMAP
2100
D100
8B00
8A80
4C40
3000
ENDCHAR
STARTCHAR 3183
ENCODING 9331
SWIDTH 1200 0
DWIDTH 12 0
BBX 10 7 1 0
BITMAP
2000
7300
8B00
8C80
8C80
9FC0
7000
ENDCHAR
STARTCHAR 3184
ENCODING 9332
SWIDTH 1200 0
DWIDTH 12 0
BBX 8 10 2 -2
BITMAP
7E
24
24
FF
00
3C
42
42
66
18
ENDCHAR
STARTCHAR 3185
ENCODING 9333
SWIDTH 1200 0
DWIDTH 12 0
BBX 10 7 1 0
BITMAP
7380
F800
07C0
7380
9440
9440
7380
ENDCHAR
STARTCHAR 3186
ENCODING 9334
SWIDTH 1200 0
DWIDTH 12 0
BBX 10 8 1 -1
BITMAP
FFC0
0000
1E00
3300
2100
2100
2100
1E00
ENDCHAR
STARTCHAR 3187
ENCODING 9335
SWIDTH 1200 0
DWIDTH 12 0
BBX 9 10 2 -1
BITMAP
0200
0200
0200
5200
5380
5200
5200
7F80
8200
0200
ENDCHAR
STARTCHAR 3188
ENCODING 9336
SWIDTH 1200 0
DWIDTH 12 0
BBX 9 10 1 -1
BITMAP
0180
0180
0180
2980
2980
2980
2980
FF80
0180
0180
ENDCHAR
STARTCHAR 3189
ENCODING 9337
SWIDTH 1200 0
DWIDTH 12 0
BBX 8 10 2 -1
BITMAP
01
01
21
29
29
29
29
FF
01
01
ENDCHAR
STARTCHAR 318A
ENCODING 9338
SWIDTH 1200 0
DWIDTH 12 0
BBX 8 10 2 -1
BITMAP
01
01
01
FD
2B
29
2B
29
29
01
ENDCHAR
STARTCHAR 318B
ENCODING 9339
SWIDTH 1200 0
DWIDTH 12 0
BBX 9 10 2 -1
BITMAP
0280
0280
0280
FA80
5680
5280
5680
5280
5280
0080
ENDCHAR
STARTCHAR 318C
ENCODING 9340
SWIDTH 1200 0
DWIDTH 12 0
BBX 8 10 2 -1
BITMAP
01
01
01
01
FF
29
29
29
29
01
ENDCHAR
STARTCHAR 318D
ENCODING 9341
SWIDTH 1200 0
DWIDTH 12 0
BBX 2 2 5 3
BITMAP
C0
C0
ENDCHAR
STARTCHAR 318E
ENCODING 9342
SWIDTH 1200 0
DWIDTH 12 0
BBX 6 10 3 -1
BITMAP
04
04
04
04
C4
C4
04
04
04
04
ENDCHAR
STARTCHAR 2170
ENCODING 9505
SWIDTH 1200 0
DWIDTH 12 0
BBX 1 8 5 0
BITMAP
80
00
00
80
80
80
80
80
ENDCHAR
STARTCHAR 2171
ENCODING 9506
SWIDTH 1200 0
DWIDTH 12 0
BBX 4 8 4 0
BITMAP
90
00
00
90
90
90
90
90
ENDCHAR
STARTCHAR 2172
ENCODING 9507
SWIDTH 1200 0
DWIDTH 12 0
BBX 6 8 3 0
BITMAP
94
00
00
94
94
94
94
94
ENDCHAR
STARTCHAR 2173
ENCODING 9508
SWIDTH 1200 0
DWIDTH 12 0
BBX 6 8 3 0
BITMAP
80
00
00
A4
A4
98
98
88
ENDCHAR
STARTCHAR 2174
ENCODING 9509
SWIDTH 1200 0
DWIDTH 12 0
BBX 4 4 4 1
BITMAP
90
A0
60
60
ENDCHAR
STARTCHAR 2175
ENCODING 9510
SWIDTH 1200 0
DWIDTH 12 0
BBX 6 8 3 0
BITMAP
04
00
00
84
A4
A4
C4
44
ENDCHAR
STARTCHAR 2176
ENCODING 9511
SWIDTH 1200 0
DWIDTH 12 0
BBX 8 8 2 0
BITMAP
05
00
00
85
A5
A5
45
45
ENDCHAR
STARTCHAR 2177
ENCODING 9512
SWIDTH 1200 0
DWIDTH 12 0
BBX 10 8 1 0
BITMAP
0540
0000
0000
9540
A540
6540
6540
0540
ENDCHAR
STARTCHAR 2178
ENCODING 9513
SWIDTH 1200 0
DWIDTH 12 0
BBX 6 8 3 0
BITMAP
80
00
00
84
98
88
98
A4
ENDCHAR
STARTCHAR 2179
ENCODING 9514
SWIDTH 1200 0
DWIDTH 12 0
BBX 4 5 4 0
BITMAP
90
60
40
60
90
ENDCHAR
STARTCHAR 2160
ENCODING 9520
SWIDTH 1200 0
DWIDTH 12 0
BBX 1 8 5 0
BITMAP
80
80
80
80
80
80
80
80
ENDCHAR
STARTCHAR 2161
ENCODING 9521
SWIDTH 1200 0
DWIDTH 12 0
BBX 6 8 3 0
BITMAP
84
84
84
84
84
84
84
84
ENDCHAR
STARTCHAR 2162
ENCODING 9522
SWIDTH 1200 0
DWIDTH 12 0
BBX 8 8 2 0
BITMAP
89
89
89
89
89
89
89
89
ENDCHAR
STARTCHAR 2163
ENCODING 9523
SWIDTH 1200 0
DWIDTH 12 0
BBX 7 8 2 0
BITMAP
80
92
92
94
8C
8C
8C
80
ENDCHAR
STARTCHAR 2164
ENCODING 9524
SWIDTH 1200 0
DWIDTH 12 0
BBX 4 6 4 1
BITMAP
90
90
90
A0
60
60
ENDCHAR
STARTCHAR 2165
ENCODING 9525
SWIDTH 1200 0
DWIDTH 12 0
BBX 7 8 3 0
BITMAP
02
92
92
92
62
62
62
02
ENDCHAR
STARTCHAR 2166
ENCODING 9526
SWIDTH 1200 0
DWIDTH 12 0
BBX 9 8 2 0
BITMAP
0480
9480
9480
9480
6480
6480
2480
0480
ENDCHAR
STARTCHAR 2167
ENCODING 9527
SWIDTH 1200 0
DWIDTH 12 0
BBX 10 8 1 0
BITMAP
8540
9540
9540
5540
6540
6540
2540
2540
ENDCHAR
STARTCHAR 2168
ENCODING 9528
SWIDTH 1200 0
DWIDTH 12 0
BBX 7 8 2 0
BITMAP
92
92
8C
84
8C
8C
92
92
ENDCHAR
STARTCHAR 2169
ENCODING 9529
SWIDTH 1200 0
DWIDTH 12 0
BBX 4 8 4 0
BITMAP
90
90
60
60
60
60
90
90
ENDCHAR
STARTCHAR 0391
ENCODING 9537
SWIDTH 1200 0
DWIDTH 12 0
BBX 7 8 3 0
BITMAP
04
1C
14
24
42
7E
82
02
ENDCHAR
STARTCHAR 0392
ENCODING 9538
SWIDTH 1200 0
DWIDTH 12 0
BBX 8 9 2 0
BITMAP
1E
21
21
22
3C
42
42
84
FC
ENDCHAR
STARTCHAR 0393
ENCODING 9539
SWIDTH 1200 0
DWIDTH 12 0
BBX 6 8 3 1
BITMAP
3C
40
40
40
40
80
80
80
ENDCHAR
STARTCHAR 0394
ENCODING 9540
SWIDTH 1200 0
DWIDTH 12 0
BBX 8 8 3 0
BITMAP
02
0E
12
22
22
43
83
FF
ENDCHAR
STARTCHAR 0395
ENCODING 9541
SWIDTH 1200 0
DWIDTH 12 0
BBX 8 9 2 0
BITMAP
1F
20
20
20
3C
40
40
80
F8
ENDCHAR
STARTCHAR 0396
ENCODING 9542
SWIDTH 1200 0
DWIDTH 12 0
BBX 8 9 2 0
BITMAP
3F
02
04
08
10
20
40
80
FC
ENDCHAR
STARTCHAR 0397
ENCODING 9543
SWIDTH 1200 0
DWIDTH 12 0
BBX 8 8 2 0
BITMAP
21
41
41
7E
82
82
84
84
ENDCHAR
STARTCHAR 0398
ENCODING 9544
SWIDTH 1200 0
DWIDTH 12 0
BBX 8 8 2 0
BITMAP
3E
41
41
BD
82
82
84
78
ENDCHAR
STARTCHAR 0399
ENCODING 9545
SWIDTH 1200 0
DWIDTH 12 0
BBX 4 8 4 0
BITMAP
10
20
20
20
40
40
40
80
ENDCHAR
STARTCHAR 039A
ENCODING 9546
SWIDTH 1200 0
DWIDTH 12 0
BBX 7 8 2 0
BITMAP
20
26
48
70
60
90
88
84
ENDCHAR
STARTCHAR 039B
ENCODING 9547
SWIDTH 1200 0
DWIDTH 12 0
BBX 8 8 2 0
BITMAP
04
0C
12
22
22
42
82
81
ENDCHAR
STARTCHAR 039C
ENCODING 9548
SWIDTH 1200 0
DWIDTH 12 0
BBX 12 8 0 0
BITMAP
1830
2850
2860
48A0
4920
4940
8A40
8C40
ENDCHAR
STARTCHAR 039D
ENCODING 9549
SWIDTH 1200 0
DWIDTH 12 0
BBX 8 8 2 0
BITMAP
20
51
51
52
92
8A
8C
04
ENDCHAR
STARTCHAR 039E
ENCODING 9550
SWIDTH 1200 0
DWIDTH 12 0
BBX 8 9 2 0
BITMAP
1F
00
00
00
3C
00
00
00
FC
ENDCHAR
STARTCHAR 039F
ENCODING 9551
SWIDTH 1200 0
DWIDTH 12 0
BBX 8 8 2 0
BITMAP
3E
41
41
81
82
82
84
78
ENDCHAR
STARTCHAR 03A0
ENCODING 9552
SWIDTH 1200 0
DWIDTH 12 0
BBX 8 9 2 0
BITMAP
3F
21
41
42
42
82
84
84
84
ENDCHAR
STARTCHAR 03A1
ENCODING 9553
SWIDTH 1200 0
DWIDTH 12 0
BBX 8 9 2 0
BITMAP
1E
21
21
21
42
7E
40
80
80
ENDCHAR
STARTCHAR 03A3
ENCODING 9554
SWIDTH 1200 0
DWIDTH 12 0
BBX 8 9 2 0
BITMAP
3F
20
10
08
08
10
20
C0
FC
ENDCHAR
STARTCHAR 03A4
ENCODING 9555
SWIDTH 1200 0
DWIDTH 12 0
BBX 6 9 3 0
BITMAP
FC
20
20
20
40
40
40
40
80
ENDCHAR
STARTCHAR 03A5
ENCODING 9556
SWIDTH 1200 0
DWIDTH 12 0
BBX 6 7 3 1
BITMAP
04
88
90
50
60
40
40
ENDCHAR
STARTCHAR 03A6
ENCODING 9557
SWIDTH 1200 0
DWIDTH 12 0
BBX 8 7 2 0
BITMAP
7E
89
91
91
92
64
38
ENDCHAR
STARTCHAR 03A7
ENCODING 9558
SWIDTH 1200 0
DWIDTH 12 0
BBX 8 8 2 0
BITMAP
21
22
14
18
18
28
44
80
ENDCHAR
STARTCHAR 03A8
ENCODING 9559
SWIDTH 1200 0
DWIDTH 12 0
BBX 9 7 1 1
BITMAP
4480
4880
8900
8900
9100
7E00
1000
ENDCHAR
STARTCHAR 03A9
ENCODING 9560
SWIDTH 1200 0
DWIDTH 12 0
BBX 8 9 2 0
BITMAP
1E
21
41
41
41
42
42
2C
EE
ENDCHAR
STARTCHAR 03B1
ENCODING 9569
SWIDTH 1200 0
DWIDTH 12 0
BBX 6 6 3 0
BITMAP
34
4C
88
88
88
F8
ENDCHAR
STARTCHAR 03B2
ENCODING 9570
SWIDTH 1200 0
DWIDTH 12 0
BBX 7 11 3 -2
BITMAP
1C
12
22
24
4C
44
44
84
C8
B0
80
ENDCHAR
STARTCHAR 03B3
ENCODING 9571
SWIDTH 1200 0
DWIDTH 12 0
BBX 5 8 3 -2
BITMAP
80
88
90
60
60
40
40
40
ENDCHAR
STARTCHAR 03B4
ENCODING 9572
SWIDTH 1200 0
DWIDTH 12 0
BBX 7 9 2 0
BITMAP
1E
10
08
3C
44
44
84
88
50
ENDCHAR
STARTCHAR 03B5
ENCODING 9573
SWIDTH 1200 0
DWIDTH 12 0
BBX 6 7 3 -1
BITMAP
3C
40
20
50
80
40
20
ENDCHAR
STARTCHAR 03B6
ENCODING 9574
SWIDTH 1200 0
DWIDTH 12 0
BBX 6 11 3 -2
BITMAP
3C
08
10
20
40
40
80
80
60
10
60
ENDCHAR
STARTCHAR 03B7
ENCODING 9575
SWIDTH 1200 0
DWIDTH 12 0
BBX 6 6 3 0
BITMAP
1C
64
44
84
88
88
ENDCHAR
STARTCHAR 03B8
ENCODING 9576
SWIDTH 1200 0
DWIDTH 12 0
BBX 6 9 3 0
BITMAP
18
24
44
44
FC
88
88
90
A0
ENDCHAR
STARTCHAR 03B9
ENCODING 9577
SWIDTH 1200 0
DWIDTH 12 0
BBX 2 6 5 0
BITMAP
40
40
40
80
80
80
ENDCHAR
STARTCHAR 03BA
ENCODING 9578
SWIDTH 1200 0
DWIDTH 12 0
BBX 6 6 3 0
BITMAP
04
58
60
A0
90
88
ENDCHAR
STARTCHAR 03BB
ENCODING 9579
SWIDTH 1200 0
DWIDTH 12 0
BBX 5 7 4 0
BITMAP
10
10
30
50
50
90
08
ENDCHAR
STARTCHAR 03BC
ENCODING 9580
SWIDTH 1200 0
DWIDTH 12 0
BBX 6 7 3 -1
BITMAP
20
44
44
44
48
B0
80
ENDCHAR
STARTCHAR 03BD
ENCODING 9581
SWIDTH 1200 0
DWIDTH 12 0
BBX 6 6 3 0
BITMAP
84
88
90
50
60
40
ENDCHAR
STARTCHAR 03BE
ENCODING 9582
SWIDTH 1200 0
DWIDTH 12 0
BBX 6 11 3 -2
BITMAP
3C
10
20
20
30
C0
80
80
E0
10
20
ENDCHAR
STARTCHAR 03BF
ENCODING 9583
SWIDTH 1200 0
DWIDTH 12 0
BBX 6 7 3 -1
BITMAP
38
44
84
84
88
D0
20
ENDCHAR
STARTCHAR 03C0
ENCODING 9584
SWIDTH 1200 0
DWIDTH 12 0
BBX 6 6 3 0
BITMAP
3C
44
48
88
88
88
ENDCHAR
STARTCHAR 03C1
ENCODING 9585
SWIDTH 1200 0
DWIDTH 12 0
BBX 6 8 3 -2
BITMAP
3C
24
44
44
44
A8
90
80
ENDCHAR
STARTCHAR 03C3
ENCODING 9586
SWIDTH 1200 0
DWIDTH 12 0
BBX 6 7 3 -1
BITMAP
3C
48
88
88
88
90
60
ENDCHAR
STARTCHAR 03C4
ENCODING 9587
SWIDTH 1200 0
DWIDTH 12 0
BBX 5 6 4 0
BITMAP
F8
40
40
40
80
80
ENDCHAR
STARTCHAR 03C5
ENCODING 9588
SWIDTH 1200 0
DWIDTH 12 0
BBX 6 6 3 0
BITMAP
44
48
88
88
88
70
ENDCHAR
STARTCHAR 03C6
ENCODING 9589
SWIDTH 1200 0
DWIDTH 12 0
BBX 8 8 2 -2
BITMAP
2E
49
92
92
94
78
20
20
ENDCHAR
STARTCHAR 03C7
ENCODING 9590
SWIDTH 1200 0
DWIDTH 12 0
BBX 6 6 3 0
BITMAP
04
28
10
30
50
88
ENDCHAR
STARTCHAR 03C8
ENCODING 9591
SWIDTH 1200 0
DWIDTH 12 0
BBX 8 7 2 -1
BITMAP
49
92
92
92
A4
78
20
ENDCHAR
STARTCHAR 03C9
ENCODING 9592
SWIDTH 1200 0
DWIDTH 12 0
BBX 7 6 2 0
BITMAP
20
4A
52
92
92
6C
ENDCHAR
STARTCHAR 2500
ENCODING 9761
SWIDTH 1200 0
DWIDTH 12 0
BBX 12 1 0 3
BITMAP
FFF0
ENDCHAR
STARTCHAR 2502
ENCODING 9762
SWIDTH 1200 0
DWIDTH 12 0
BBX 1 12 5 -2
BITMAP
80
80
80
80
80
80
80
80
80
80
80
80
ENDCHAR
STARTCHAR 250C
ENCODING 9763
SWIDTH 1200 0
DWIDTH 12 0
BBX 7 6 3 -2
BITMAP
FE
80
80
80
80
80
ENDCHAR
STARTCHAR 2510
ENCODING 9764
SWIDTH 1200 0
DWIDTH 12 0
BBX 7 6 2 -2
BITMAP
FE
02
02
02
02
02
ENDCHAR
STARTCHAR 2518
ENCODING 9765
SWIDTH 1200 0
DWIDTH 12 0
BBX 7 7 2 3
BITMAP
02
02
02
02
02
02
FE
ENDCHAR
STARTCHAR 2514
ENCODING 9766
SWIDTH 1200 0
DWIDTH 12 0
BBX 7 7 3 3
BITMAP
80
80
80
80
80
80
FE
ENDCHAR
STARTCHAR 251C
ENCODING 9767
SWIDTH 1200 0
DWIDTH 12 0
BBX 7 12 3 -2
BITMAP
80
80
80
80
80
80
FE
80
80
80
80
80
ENDCHAR
STARTCHAR 252C
ENCODING 9768
SWIDTH 1200 0
DWIDTH 12 0
BBX 13 6 -1 -2
BITMAP
FFF8
0200
0200
0200
0200
0200
ENDCHAR
STARTCHAR 2524
ENCODING 9769
SWIDTH 1200 0
DWIDTH 12 0
BBX 7 12 2 -2
BITMAP
02
02
02
02
02
02
FE
02
02
02
02
02
ENDCHAR
STARTCHAR 2534
ENCODING 9770
SWIDTH 1200 0
DWIDTH 12 0
BBX 13 7 -1 3
BITMAP
0200
0200
0200
0200
0200
0200
FFF8
ENDCHAR
STARTCHAR 253C
ENCODING 9771
SWIDTH 1200 0
DWIDTH 12 0
BBX 13 12 -1 -2
BITMAP
0200
0200
0200
0200
0200
0200
FFF8
0200
0200
0200
0200
0200
ENDCHAR
STARTCHAR 2501
ENCODING 9772
SWIDTH 1200 0
DWIDTH 12 0
BBX 12 1 0 3
BITMAP
FFF0
ENDCHAR
STARTCHAR 2503
ENCODING 9773
SWIDTH 1200 0
DWIDTH 12 0
BBX 1 12 6 -2
BITMAP
80
80
80
80
80
80
80
80
80
80
80
80
ENDCHAR
STARTCHAR 250F
ENCODING 9774
SWIDTH 1200 0
DWIDTH 12 0
BBX 7 6 3 -2
BITMAP
FE
80
80
80
80
80
ENDCHAR
STARTCHAR 2513
ENCODING 9775
SWIDTH 1200 0
DWIDTH 12 0
BBX 7 6 2 -2
BITMAP
FE
02
02
02
02
02
ENDCHAR
STARTCHAR 251B
ENCODING 9776
SWIDTH 1200 0
DWIDTH 12 0
BBX 7 7 2 3
BITMAP
02
02
02
02
02
02
FE
ENDCHAR
STARTCHAR 2517
ENCODING 9777
SWIDTH 1200 0
DWIDTH 12 0
BBX 7 7 3 3
BITMAP
80
80
80
80
80
80
FE
ENDCHAR
STARTCHAR 2523
ENCODING 9778
SWIDTH 1200 0
DWIDTH 12 0
BBX 7 12 3 -2
BITMAP
80
80
80
80
80
80
FE
80
80
80
80
80
ENDCHAR
STARTCHAR 2533
ENCODING 9779
SWIDTH 1200 0
DWIDTH 12 0
BBX 13 6 0 -2
BITMAP
FFF8
0200
0200
0200
0200
0200
ENDCHAR
STARTCHAR 252B
ENCODING 9780
SWIDTH 1200 0
DWIDTH 12 0
BBX 7 12 2 -2
BITMAP
02
02
02
02
02
02
FE
02
02
02
02
02
ENDCHAR
STARTCHAR 253B
ENCODING 9781
SWIDTH 1200 0
DWIDTH 12 0
BBX 13 7 0 3
BITMAP
0200
0200
0200
0200
0200
0200
FFF8
ENDCHAR
STARTCHAR 254B
ENCODING 9782
SWIDTH 1200 0
DWIDTH 12 0
BBX 13 12 0 -2
BITMAP
0200
0200
0200
0200
0200
0200
FFF8
0200
0200
0200
0200
0200
ENDCHAR
STARTCHAR 2520
ENCODING 9783
SWIDTH 1200 0
DWIDTH 12 0
BBX 7 12 3 -2
BITMAP
80
80
80
80
80
80
FE
80
80
80
80
80
ENDCHAR
STARTCHAR 252F
ENCODING 9784
SWIDTH 1200 0
DWIDTH 12 0
BBX 13 6 -1 -2
BITMAP
FFF8
0200
0200
0200
0200
0200
ENDCHAR
STARTCHAR 2528
ENCODING 9785
SWIDTH 1200 0
DWIDTH 12 0
BBX 7 12 2 -2
BITMAP
02
02
02
02
02
02
FE
02
02
02
02
02
ENDCHAR
STARTCHAR 2537
ENCODING 9786
SWIDTH 1200 0
DWIDTH 12 0
BBX 13 7 -1 3
BITMAP
0200
0200
0200
0200
0200
0200
FFF8
ENDCHAR
STARTCHAR 253F
ENCODING 9787
SWIDTH 1200 0
DWIDTH 12 0
BBX 13 11 -1 -2
BITMAP
0200
0200
0200
0200
0200
FFF8
0200
0200
0200
0200
0200
ENDCHAR
STARTCHAR 251D
ENCODING 9788
SWIDTH 1200 0
DWIDTH 12 0
BBX 7 12 3 -2
BITMAP
80
80
80
80
80
80
FE
80
80
80
80
80
ENDCHAR
STARTCHAR 2530
ENCODING 9789
SWIDTH 1200 0
DWIDTH 12 0
BBX 13 6 0 -2
BITMAP
FFF8
0200
0200
0200
0200
0200
ENDCHAR
STARTCHAR 2525
ENCODING 9790
SWIDTH 1200 0
DWIDTH 12 0
BBX 7 12 2 -2
BITMAP
02
02
02
02
02
02
FE
02
02
02
02
02
ENDCHAR
STARTCHAR 2538
ENCODING 9791
SWIDTH 1200 0
DWIDTH 12 0
BBX 13 7 0 3
BITMAP
0200
0200
0200
0200
0200
0200
FFF8
ENDCHAR
STARTCHAR 2542
ENCODING 9792
SWIDTH 1200 0
DWIDTH 12 0
BBX 13 12 0 -2
BITMAP
0200
0200
0200
0200
0200
0200
FFF8
0200
0200
0200
0200
0200
ENDCHAR
STARTCHAR 2512
ENCODING 9793
SWIDTH 1200 0
DWIDTH 12 0
BBX 7 6 2 -2
BITMAP
FE
02
02
02
02
02
ENDCHAR
STARTCHAR 2511
ENCODING 9794
SWIDTH 1200 0
DWIDTH 12 0
BBX 7 6 2 -2
BITMAP
FE
02
02
02
02
02
ENDCHAR
STARTCHAR 251A
ENCODING 9795
SWIDTH 1200 0
DWIDTH 12 0
BBX 7 7 2 3
BITMAP
02
02
02
02
02
02
FE
ENDCHAR
STARTCHAR 2519
ENCODING 9796
SWIDTH 1200 0
DWIDTH 12 0
BBX 7 7 2 3
BITMAP
02
02
02
02
02
02
FE
ENDCHAR
STARTCHAR 2516
ENCODING 9797
SWIDTH 1200 0
DWIDTH 12 0
BBX 7 7 3 3
BITMAP
80
80
80
80
80
80
FE
ENDCHAR
STARTCHAR 2515
ENCODING 9798
SWIDTH 1200 0
DWIDTH 12 0
BBX 7 7 3 3
BITMAP
80
80
80
80
80
80
FE
ENDCHAR
STARTCHAR 250E
ENCODING 9799
SWIDTH 1200 0
DWIDTH 12 0
BBX 7 6 3 -2
BITMAP
FE
80
80
80
80
80
ENDCHAR
STARTCHAR 250D
ENCODING 9800
SWIDTH 1200 0
DWIDTH 12 0
BBX 7 6 3 -2
BITMAP
FE
80
80
80
80
80
ENDCHAR
STARTCHAR 251E
ENCODING 9801
SWIDTH 1200 0
DWIDTH 12 0
BBX 7 12 3 -2
BITMAP
80
80
80
80
80
80
FE
80
80
80
80
80
ENDCHAR
STARTCHAR 251F
ENCODING 9802
SWIDTH 1200 0
DWIDTH 12 0
BBX 7 12 3 -2
BITMAP
80
80
80
80
80
80
FE
80
80
80
80
80
ENDCHAR
STARTCHAR 2521
ENCODING 9803
SWIDTH 1200 0
DWIDTH 12 0
BBX 7 12 3 -2
BITMAP
80
80
80
80
80
80
FE
80
80
80
80
80
ENDCHAR
STARTCHAR 2522
ENCODING 9804
SWIDTH 1200 0
DWIDTH 12 0
BBX 7 12 3 -2
BITMAP
80
80
80
80
80
80
FE
80
80
80
80
80
ENDCHAR
STARTCHAR 2526
ENCODING 9805
SWIDTH 1200 0
DWIDTH 12 0
BBX 7 12 2 -2
BITMAP
02
02
02
02
02
02
FE
02
02
02
02
02
ENDCHAR
STARTCHAR 2527
ENCODING 9806
SWIDTH 1200 0
DWIDTH 12 0
BBX 7 12 2 -2
BITMAP
02
02
02
02
02
02
FE
02
02
02
02
02
ENDCHAR
STARTCHAR 2529
ENCODING 9807
SWIDTH 1200 0
DWIDTH 12 0
BBX 7 12 2 -2
BITMAP
02
02
02
02
02
02
FE
02
02
02
02
02
ENDCHAR
STARTCHAR 252A
ENCODING 9808
SWIDTH 1200 0
DWIDTH 12 0
BBX 7 12 2 -2
BITMAP
02
02
02
02
02
02
FE
02
02
02
02
02
ENDCHAR
STARTCHAR 252D
ENCODING 9809
SWIDTH 1200 0
DWIDTH 12 0
BBX 13 6 -1 -2
BITMAP
FFF8
0200
0200
0200
0200
0200
ENDCHAR
STARTCHAR 252E
ENCODING 9810
SWIDTH 1200 0
DWIDTH 12 0
BBX 13 6 -1 -2
BITMAP
FFF8
0200
0200
0200
0200
0200
ENDCHAR
STARTCHAR 2531
ENCODING 9811
SWIDTH 1200 0
DWIDTH 12 0
BBX 13 6 0 -2
BITMAP
FFF8
0200
0200
0200
0200
0200
ENDCHAR
STARTCHAR 2532
ENCODING 9812
SWIDTH 1200 0
DWIDTH 12 0
BBX 13 6 0 -2
BITMAP
FFF8
0200
0200
0200
0200
0200
ENDCHAR
STARTCHAR 2535
ENCODING 9813
SWIDTH 1200 0
DWIDTH 12 0
BBX 13 7 -1 3
BITMAP
0200
0200
0200
0200
0200
0200
FFF8
ENDCHAR
STARTCHAR 2536
ENCODING 9814
SWIDTH 1200 0
DWIDTH 12 0
BBX 13 7 -1 3
BITMAP
0200
0200
0200
0200
0200
0200
FFF8
ENDCHAR
STARTCHAR 2539
ENCODING 9815
SWIDTH 1200 0
DWIDTH 12 0
BBX 13 7 0 3
BITMAP
0200
0200
0200
0200
0200
0200
FFF8
ENDCHAR
STARTCHAR 253A
ENCODING 9816
SWIDTH 1200 0
DWIDTH 12 0
BBX 13 7 0 3
BITMAP
0200
0200
0200
0200
0200
0200
FFF8
ENDCHAR
STARTCHAR 253D
ENCODING 9817
SWIDTH 1200 0
DWIDTH 12 0
BBX 13 12 -1 -2
BITMAP
0200
0200
0200
0200
0200
0200
FFF8
0200
0200
0200
0200
0200
ENDCHAR
STARTCHAR 253E
ENCODING 9818
SWIDTH 1200 0
DWIDTH 12 0
BBX 13 12 -1 -2
BITMAP
0200
0200
0200
0200
0200
0200
FFF8
0200
0200
0200
0200
0200
ENDCHAR
STARTCHAR 2540
ENCODING 9819
SWIDTH 1200 0
DWIDTH 12 0
BBX 13 12 0 -2
BITMAP
0200
0200
0200
0200
0200
0200
FFF8
0400
0400
0400
0400
0400
ENDCHAR
STARTCHAR 2541
ENCODING 9820
SWIDTH 1200 0
DWIDTH 12 0
BBX 13 12 0 -2
BITMAP
0400
0400
0400
0400
0400
0400
FFF8
0200
0200
0200
0200
0200
ENDCHAR
STARTCHAR 2543
ENCODING 9821
SWIDTH 1200 0
DWIDTH 12 0
BBX 13 12 0 -2
BITMAP
0200
0200
0200
0200
0200
0200
FFF8
0400
0400
0400
0400
0400
ENDCHAR
STARTCHAR 2544
ENCODING 9822
SWIDTH 1200 0
DWIDTH 12 0
BBX 13 12 0 -2
BITMAP
0200
0200
0200
0200
0200
0200
FFF8
0400
0400
0400
0400
0400
ENDCHAR
STARTCHAR 2545
ENCODING 9823
SWIDTH 1200 0
DWIDTH 12 0
BBX 13 12 0 -2
BITMAP
0400
0400
0400
0400
0400
0400
FFF8
0200
0200
0200
0200
0200
ENDCHAR
STARTCHAR 2546
ENCODING 9824
SWIDTH 1200 0
DWIDTH 12 0
BBX 13 12 0 -2
BITMAP
0400
0400
0400
0400
0400
0400
FFF8
0200
0200
0200
0200
0200
ENDCHAR
STARTCHAR 2547
ENCODING 9825
SWIDTH 1200 0
DWIDTH 12 0
BBX 13 12 0 -2
BITMAP
0200
0200
0200
0200
0200
0200
FFF8
0400
0400
0400
0400
0400
ENDCHAR
STARTCHAR 2548
ENCODING 9826
SWIDTH 1200 0
DWIDTH 12 0
BBX 13 12 0 -2
BITMAP
0400
0400
0400
0400
0400
0400
FFF8
0200
0200
0200
0200
0200
ENDCHAR
STARTCHAR 2549
ENCODING 9827
SWIDTH 1200 0
DWIDTH 12 0
BBX 13 12 -1 -2
BITMAP
0200
0200
0200
0200
0200
0200
FFF8
0200
0200
0200
0200
0200
ENDCHAR
STARTCHAR 254A
ENCODING 9828
SWIDTH 1200 0
DWIDTH 12 0
BBX 13 12 0 -2
BITMAP
0200
0200
0200
0200
0200
0200
FFF8
0200
0200
0200
0200
0200
ENDCHAR
STARTCHAR 3395
ENCODING 10017
SWIDTH 1200 0
DWIDTH 12 0
BBX 12 10 0 -2
BITMAP
00E0
00A0
02A0
22A0
24C0
44C0
4490
7CA0
8040
8000
ENDCHAR
STARTCHAR 3396
ENCODING 10018
SWIDTH 1200 0
DWIDTH 12 0
BBX 10 10 1 -1
BITMAP
0080
0180
0240
FA80
AA80
AA80
AB00
AA40
A940
0080
ENDCHAR
STARTCHAR 3397
ENCODING 10019
SWIDTH 1200 0
DWIDTH 12 0
BBX 10 9 1 -1
BITMAP
0980
0A80
6A80
9A80
8B00
8B00
8A40
5980
2000
ENDCHAR
STARTCHAR 2113
ENCODING 10020
SWIDTH 1200 0
DWIDTH 12 0
BBX 4 10 4 -1
BITMAP
20
50
90
90
A0
A0
C0
40
50
20
ENDCHAR
STARTCHAR 3398
ENCODING 10021
SWIDTH 1200 0
DWIDTH 12 0
BBX 10 9 1 -1
BITMAP
8180
8280
8280
B280
E300
A300
9240
8A80
0100
ENDCHAR
STARTCHAR 33C4
ENCODING 10022
SWIDTH 1200 0
DWIDTH 12 0
BBX 11 7 0 -1
BITMAP
39E0
4200
8200
8200
8200
49E0
3000
ENDCHAR
STARTCHAR 33A3
ENCODING 10023
SWIDTH 1200 0
DWIDTH 12 0
BBX 12 10 0 -1
BITMAP
0010
0010
0000
03C0
FAA0
AAA0
AAA0
AAA0
AAA0
02A0
ENDCHAR
STARTCHAR 33A4
ENCODING 10024
SWIDTH 1200 0
DWIDTH 12 0
BBX 11 10 0 -1
BITMAP
0020
0000
0000
73E0
8AA0
82A0
82A0
8AA0
52A0
22A0
ENDCHAR
STARTCHAR 33A5
ENCODING 10025
SWIDTH 1200 0
DWIDTH 12 0
BBX 10 9 1 0
BITMAP
0040
0040
0000
3F80
4880
8880
8880
8880
0880
ENDCHAR
STARTCHAR 33A6
ENCODING 10026
SWIDTH 1200 0
DWIDTH 12 0
BBX 12 10 0 -1
BITMAP
0020
8010
8000
87C0
B4A0
A4A0
E4A0
94A0
8CA0
04A0
ENDCHAR
STARTCHAR 3399
ENCODING 10027
SWIDTH 1200 0
DWIDTH 12 0
BBX 10 10 1 -1
BITMAP
2000
4000
4000
E6C0
4B40
4A40
4A40
4A40
4A40
0240
ENDCHAR
STARTCHAR 339A
ENCODING 10028
SWIDTH 1200 0
DWIDTH 12 0
BBX 10 6 1 0
BITMAP
F7C0
9540
9540
9540
9540
9540
ENDCHAR
STARTCHAR 339B
ENCODING 10029
SWIDTH 1200 0
DWIDTH 12 0
BBX 12 8 0 -2
BITMAP
07F0
2650
2A50
4A50
4A50
7A50
8000
8000
ENDCHAR
STARTCHAR 339C
ENCODING 10030
SWIDTH 1200 0
DWIDTH 12 0
BBX 10 6 1 0
BITMAP
FFC0
AD40
AD40
AD40
AD40
AD40
ENDCHAR
STARTCHAR 339D
ENCODING 10031
SWIDTH 1200 0
DWIDTH 12 0
BBX 12 7 0 -1
BITMAP
3BB0
42D0
8290
8290
8290
7A90
0290
ENDCHAR
STARTCHAR 339E
ENCODING 10032
SWIDTH 1200 0
DWIDTH 12 0
BBX 10 8 1 0
BITMAP
8000
8000
8FC0
9540
A540
E540
9540
8D40
ENDCHAR
STARTCHAR 339F
ENCODING 10033
SWIDTH 1200 0
DWIDTH 12 0
BBX 12 9 0 0
BITMAP
0010
0020
0020
FBE0
AAA0
AAA0
AAA0
AAA0
AAA0
ENDCHAR
STARTCHAR 33A0
ENCODING 10034
SWIDTH 1200 0
DWIDTH 12 0
BBX 11 9 0 -1
BITMAP
0020
0000
7000
8BE0
82A0
82A0
8AA0
52A0
22A0
ENDCHAR
STARTCHAR 33A1
ENCODING 10035
SWIDTH 1200 0
DWIDTH 12 0
BBX 10 9 1 0
BITMAP
0040
0000
0080
3F80
4880
8880
8880
8880
0880
ENDCHAR
STARTCHAR 33A2
ENCODING 10036
SWIDTH 1200 0
DWIDTH 12 0
BBX 12 9 0 0
BITMAP
0030
8000
8020
87E0
B4A0
A4A0
E4A0
94A0
8CA0
ENDCHAR
STARTCHAR 33CA
ENCODING 10037
SWIDTH 1200 0
DWIDTH 12 0
BBX 10 8 1 0
BITMAP
8000
8000
A380
D480
9180
9680
9480
8340
ENDCHAR
STARTCHAR 338D
ENCODING 10038
SWIDTH 1200 0
DWIDTH 12 0
BBX 11 10 0 -3
BITMAP
0400
25E0
2A40
4A40
49C0
4A00
7BE0
8220
8340
0080
ENDCHAR
STARTCHAR 338E
ENCODING 10039
SWIDTH 1200 0
DWIDTH 12 0
BBX 11 9 0 -3
BITMAP
EC00
97C0
9640
97C0
9680
9780
9460
0220
01C0
ENDCHAR
STARTCHAR 338F
ENCODING 10040
SWIDTH 1200 0
DWIDTH 12 0
BBX 10 11 1 -3
BITMAP
8000
8000
8BC0
9480
A480
E500
9600
8780
0840
0680
0100
ENDCHAR
STARTCHAR 33CF
ENCODING 10041
SWIDTH 1200 0
DWIDTH 12 0
BBX 8 8 2 0
BITMAP
82
82
8F
92
A2
E2
92
82
ENDCHAR
STARTCHAR 3388
ENCODING 10042
SWIDTH 1200 0
DWIDTH 12 0
BBX 12 9 0 -1
BITMAP
0010
0010
0190
7A90
8090
8390
8490
4A90
3340
ENDCHAR
STARTCHAR 3389
ENCODING 10043
SWIDTH 1200 0
DWIDTH 12 0
BBX 12 8 0 0
BITMAP
8010
8010
8DD0
B150
D050
D1D0
B150
ADD0
ENDCHAR
STARTCHAR 33C8
ENCODING 10044
SWIDTH 1200 0
DWIDTH 12 0
BBX 11 10 1 -1
BITMAP
03C0
0C40
0C20
7C40
9BC0
0A20
0A20
1A20
BBC0
4000
ENDCHAR
STARTCHAR 33A7
ENCODING 10045
SWIDTH 1200 0
DWIDTH 12 0
BBX 12 11 0 -2
BITMAP
FE00
9200
9220
9240
9280
0300
04E0
0900
10E0
2010
00E0
ENDCHAR
STARTCHAR 33A8
ENCODING 10046
SWIDTH 1200 0
DWIDTH 12 0
BBX 12 11 0 -2
BITMAP
FC00
9200
9220
9240
9280
0330
05C0
0900
10C0
2120
00C0
ENDCHAR
STARTCHAR 33B0
ENCODING 10047
SWIDTH 1200 0
DWIDTH 12 0
BBX 11 7 0 -1
BITMAP
39C0
4A20
4500
84E0
4820
A920
90C0
ENDCHAR
STARTCHAR 33B1
ENCODING 10048
SWIDTH 1200 0
DWIDTH 12 0
BBX 10 6 1 0
BITMAP
F780
9440
9200
91C0
9440
8280
ENDCHAR
STARTCHAR 33B2
ENCODING 10049
SWIDTH 1200 0
DWIDTH 12 0
BBX 12 8 0 -2
BITMAP
22E0
2510
4480
4470
4510
BCA0
8040
8000
ENDCHAR
STARTCHAR 33B3
ENCODING 10050
SWIDTH 1200 0
DWIDTH 12 0
BBX 10 6 1 0
BITMAP
FBC0
AC40
AB00
A8C0
A840
ABC0
ENDCHAR
STARTCHAR 33B4
ENCODING 10051
SWIDTH 1200 0
DWIDTH 12 0
BBX 11 9 0 -1
BITMAP
0020
0220
3A40
4A40
8640
8540
4980
A880
9000
ENDCHAR
STARTCHAR 33B5
ENCODING 10052
SWIDTH 1200 0
DWIDTH 12 0
BBX 11 8 0 0
BITMAP
0420
0440
7240
8A40
8A40
8A80
8980
0980
ENDCHAR
STARTCHAR 33B6
ENCODING 10053
SWIDTH 1200 0
DWIDTH 12 0
BBX 12 10 0 -2
BITMAP
0110
0120
0320
2320
44A0
44C0
44C0
7C40
8000
8000
ENDCHAR
STARTCHAR 33B7
ENCODING 10054
SWIDTH 1200 0
DWIDTH 12 0
BBX 11 8 0 0
BITMAP
0200
0220
FE20
9640
9540
9540
9540
9580
ENDCHAR
STARTCHAR 33B8
ENCODING 10055
SWIDTH 1200 0
DWIDTH 12 0
BBX 10 8 1 0
BITMAP
8040
8440
8480
B480
E480
A300
9300
8900
ENDCHAR
STARTCHAR 33B9
ENCODING 10056
SWIDTH 1200 0
DWIDTH 12 0
BBX 11 8 0 0
BITMAP
8500
8520
CD20
D520
D540
B4C0
B4C0
8440
ENDCHAR
STARTCHAR 3380
ENCODING 10057
SWIDTH 1200 0
DWIDTH 12 0
BBX 10 11 1 -2
BITMAP
0100
0100
0300
F280
8A80
8C80
8F80
9440
D040
A000
8000
ENDCHAR
STARTCHAR 3381
ENCODING 10058
SWIDTH 1200 0
DWIDTH 12 0
BBX 10 8 1 0
BITMAP
0100
0300
F300
9280
9480
9380
9480
9440
ENDCHAR
STARTCHAR 3382
ENCODING 10059
SWIDTH 1200 0
DWIDTH 12 0
BBX 10 9 1 -1
BITMAP
0300
0300
2280
4A80
4B80
4C40
9440
E400
8000
ENDCHAR
STARTCHAR 3383
ENCODING 10060
SWIDTH 1200 0
DWIDTH 12 0
BBX 11 8 0 0
BITMAP
0080
0140
FD40
9540
95E0
9520
9620
9400
ENDCHAR
STARTCHAR 3384
ENCODING 10061
SWIDTH 1200 0
DWIDTH 12 0
BBX 10 9 1 -1
BITMAP
8100
8300
8300
B280
E480
A380
9480
8C40
0440
ENDCHAR
STARTCHAR 33BA
ENCODING 10062
SWIDTH 1200 0
DWIDTH 12 0
BBX 11 9 0 -1
BITMAP
0480
04A0
7DA0
8DA0
8BA0
8B60
8B40
D040
A000
ENDCHAR
STARTCHAR 33BB
ENCODING 10063
SWIDTH 1200 0
DWIDTH 12 0
BBX 10 8 1 0
BITMAP
0900
0940
F940
9B40
9B40
9780
9580
8480
ENDCHAR
STARTCHAR 33BC
ENCODING 10064
SWIDTH 1200 0
DWIDTH 12 0
BBX 12 10 0 -2
BITMAP
0090
0490
26A0
2B60
4B60
4B60
4920
B120
8000
8000
ENDCHAR
STARTCHAR 33BD
ENCODING 10065
SWIDTH 1200 0
DWIDTH 12 0
BBX 11 9 0 -1
BITMAP
0480
04A0
FDA0
ABA0
AB60
AB60
A960
A900
8000
ENDCHAR
STARTCHAR 33BE
ENCODING 10066
SWIDTH 1200 0
DWIDTH 12 0
BBX 11 8 0 0
BITMAP
8480
84A0
85A0
B5A0
E3A0
A3A0
9340
8840
ENDCHAR
STARTCHAR 33BF
ENCODING 10067
SWIDTH 1200 0
DWIDTH 12 0
BBX 11 8 0 0
BITMAP
8880
8DA0
8DA0
DBA0
EB60
EB60
E940
A800
ENDCHAR
STARTCHAR 3390
ENCODING 10068
SWIDTH 1200 0
DWIDTH 12 0
BBX 11 9 0 0
BITMAP
0400
8400
8400
85E0
FC40
8440
8480
8500
85E0
ENDCHAR
STARTCHAR 3391
ENCODING 10069
SWIDTH 1200 0
DWIDTH 12 0
BBX 12 9 0 0
BITMAP
0100
8900
8900
89E0
AF20
C940
A940
A980
89F0
ENDCHAR
STARTCHAR 3392
ENCODING 10070
SWIDTH 1200 0
DWIDTH 12 0
BBX 12 9 0 0
BITMAP
0100
8D00
8D00
8D60
DF20
ED40
ED40
ED40
AD70
ENDCHAR
STARTCHAR 3393
ENCODING 10071
SWIDTH 1200 0
DWIDTH 12 0
BBX 13 10 -1 -1
BITMAP
0280
7280
4280
82B0
8390
9AA0
8AA0
8AC0
4AB8
3000
ENDCHAR
STARTCHAR 3394
ENCODING 10072
SWIDTH 1200 0
DWIDTH 12 0
BBX 12 9 0 0
BITMAP
0100
E900
4900
49F0
4F20
4940
4940
4980
49F0
ENDCHAR
STARTCHAR 2126
ENCODING 10073
SWIDTH 1200 0
DWIDTH 12 0
BBX 8 9 2 0
BITMAP
3C
46
43
81
82
42
24
18
FF
ENDCHAR
STARTCHAR 33C0
ENCODING 10074
SWIDTH 1200 0
DWIDTH 12 0
BBX 12 9 0 0
BITMAP
01E0
8130
8310
8210
B210
E120
A140
90C0
8BF0
ENDCHAR
STARTCHAR 33C1
ENCODING 10075
SWIDTH 1200 0
DWIDTH 12 0
BBX 12 9 0 0
BITMAP
01E0
8930
8B10
8A10
DA10
E920
E940
E8C0
ABF0
ENDCHAR
STARTCHAR 338A
ENCODING 10076
SWIDTH 1200 0
DWIDTH 12 0
BBX 10 11 1 -2
BITMAP
07C0
0400
0400
F400
8F80
8C00
8C00
8C00
D400
A000
8000
ENDCHAR
STARTCHAR 338B
ENCODING 10077
SWIDTH 1200 0
DWIDTH 12 0
BBX 11 9 1 0
BITMAP
03E0
0200
0200
F200
93C0
9200
9200
9200
9200
ENDCHAR
STARTCHAR 338C
ENCODING 10078
SWIDTH 1200 0
DWIDTH 12 0
BBX 12 11 0 -2
BITMAP
01F0
0100
0100
0300
23E0
2500
4500
4500
7D00
8000
8000
ENDCHAR
STARTCHAR 33D6
ENCODING 10079
SWIDTH 1200 0
DWIDTH 12 0
BBX 10 8 1 0
BITMAP
0040
0040
FB40
AD40
AD40
AD40
AD40
AB40
ENDCHAR
STARTCHAR 33C5
ENCODING 10080
SWIDTH 1200 0
DWIDTH 12 0
BBX 11 9 0 -1
BITMAP
0020
0020
39A0
4660
8420
8420
4620
2A60
1180
ENDCHAR
STARTCHAR 33AD
ENCODING 10081
SWIDTH 1200 0
DWIDTH 12 0
BBX 11 9 0 -1
BITMAP
0020
0020
2EA0
4B60
8320
9F20
9320
15E0
0800
ENDCHAR
STARTCHAR 33AE
ENCODING 10082
SWIDTH 1200 0
DWIDTH 12 0
BBX 11 11 0 -2
BITMAP
0100
0100
8F00
9D00
AD00
12C0
0100
06C0
0840
1020
2000
ENDCHAR
STARTCHAR 33AF
ENCODING 10083
SWIDTH 1200 0
DWIDTH 12 0
BBX 11 11 0 -2
BITMAP
0200
1200
9E00
9A00
AA00
14C0
0100
06E0
0880
3060
0020
ENDCHAR
STARTCHAR 33DB
ENCODING 10084
SWIDTH 1200 0
DWIDTH 12 0
BBX 8 6 2 0
BITMAP
F5
86
44
34
8C
54
ENDCHAR
STARTCHAR 33A9
ENCODING 10085
SWIDTH 1200 0
DWIDTH 12 0
BBX 11 10 1 -1
BITMAP
F000
8800
8800
89C0
F240
80C0
8340
8440
82A0
0100
ENDCHAR
STARTCHAR 33AA
ENCODING 10086
SWIDTH 1200 0
DWIDTH 12 0
BBX 12 9 0 -1
BITMAP
8E00
8900
89E0
A920
CEE0
A920
A920
88F0
0800
ENDCHAR
STARTCHAR 33AB
ENCODING 10087
SWIDTH 1200 0
DWIDTH 12 0
BBX 12 9 0 0
BITMAP
9600
9500
9500
9520
9620
F420
D4E0
D4A0
0070
ENDCHAR
STARTCHAR 33AC
ENCODING 10088
SWIDTH 1200 0
DWIDTH 12 0
BBX 13 10 -1 -1
BITMAP
3000
5300
4280
82D0
9A90
8B90
8A70
4A50
3A38
0200
ENDCHAR
STARTCHAR 33DD
ENCODING 10089
SWIDTH 1200 0
DWIDTH 12 0
BBX 12 9 0 0
BITMAP
9100
9500
9500
B5E0
B510
7610
6A10
4A10
0120
ENDCHAR
STARTCHAR 33D0
ENCODING 10090
SWIDTH 1200 0
DWIDTH 12 0
BBX 8 9 2 0
BITMAP
80
80
80
BF
A5
A5
A5
A5
A5
ENDCHAR
STARTCHAR 33D3
ENCODING 10091
SWIDTH 1200 0
DWIDTH 12 0
BBX 7 8 2 0
BITMAP
80
80
82
94
88
8C
94
82
ENDCHAR
STARTCHAR 33C3
ENCODING 10092
SWIDTH 1200 0
DWIDTH 12 0
BBX 10 11 1 -2
BITMAP
E000
9000
9000
9340
E4C0
9C40
8840
8440
9CC0
6340
0040
ENDCHAR
STARTCHAR 33C9
ENCODING 10093
SWIDTH 1200 0
DWIDTH 12 0
BBX 11 11 0 -2
BITMAP
3800
4800
4000
8020
8D20
8540
8540
44C0
3C80
0080
0080
ENDCHAR
STARTCHAR 33DC
ENCODING 10094
SWIDTH 1200 0
DWIDTH 12 0
BBX 11 9 0 0
BITMAP
3800
4400
8400
4000
3A20
0540
0540
4540
2880
ENDCHAR
STARTCHAR 33C6
ENCODING 10095
SWIDTH 1200 0
DWIDTH 12 0
BBX 11 12 0 -3
BITMAP
C400
8800
0800
9000
9400
5400
25E0
26A0
45C0
44E0
40A0
0040
ENDCHAR
STARTCHAR 00C6
ENCODING 10273
SWIDTH 1200 0
DWIDTH 12 0
BBX 11 9 1 0
BITMAP
0FE0
1400
1400
2400
27C0
7C00
4400
8400
87E0
ENDCHAR
STARTCHAR 00D0
ENCODING 10274
SWIDTH 1200 0
DWIDTH 12 0
BBX 9 9 1 0
BITMAP
3E00
2100
2080
2080
F880
2080
2080
2100
3E00
ENDCHAR
STARTCHAR 00AA
ENCODING 10275
SWIDTH 1200 0
DWIDTH 12 0
BBX 6 8 3 0
BITMAP
30
48
08
78
88
88
70
FC
ENDCHAR
STARTCHAR 0126
ENCODING 10276
SWIDTH 1200 0
DWIDTH 12 0
BBX 8 8 2 0
BITMAP
42
FF
42
7E
42
42
42
42
ENDCHAR
STARTCHAR 0132
ENCODING 10278
SWIDTH 1200 0
DWIDTH 12 0
BBX 6 8 3 0
BITMAP
84
84
84
84
84
C4
C4
B8
ENDCHAR
STARTCHAR 013F
ENCODING 10280
SWIDTH 1200 0
DWIDTH 12 0
BBX 6 8 3 0
BITMAP
80
80
80
90
80
80
80
FC
ENDCHAR
STARTCHAR 0141
ENCODING 10281
SWIDTH 1200 0
DWIDTH 12 0
BBX 8 8 2 0
BITMAP
20
28
30
20
60
A0
20
3F
ENDCHAR
STARTCHAR 00D8
ENCODING 10282
SWIDTH 1200 0
DWIDTH 12 0
BBX 8 10 2 -1
BITMAP
1D
62
82
85
89
91
A1
42
66
98
ENDCHAR
STARTCHAR 0152
ENCODING 10283
SWIDTH 1200 0
DWIDTH 12 0
BBX 12 9 0 0
BITMAP
3FF0
4200
8200
8200
83E0
8200
8200
4200
27F0
ENDCHAR
STARTCHAR 00BA
ENCODING 10284
SWIDTH 1200 0
DWIDTH 12 0
BBX 6 8 3 0
BITMAP
78
CC
84
84
84
CC
78
FC
ENDCHAR
STARTCHAR 00DE
ENCODING 10285
SWIDTH 1200 0
DWIDTH 12 0
BBX 6 8 3 0
BITMAP
80
80
FC
84
84
F8
80
80
ENDCHAR
STARTCHAR 0166
ENCODING 10286
SWIDTH 1200 0
DWIDTH 12 0
BBX 7 8 2 0
BITMAP
FE
10
10
10
7C
10
10
10
ENDCHAR
STARTCHAR 014A
ENCODING 10287
SWIDTH 1200 0
DWIDTH 12 0
BBX 6 9 3 0
BITMAP
B8
C4
84
84
84
84
84
84
18
ENDCHAR
STARTCHAR 3260
ENCODING 10289
SWIDTH 1200 0
DWIDTH 12 0
BBX 11 11 0 -2
BITMAP
0F80
3040
4020
BFA0
80A0
80A0
80A0
80A0
4020
2040
1D80
ENDCHAR
STARTCHAR 3261
ENCODING 10290
SWIDTH 1200 0
DWIDTH 12 0
BBX 11 11 0 -2
BITMAP
0F80
3040
4020
9020
9020
9020
9020
9FE0
4020
2040
1D80
ENDCHAR
STARTCHAR 3262
ENCODING 10291
SWIDTH 1200 0
DWIDTH 12 0
BBX 11 11 0 -2
BITMAP
0F80
3040
4020
9FE0
9020
9020
9020
9FE0
4020
2040
1D80
ENDCHAR
STARTCHAR 3263
ENCODING 10292
SWIDTH 1200 0
DWIDTH 12 0
BBX 11 11 0 -2
BITMAP
0F80
3040
4020
BFA0
80A0
9FA0
9020
9FE0
4020
2040
1D80
ENDCHAR
STARTCHAR 3264
ENCODING 10293
SWIDTH 1200 0
DWIDTH 12 0
BBX 11 11 0 -2
BITMAP
0F80
3040
4020
9FA0
90A0
90A0
90A0
9FA0
4020
2040
1D80
ENDCHAR
STARTCHAR 3265
ENCODING 10294
SWIDTH 1200 0
DWIDTH 12 0
BBX 11 11 0 -2
BITMAP
0F80
3040
50A0
90A0
9FA0
90A0
90A0
9FA0
4020
2040
1D80
ENDCHAR
STARTCHAR 3266
ENCODING 10295
SWIDTH 1200 0
DWIDTH 12 0
BBX 11 11 0 -2
BITMAP
0F80
3040
4020
8420
8620
8A20
91A0
A060
4020
2040
1D80
ENDCHAR
STARTCHAR 3267
ENCODING 10296
SWIDTH 1200 0
DWIDTH 12 0
BBX 11 11 0 -2
BITMAP
0F80
3040
4020
8F20
90A0
90A0
90A0
8F20
4020
2040
1D80
ENDCHAR
STARTCHAR 3268
ENCODING 10297
SWIDTH 1200 0
DWIDTH 12 0
BBX 11 11 0 -2
BITMAP
0F80
3040
4020
9FA0
8420
8620
8920
90A0
4020
2040
1D80
ENDCHAR
STARTCHAR 3269
ENCODING 10298
SWIDTH 1200 0
DWIDTH 12 0
BBX 11 11 0 -2
BITMAP
0F80
3040
4F20
8020
9FA0
8420
8620
8920
50A0
2040
1D80
ENDCHAR
STARTCHAR 326A
ENCODING 10299
SWIDTH 1200 0
DWIDTH 12 0
BBX 11 11 0 -2
BITMAP
0F80
3040
4020
9FA0
80A0
BFA0
80A0
80A0
4020
2040
1D80
ENDCHAR
STARTCHAR 326B
ENCODING 10300
SWIDTH 1200 0
DWIDTH 12 0
BBX 11 12 0 -3
BITMAP
0F00
30C0
4020
9FE0
9020
9FE0
9020
9FE0
8020
4040
3080
0F00
ENDCHAR
STARTCHAR 326C
ENCODING 10301
SWIDTH 1200 0
DWIDTH 12 0
BBX 11 11 0 -2
BITMAP
0F80
3040
4020
9FA0
8020
8920
8920
BFE0
4020
2040
1D80
ENDCHAR
STARTCHAR 326D
ENCODING 10302
SWIDTH 1200 0
DWIDTH 12 0
BBX 11 11 0 -2
BITMAP
0F80
3040
4F20
9FA0
8020
8F20
90A0
90A0
4F20
2040
1D80
ENDCHAR
STARTCHAR 326E
ENCODING 10303
SWIDTH 1200 0
DWIDTH 12 0
BBX 11 11 0 -2
BITMAP
0F80
30C0
40A0
9CA0
84A0
84E0
88A0
90A0
40A0
2040
1D80
ENDCHAR
STARTCHAR 326F
ENCODING 10304
SWIDTH 1200 0
DWIDTH 12 0
BBX 11 11 0 -2
BITMAP
0F80
30C0
40A0
90A0
90A0
90E0
91A0
8EA0
40A0
2040
1D80
ENDCHAR
STARTCHAR 3270
ENCODING 10305
SWIDTH 1200 0
DWIDTH 12 0
BBX 11 11 0 -2
BITMAP
0F80
3040
40A0
BCA0
A0A0
A0E0
A0A0
BCA0
40A0
2040
1D80
ENDCHAR
STARTCHAR 3271
ENCODING 10306
SWIDTH 1200 0
DWIDTH 12 0
BBX 11 11 0 -2
BITMAP
0F80
30C0
40A0
BCA0
84A0
BCE0
A0A0
9CA0
40A0
2040
1D80
ENDCHAR
STARTCHAR 3272
ENCODING 10307
SWIDTH 1200 0
DWIDTH 12 0
BBX 11 11 0 -2
BITMAP
0F80
30C0
40A0
BEA0
A2A0
A2E0
BEA0
80A0
40A0
2040
1D80
ENDCHAR
STARTCHAR 3273
ENCODING 10308
SWIDTH 1200 0
DWIDTH 12 0
BBX 11 11 0 -2
BITMAP
0F80
30C0
64A0
A4A0
BCA0
A4E0
A4A0
BCA0
40A0
2040
1D80
ENDCHAR
STARTCHAR 3274
ENCODING 10309
SWIDTH 1200 0
DWIDTH 12 0
BBX 11 11 0 -2
BITMAP
0F80
30C0
48A0
88A0
88A0
94E0
A4A0
82A0
40A0
2040
1D80
ENDCHAR
STARTCHAR 3275
ENCODING 10310
SWIDTH 1200 0
DWIDTH 12 0
BBX 12 11 0 -2
BITMAP
0F80
3040
5CA0
A290
A290
A2D0
A290
9C90
40A0
20C0
1D80
ENDCHAR
STARTCHAR 3276
ENCODING 10311
SWIDTH 1200 0
DWIDTH 12 0
BBX 11 11 0 -2
BITMAP
0F80
30C0
40A0
9EA0
88A0
88E0
94A0
92A0
40A0
2040
1D80
ENDCHAR
STARTCHAR 3277
ENCODING 10312
SWIDTH 1200 0
DWIDTH 12 0
BBX 11 11 0 -2
BITMAP
0F80
30C0
4CA0
80A0
9EA0
88E0
88A0
94A0
62A0
2040
1D80
ENDCHAR
STARTCHAR 3278
ENCODING 10313
SWIDTH 1200 0
DWIDTH 12 0
BBX 11 11 0 -2
BITMAP
0F80
30C0
40A0
9EA0
84A0
9CE0
84A0
88A0
50A0
2040
1D80
ENDCHAR
STARTCHAR 3279
ENCODING 10314
SWIDTH 1200 0
DWIDTH 12 0
BBX 11 11 0 -2
BITMAP
0F80
3040
40A0
9EA0
90A0
9EE0
90A0
90A0
4EA0
20C0
1D00
ENDCHAR
STARTCHAR 327A
ENCODING 10315
SWIDTH 1200 0
DWIDTH 12 0
BBX 11 11 0 -2
BITMAP
0F80
30C0
40A0
BEA0
90A0
94E0
94A0
BEA0
40A0
2040
1D80
ENDCHAR
STARTCHAR 327B
ENCODING 10316
SWIDTH 1200 0
DWIDTH 12 0
BBX 11 11 0 -2
BITMAP
0F80
30C0
5CA0
80A0
BEA0
BEE0
A2A0
BEA0
40A0
2040
1D80
ENDCHAR
STARTCHAR 24D0
ENCODING 10317
SWIDTH 1200 0
DWIDTH 12 0
BBX 11 11 0 -2
BITMAP
0F80
3040
4620
8120
8120
8F20
9120
8BA0
4420
2040
1D80
ENDCHAR
STARTCHAR 24D1
ENCODING 10318
SWIDTH 1200 0
DWIDTH 12 0
BBX 11 11 0 -2
BITMAP
0F80
3840
4820
8F20
88A0
88A0
88A0
88A0
4720
2040
1D80
ENDCHAR
STARTCHAR 24D2
ENCODING 10319
SWIDTH 1200 0
DWIDTH 12 0
BBX 11 11 0 -2
BITMAP
0F80
3040
4020
8F20
9020
9020
8820
8520
4220
2040
1D80
ENDCHAR
STARTCHAR 24D3
ENCODING 10320
SWIDTH 1200 0
DWIDTH 12 0
BBX 11 11 0 -2
BITMAP
0F80
3040
4120
8120
9F20
A120
9120
9320
4F20
2040
1D80
ENDCHAR
STARTCHAR 24D4
ENCODING 10321
SWIDTH 1200 0
DWIDTH 12 0
BBX 11 11 0 -2
BITMAP
0F80
3040
4020
8620
8920
8F20
9020
8920
4620
2040
1D80
ENDCHAR
STARTCHAR 24D5
ENCODING 10322
SWIDTH 1200 0
DWIDTH 12 0
BBX 11 11 0 -2
BITMAP
0F80
3040
4420
8420
8620
8420
8420
8420
4420
2440
1D80
ENDCHAR
STARTCHAR 24D6
ENCODING 10323
SWIDTH 1200 0
DWIDTH 12 0
BBX 11 11 0 -2
BITMAP
0F00
30C0
4F40
9120
9120
9120
8920
8720
4920
2640
1D80
ENDCHAR
STARTCHAR 24D7
ENCODING 10324
SWIDTH 1200 0
DWIDTH 12 0
BBX 11 11 0 -2
BITMAP
0F80
3040
4020
9020
8F20
9120
9120
9120
4120
2040
1D80
ENDCHAR
STARTCHAR 24D8
ENCODING 10325
SWIDTH 1200 0
DWIDTH 12 0
BBX 11 11 0 -2
BITMAP
0F80
3040
4020
8020
8420
8420
8420
8420
4420
2040
1D80
ENDCHAR
STARTCHAR 24D9
ENCODING 10326
SWIDTH 1200 0
DWIDTH 12 0
BBX 11 11 0 -2
BITMAP
0F80
3040
4020
8020
8420
8420
8420
8420
4420
2440
1D80
ENDCHAR
STARTCHAR 24DA
ENCODING 10327
SWIDTH 1200 0
DWIDTH 12 0
BBX 11 11 0 -2
BITMAP
0F80
3840
4820
8820
8820
8E20
8A20
8920
4820
2040
1D80
ENDCHAR
STARTCHAR 24DB
ENCODING 10328
SWIDTH 1200 0
DWIDTH 12 0
BBX 11 11 0 -2
BITMAP
0F80
3040
4420
8420
8420
8420
8420
8420
4420
2040
1D80
ENDCHAR
STARTCHAR 24DC
ENCODING 10329
SWIDTH 1200 0
DWIDTH 12 0
BBX 11 11 0 -2
BITMAP
0F80
3040
4020
9FA0
A460
A460
A460
8060
4020
2040
1D80
ENDCHAR
STARTCHAR 24DD
ENCODING 10330
SWIDTH 1200 0
DWIDTH 12 0
BBX 11 11 0 -2
BITMAP
0F80
3040
4020
8F20
8920
8920
8920
8920
4020
2040
1D80
ENDCHAR
STARTCHAR 24DE
ENCODING 10331
SWIDTH 1200 0
DWIDTH 12 0
BBX 11 11 0 -2
BITMAP
0F80
3040
4F20
98A0
90A0
90A0
98A0
8F20
4020
2040
1D80
ENDCHAR
STARTCHAR 24DF
ENCODING 10332
SWIDTH 1200 0
DWIDTH 12 0
BBX 11 11 0 -2
BITMAP
0F80
3040
4720
88A0
88A0
88A0
9520
9220
4020
2040
1D80
ENDCHAR
STARTCHAR 24E0
ENCODING 10333
SWIDTH 1200 0
DWIDTH 12 0
BBX 11 11 0 -2
BITMAP
0F00
30C0
4F40
9120
9120
9120
8B20
8520
4120
2040
1D80
ENDCHAR
STARTCHAR 24E1
ENCODING 10334
SWIDTH 1200 0
DWIDTH 12 0
BBX 11 11 0 -2
BITMAP
0F80
3040
4020
8720
8420
8420
8420
8420
4020
2040
1D80
ENDCHAR
STARTCHAR 24E2
ENCODING 10335
SWIDTH 1200 0
DWIDTH 12 0
BBX 11 11 0 -2
BITMAP
0F80
3040
4E20
9120
8820
8620
8120
8E20
4020
2040
1D80
ENDCHAR
STARTCHAR 24E3
ENCODING 10336
SWIDTH 1200 0
DWIDTH 12 0
BBX 11 11 0 -2
BITMAP
0F80
3440
4420
8E20
8420
8420
8420
8420
4220
2040
1D80
ENDCHAR
STARTCHAR 24E4
ENCODING 10337
SWIDTH 1200 0
DWIDTH 12 0
BBX 11 11 0 -2
BITMAP
0F80
3040
4020
8920
8920
8920
8920
8920
4620
2040
1D80
ENDCHAR
STARTCHAR 24E5
ENCODING 10338
SWIDTH 1200 0
DWIDTH 12 0
BBX 11 11 0 -2
BITMAP
0F80
3040
4020
8020
8920
8A20
8620
8620
4020
2040
1D80
ENDCHAR
STARTCHAR 24E6
ENCODING 10339
SWIDTH 1200 0
DWIDTH 12 0
BBX 11 11 0 -2
BITMAP
0F80
3040
4020
8260
92A0
96A0
9AA0
9920
4020
2040
1D80
ENDCHAR
STARTCHAR 24E7
ENCODING 10340
SWIDTH 1200 0
DWIDTH 12 0
BBX 11 11 0 -2
BITMAP
0F80
3040
4020
8920
8620
8420
8620
8920
4020
2040
1D80
ENDCHAR
STARTCHAR 24E8
ENCODING 10341
SWIDTH 1200 0
DWIDTH 12 0
BBX 11 11 0 -2
BITMAP
0F80
3040
4820
8920
8920
8620
8220
8420
4420
2040
1D80
ENDCHAR
STARTCHAR 24E9
ENCODING 10342
SWIDTH 1200 0
DWIDTH 12 0
BBX 11 11 0 -2
BITMAP
0F80
3040
4020
8F20
8220
8420
8820
8F20
4020
2040
1D80
ENDCHAR
STARTCHAR 2460
ENCODING 10343
SWIDTH 1200 0
DWIDTH 12 0
BBX 11 11 0 -2
BITMAP
0F80
3040
4220
8E20
8220
8220
8220
8220
4220
2040
1D80
ENDCHAR
STARTCHAR 2461
ENCODING 10344
SWIDTH 1200 0
DWIDTH 12 0
BBX 11 11 0 -2
BITMAP
0F00
37C0
4940
8920
8120
8220
8C20
8820
4F20
2040
1D80
ENDCHAR
STARTCHAR 2462
ENCODING 10345
SWIDTH 1200 0
DWIDTH 12 0
BBX 11 11 0 -2
BITMAP
0F00
30C0
4F40
8120
8120
8320
8120
8120
4920
2640
1D80
ENDCHAR
STARTCHAR 2463
ENCODING 10346
SWIDTH 1200 0
DWIDTH 12 0
BBX 11 11 0 -2
BITMAP
0F80
3240
4620
8A20
9220
9220
9F20
8220
4220
2040
1D80
ENDCHAR
STARTCHAR 2464
ENCODING 10347
SWIDTH 1200 0
DWIDTH 12 0
BBX 11 11 0 -2
BITMAP
0F80
3040
4F20
8820
8F20
8120
8120
8920
4620
2040
1D80
ENDCHAR
STARTCHAR 2465
ENCODING 10348
SWIDTH 1200 0
DWIDTH 12 0
BBX 11 11 0 -2
BITMAP
0F00
30C0
47C0
8820
8A20
8DA0
88A0
88A0
4520
2240
1D80
ENDCHAR
STARTCHAR 2466
ENCODING 10349
SWIDTH 1200 0
DWIDTH 12 0
BBX 11 11 0 -2
BITMAP
0F80
3040
4F20
8120
8220
8220
8420
8420
4420
2440
1D80
ENDCHAR
STARTCHAR 2467
ENCODING 10350
SWIDTH 1200 0
DWIDTH 12 0
BBX 11 11 0 -2
BITMAP
0F00
30C0
4F40
9120
9120
8F20
88A0
88A0
4920
2640
1D80
ENDCHAR
STARTCHAR 2468
ENCODING 10351
SWIDTH 1200 0
DWIDTH 12 0
BBX 11 11 0 -2
BITMAP
0F80
3040
4F20
9120
8920
8920
8720
8920
4920
2640
1D80
ENDCHAR
STARTCHAR 2469
ENCODING 10352
SWIDTH 1200 0
DWIDTH 12 0
BBX 11 11 0 -2
BITMAP
1F00
2080
51C0
B260
9460
9460
9460
9260
41C0
2080
1D00
ENDCHAR
STARTCHAR 246A
ENCODING 10353
SWIDTH 1200 0
DWIDTH 12 0
BBX 11 11 0 -2
BITMAP
0F80
3040
48A0
99A0
88A0
88A0
88A0
88A0
4020
2040
1D80
ENDCHAR
STARTCHAR 246B
ENCODING 10354
SWIDTH 1200 0
DWIDTH 12 0
BBX 11 11 0 -2
BITMAP
0F80
3040
5020
B3A0
90A0
90A0
9120
9220
43A0
2040
1D80
ENDCHAR
STARTCHAR 246C
ENCODING 10355
SWIDTH 1200 0
DWIDTH 12 0
BBX 11 11 0 -2
BITMAP
1F00
2080
51C0
B0A0
90A0
90A0
9060
9060
41C0
2080
1D00
ENDCHAR
STARTCHAR 246D
ENCODING 10356
SWIDTH 1200 0
DWIDTH 12 0
BBX 11 11 0 -2
BITMAP
0F80
3040
40A0
89A0
8AA0
8CA0
8FE0
88A0
40A0
2040
1D80
ENDCHAR
STARTCHAR 246E
ENCODING 10357
SWIDTH 1200 0
DWIDTH 12 0
BBX 11 11 0 -2
BITMAP
1F00
2080
53C0
B220
9220
93E0
9060
9260
41C0
2080
1D00
ENDCHAR
STARTCHAR 00BD
ENCODING 10358
SWIDTH 1200 0
DWIDTH 12 0
BBX 8 9 2 -1
BITMAP
44
C8
48
56
59
61
26
48
4F
ENDCHAR
STARTCHAR 2153
ENCODING 10359
SWIDTH 1200 0
DWIDTH 12 0
BBX 6 9 3 -1
BITMAP
88
90
90
A0
BC
44
44
94
8C
ENDCHAR
STARTCHAR 2154
ENCODING 10360
SWIDTH 1200 0
DWIDTH 12 0
BBX 10 9 1 -1
BITMAP
6100
1200
1200
6400
8480
F880
1080
1240
0180
ENDCHAR
STARTCHAR 00BC
ENCODING 10361
SWIDTH 1200 0
DWIDTH 12 0
BBX 6 9 3 -1
BITMAP
80
80
88
90
A4
3C
54
4C
04
ENDCHAR
STARTCHAR 00BE
ENCODING 10362
SWIDTH 1200 0
DWIDTH 12 0
BBX 9 9 2 -1
BITMAP
E000
2200
4400
2400
2900
5700
1500
2780
2100
ENDCHAR
STARTCHAR 215B
ENCODING 10363
SWIDTH 1200 0
DWIDTH 12 0
BBX 7 9 3 -1
BITMAP
88
90
90
AE
AA
4E
4A
8A
8E
ENDCHAR
STARTCHAR 215C
ENCODING 10364
SWIDTH 1200 0
DWIDTH 12 0
BBX 10 9 1 -1
BITMAP
6100
A200
6400
1580
2A40
4980
1240
1240
0180
ENDCHAR
STARTCHAR 215D
ENCODING 10365
SWIDTH 1200 0
DWIDTH 12 0
BBX 10 9 1 -1
BITMAP
6000
8200
E400
1580
9A40
6980
1240
0240
0180
ENDCHAR
STARTCHAR 215E
ENCODING 10366
SWIDTH 1200 0
DWIDTH 12 0
BBX 8 9 2 -1
BITMAP
E4
28
48
56
19
27
49
49
07
ENDCHAR
STARTCHAR 00E6
ENCODING 10529
SWIDTH 1200 0
DWIDTH 12 0
BBX 10 6 1 0
BITMAP
3F80
4880
7FC0
8800
8800
5780
ENDCHAR
STARTCHAR 0111
ENCODING 10530
SWIDTH 1200 0
DWIDTH 12 0
BBX 7 9 2 -1
BITMAP
1E
04
7C
84
84
84
84
5C
20
ENDCHAR
STARTCHAR 00F0
ENCODING 10531
SWIDTH 1200 0
DWIDTH 12 0
BBX 6 9 3 0
BITMAP
28
10
08
08
7C
84
84
84
48
ENDCHAR
STARTCHAR 0127
ENCODING 10532
SWIDTH 1200 0
DWIDTH 12 0
BBX 6 8 3 0
BITMAP
F0
40
7C
44
44
44
44
44
ENDCHAR
STARTCHAR 0131
ENCODING 10533
SWIDTH 1200 0
DWIDTH 12 0
BBX 1 6 6 0
BITMAP
80
80
80
80
80
80
ENDCHAR
STARTCHAR 0133
ENCODING 10534
SWIDTH 1200 0
DWIDTH 12 0
BBX 4 10 4 -2
BITMAP
90
00
90
90
90
90
90
90
10
30
ENDCHAR
STARTCHAR 0138
ENCODING 10535
SWIDTH 1200 0
DWIDTH 12 0
BBX 5 6 3 0
BITMAP
90
A0
E0
A0
90
88
ENDCHAR
STARTCHAR 0140
ENCODING 10536
SWIDTH 1200 0
DWIDTH 12 0
BBX 4 8 4 0
BITMAP
80
80
80
90
80
80
80
80
ENDCHAR
STARTCHAR 0142
ENCODING 10537
SWIDTH 1200 0
DWIDTH 12 0
BBX 5 8 4 0
BITMAP
20
28
30
20
20
E0
A0
20
ENDCHAR
STARTCHAR 00F8
ENCODING 10538
SWIDTH 1200 0
DWIDTH 12 0
BBX 6 6 3 0
BITMAP
34
C8
94
A4
44
F8
ENDCHAR
STARTCHAR 0153
ENCODING 10539
SWIDTH 1200 0
DWIDTH 12 0
BBX 10 7 1 -1
BITMAP
7780
CC40
87C0
8800
8440
5B80
2000
ENDCHAR
STARTCHAR 00DF
ENCODING 10540
SWIDTH 1200 0
DWIDTH 12 0
BBX 6 9 3 0
BITMAP
20
58
88
88
90
8C
84
84
08
ENDCHAR
STARTCHAR 00FE
ENCODING 10541
SWIDTH 1200 0
DWIDTH 12 0
BBX 6 9 3 -1
BITMAP
80
80
B8
CC
84
84
84
C8
B0
ENDCHAR
STARTCHAR 0167
ENCODING 10542
SWIDTH 1200 0
DWIDTH 12 0
BBX 3 8 4 0
BITMAP
40
40
E0
E0
40
40
40
40
ENDCHAR
STARTCHAR 014B
ENCODING 10543
SWIDTH 1200 0
DWIDTH 12 0
BBX 5 8 3 -2
BITMAP
78
88
88
88
88
08
08
18
ENDCHAR
STARTCHAR 0149
ENCODING 10544
SWIDTH 1200 0
DWIDTH 12 0
BBX 7 7 3 0
BITMAP
80
BE
22
22
22
22
22
ENDCHAR
STARTCHAR 3200
ENCODING 10545
SWIDTH 1200 0
DWIDTH 12 0
BBX 12 10 0 -1
BITMAP
2000
4040
8020
BF90
8090
8090
8090
80A0
40C0
0040
ENDCHAR
STARTCHAR 3201
ENCODING 10546
SWIDTH 1200 0
DWIDTH 12 0
BBX 12 10 0 -1
BITMAP
2000
4040
8020
9010
9010
9010
9010
9FE0
4040
0040
ENDCHAR
STARTCHAR 3202
ENCODING 10547
SWIDTH 1200 0
DWIDTH 12 0
BBX 12 10 0 -1
BITMAP
2000
4040
8020
9FD0
9010
9010
9010
9FE0
4040
0040
ENDCHAR
STARTCHAR 3203
ENCODING 10548
SWIDTH 1200 0
DWIDTH 12 0
BBX 12 10 0 -1
BITMAP
2000
4040
8020
BF90
8090
9F90
9010
9FE0
4040
0040
ENDCHAR
STARTCHAR 3204
ENCODING 10549
SWIDTH 1200 0
DWIDTH 12 0
BBX 12 10 0 -1
BITMAP
2000
4040
8020
9F90
9090
9090
9090
9FA0
4040
0040
ENDCHAR
STARTCHAR 3205
ENCODING 10550
SWIDTH 1200 0
DWIDTH 12 0
BBX 12 10 0 -1
BITMAP
2000
4040
90A0
9090
9F90
9090
9090
9FA0
4040
0040
ENDCHAR
STARTCHAR 3206
ENCODING 10551
SWIDTH 1200 0
DWIDTH 12 0
BBX 12 10 0 -1
BITMAP
2000
4040
8020
8410
8410
8610
8910
B0E0
4040
0040
ENDCHAR
STARTCHAR 3207
ENCODING 10552
SWIDTH 1200 0
DWIDTH 12 0
BBX 12 10 0 -1
BITMAP
2000
4040
8020
8F10
9090
9090
9090
8F20
4040
0040
ENDCHAR
STARTCHAR 3208
ENCODING 10553
SWIDTH 1200 0
DWIDTH 12 0
BBX 12 10 0 -1
BITMAP
2000
4000
8020
9F90
8410
8610
8A10
91A0
4040
0040
ENDCHAR
STARTCHAR 3209
ENCODING 10554
SWIDTH 1200 0
DWIDTH 12 0
BBX 12 10 0 -1
BITMAP
2000
4040
8F20
8010
9F90
8410
8610
8920
50C0
0040
ENDCHAR
STARTCHAR 320A
ENCODING 10555
SWIDTH 1200 0
DWIDTH 12 0
BBX 12 10 0 -1
BITMAP
2000
4040
8020
9F90
8090
9E90
8090
80A0
40C0
0040
ENDCHAR
STARTCHAR 320B
ENCODING 10556
SWIDTH 1200 0
DWIDTH 12 0
BBX 12 9 0 -1
BITMAP
4040
4020
9FD0
9010
9FD0
9010
9FE0
4040
0040
ENDCHAR
STARTCHAR 320C
ENCODING 10557
SWIDTH 1200 0
DWIDTH 12 0
BBX 12 10 0 -1
BITMAP
2000
4040
8020
9F90
8010
8910
8910
BFE0
4040
0040
ENDCHAR
STARTCHAR 320D
ENCODING 10558
SWIDTH 1200 0
DWIDTH 12 0
BBX 12 10 0 -1
BITMAP
2000
4040
8F20
8010
9F90
8F10
9090
90A0
4F40
0040
ENDCHAR
STARTCHAR 320E
ENCODING 10559
SWIDTH 1200 0
DWIDTH 12 0
BBX 12 10 0 -1
BITMAP
2000
40C0
80A0
BC90
8490
88D0
8890
90A0
40C0
00C0
ENDCHAR
STARTCHAR 320F
ENCODING 10560
SWIDTH 1200 0
DWIDTH 12 0
BBX 12 10 0 -1
BITMAP
2000
40C0
80A0
A090
A090
A0D0
A090
9CA0
40C0
00C0
ENDCHAR
STARTCHAR 3210
ENCODING 10561
SWIDTH 1200 0
DWIDTH 12 0
BBX 12 10 0 -1
BITMAP
2000
4080
80A0
BC90
A090
A0D0
A090
BEA0
40C0
00C0
ENDCHAR
STARTCHAR 3211
ENCODING 10562
SWIDTH 1200 0
DWIDTH 12 0
BBX 12 10 0 -1
BITMAP
2000
40C0
80A0
BC90
8490
BCD0
A090
9CA0
40C0
00C0
ENDCHAR
STARTCHAR 3212
ENCODING 10563
SWIDTH 1200 0
DWIDTH 12 0
BBX 12 10 0 -1
BITMAP
2000
40C0
80A0
BC90
A490
A4D0
BC90
80A0
40C0
00C0
ENDCHAR
STARTCHAR 3213
ENCODING 10564
SWIDTH 1200 0
DWIDTH 12 0
BBX 12 10 0 -1
BITMAP
2000
40C0
A4A0
A490
BC90
A4D0
A490
BCA0
40C0
00C0
ENDCHAR
STARTCHAR 3214
ENCODING 10565
SWIDTH 1200 0
DWIDTH 12 0
BBX 12 10 0 -1
BITMAP
2000
40C0
88A0
8890
9890
98D0
9490
A2A0
40C0
00C0
ENDCHAR
STARTCHAR 3215
ENCODING 10566
SWIDTH 1200 0
DWIDTH 12 0
BBX 12 10 0 -1
BITMAP
2000
40C0
98A0
A490
A490
A4D0
A490
98A0
40C0
00C0
ENDCHAR
STARTCHAR 3216
ENCODING 10567
SWIDTH 1200 0
DWIDTH 12 0
BBX 12 10 0 -1
BITMAP
2000
40C0
80A0
9E90
8890
88D0
9490
92A0
40C0
00C0
ENDCHAR
STARTCHAR 3217
ENCODING 10568
SWIDTH 1200 0
DWIDTH 12 0
BBX 12 10 0 -1
BITMAP
2000
40C0
8CA0
8090
9E90
88D0
8890
94A0
62C0
00C0
ENDCHAR
STARTCHAR 3218
ENCODING 10569
SWIDTH 1200 0
DWIDTH 12 0
BBX 12 10 0 -1
BITMAP
2000
40C0
80A0
9C90
8490
8CD0
9490
88A0
70C0
00C0
ENDCHAR
STARTCHAR 3219
ENCODING 10570
SWIDTH 1200 0
DWIDTH 12 0
BBX 12 10 0 -1
BITMAP
2000
40C0
80A0
9E90
9090
9ED0
9090
90A0
4EC0
00C0
ENDCHAR
STARTCHAR 321A
ENCODING 10571
SWIDTH 1200 0
DWIDTH 12 0
BBX 12 10 0 -1
BITMAP
2000
40C0
BEA0
8090
9090
94D0
9490
BEA0
40C0
00C0
ENDCHAR
STARTCHAR 321B
ENCODING 10572
SWIDTH 1200 0
DWIDTH 12 0
BBX 12 11 0 -2
BITMAP
2000
40C0
4CA0
8090
BE90
9CD0
A290
A2A0
9CC0
40C0
2000
ENDCHAR
STARTCHAR 249C
ENCODING 10573
SWIDTH 1200 0
DWIDTH 12 0
BBX 12 10 0 -1
BITMAP
2000
4040
8620
8910
8110
8F10
9110
8B20
4440
0040
ENDCHAR
STARTCHAR 249D
ENCODING 10574
SWIDTH 1200 0
DWIDTH 12 0
BBX 12 10 0 -1
BITMAP
2000
4040
8820
8810
8F10
9090
9090
90A0
4F40
0040
ENDCHAR
STARTCHAR 249E
ENCODING 10575
SWIDTH 1200 0
DWIDTH 12 0
BBX 12 10 0 -1
BITMAP
2000
4040
8020
8F10
9010
9010
9010
8F20
4040
0040
ENDCHAR
STARTCHAR 249F
ENCODING 10576
SWIDTH 1200 0
DWIDTH 12 0
BBX 12 10 0 -1
BITMAP
2000
4040
8120
8510
9B10
9110
9110
9120
4F40
0040
ENDCHAR
STARTCHAR 24A0
ENCODING 10577
SWIDTH 1200 0
DWIDTH 12 0
BBX 12 10 0 -1
BITMAP
2000
4040
8020
8E10
9110
8F10
9010
8920
4640
0040
ENDCHAR
STARTCHAR 24A1
ENCODING 10578
SWIDTH 1200 0
DWIDTH 12 0
BBX 12 10 0 -1
BITMAP
2000
4040
8420
8410
8610
8410
8410
8420
4440
0440
ENDCHAR
STARTCHAR 24A2
ENCODING 10579
SWIDTH 1200 0
DWIDTH 12 0
BBX 12 10 0 -1
BITMAP
2000
4040
8FA0
8890
9090
8890
8990
86A0
4940
0640
ENDCHAR
STARTCHAR 24A3
ENCODING 10580
SWIDTH 1200 0
DWIDTH 12 0
BBX 12 10 0 -1
BITMAP
2000
4040
8820
8810
8F10
8910
8910
8920
4840
0040
ENDCHAR
STARTCHAR 24A4
ENCODING 10581
SWIDTH 1200 0
DWIDTH 12 0
BBX 12 10 0 -1
BITMAP
2000
4040
8020
8010
8410
8410
8410
8420
4440
0040
ENDCHAR
STARTCHAR 24A5
ENCODING 10582
SWIDTH 1200 0
DWIDTH 12 0
BBX 12 10 0 -1
BITMAP
2000
4040
8020
8010
8410
8410
8410
8420
4440
0040
ENDCHAR
STARTCHAR 24A6
ENCODING 10583
SWIDTH 1200 0
DWIDTH 12 0
BBX 12 10 0 -1
BITMAP
2000
4040
8820
8810
8910
8E10
8A10
8920
4840
0040
ENDCHAR
STARTCHAR 24A7
ENCODING 10584
SWIDTH 1200 0
DWIDTH 12 0
BBX 12 10 0 -1
BITMAP
2000
4040
8420
8410
8410
8410
8410
8420
4440
0040
ENDCHAR
STARTCHAR 24A8
ENCODING 10585
SWIDTH 1200 0
DWIDTH 12 0
BBX 12 10 0 -1
BITMAP
2000
4040
8020
9FD0
A450
A450
A450
8060
4040
0040
ENDCHAR
STARTCHAR 24A9
ENCODING 10586
SWIDTH 1200 0
DWIDTH 12 0
BBX 12 10 0 -1
BITMAP
2000
4040
8020
8F10
9110
9110
9110
8120
4040
0040
ENDCHAR
STARTCHAR 24AA
ENCODING 10587
SWIDTH 1200 0
DWIDTH 12 0
BBX 12 10 0 -1
BITMAP
2000
4040
8F20
9890
9090
9090
9890
8F20
4040
0040
ENDCHAR
STARTCHAR 24AB
ENCODING 10588
SWIDTH 1200 0
DWIDTH 12 0
BBX 12 10 0 -1
BITMAP
2000
4040
8720
8890
8890
8890
9910
9620
4040
0040
ENDCHAR
STARTCHAR 24AC
ENCODING 10589
SWIDTH 1200 0
DWIDTH 12 0
BBX 12 10 0 -1
BITMAP
2000
4040
8D20
9310
A110
9110
9310
8D20
4140
0040
ENDCHAR
STARTCHAR 24AD
ENCODING 10590
SWIDTH 1200 0
DWIDTH 12 0
BBX 12 10 0 -1
BITMAP
2000
4040
8020
8610
8410
8410
8410
8420
4040
0040
ENDCHAR
STARTCHAR 24AE
ENCODING 10591
SWIDTH 1200 0
DWIDTH 12 0
BBX 12 10 0 -1
BITMAP
2000
4040
8620
8910
8810
8710
8910
8620
4040
0040
ENDCHAR
STARTCHAR 24AF
ENCODING 10592
SWIDTH 1200 0
DWIDTH 12 0
BBX 12 10 0 -1
BITMAP
2000
4440
8420
8610
8410
8410
8410
8420
4240
0040
ENDCHAR
STARTCHAR 24B0
ENCODING 10593
SWIDTH 1200 0
DWIDTH 12 0
BBX 12 10 0 -1
BITMAP
2000
4040
8020
8910
8910
8910
8910
8920
4640
0040
ENDCHAR
STARTCHAR 24B1
ENCODING 10594
SWIDTH 1200 0
DWIDTH 12 0
BBX 12 10 0 -1
BITMAP
2000
4040
8020
8010
8910
8A10
8610
8620
4040
0040
ENDCHAR
STARTCHAR 24B2
ENCODING 10595
SWIDTH 1200 0
DWIDTH 12 0
BBX 12 10 0 -1
BITMAP
2000
4040
8020
8210
9690
9690
9A90
9920
4040
0040
ENDCHAR
STARTCHAR 24B3
ENCODING 10596
SWIDTH 1200 0
DWIDTH 12 0
BBX 12 10 0 -1
BITMAP
2000
4040
8020
8910
8610
8610
8A10
8920
4040
0040
ENDCHAR
STARTCHAR 24B4
ENCODING 10597
SWIDTH 1200 0
DWIDTH 12 0
BBX 12 10 0 -1
BITMAP
2000
4040
8820
8910
8910
8610
8610
8420
4040
0440
ENDCHAR
STARTCHAR 24B5
ENCODING 10598
SWIDTH 1200 0
DWIDTH 12 0
BBX 12 10 0 -1
BITMAP
2000
4040
8020
8F10
8210
8410
8810
8F20
4040
0040
ENDCHAR
STARTCHAR 2474
ENCODING 10599
SWIDTH 1200 0
DWIDTH 12 0
BBX 12 10 0 -1
BITMAP
2000
4040
8220
8E10
8210
8210
8210
8220
4240
0240
ENDCHAR
STARTCHAR 2475
ENCODING 10600
SWIDTH 1200 0
DWIDTH 12 0
BBX 12 10 0 -1
BITMAP
2000
4740
8920
8110
8110
8610
8810
8820
4F40
0040
ENDCHAR
STARTCHAR 2476
ENCODING 10601
SWIDTH 1200 0
DWIDTH 12 0
BBX 12 10 0 -1
BITMAP
2000
4040
8F20
8110
8110
8610
8110
8120
4940
0640
ENDCHAR
STARTCHAR 2477
ENCODING 10602
SWIDTH 1200 0
DWIDTH 12 0
BBX 12 10 0 -1
BITMAP
2000
4040
8220
8610
8A10
9210
9210
9F20
4240
0240
ENDCHAR
STARTCHAR 2478
ENCODING 10603
SWIDTH 1200 0
DWIDTH 12 0
BBX 12 10 0 -1
BITMAP
2000
4040
8720
8810
8810
8F10
8090
80A0
48C0
0740
ENDCHAR
STARTCHAR 2479
ENCODING 10604
SWIDTH 1200 0
DWIDTH 12 0
BBX 12 10 0 -1
BITMAP
2000
4040
8720
8810
8A10
8D90
8890
88A0
4540
0240
ENDCHAR
STARTCHAR 247A
ENCODING 10605
SWIDTH 1200 0
DWIDTH 12 0
BBX 12 10 0 -1
BITMAP
2000
4040
8F20
8110
8210
8210
8410
8420
4440
0040
ENDCHAR
STARTCHAR 247B
ENCODING 10606
SWIDTH 1200 0
DWIDTH 12 0
BBX 12 10 0 -1
BITMAP
2000
4740
89A0
8990
8910
8790
8890
88A0
4740
0040
ENDCHAR
STARTCHAR 247C
ENCODING 10607
SWIDTH 1200 0
DWIDTH 12 0
BBX 12 10 0 -1
BITMAP
2000
4040
8E20
9110
9110
8B10
8510
9120
4A40
0440
ENDCHAR
STARTCHAR 247D
ENCODING 10608
SWIDTH 1200 0
DWIDTH 12 0
BBX 12 10 0 -1
BITMAP
2000
51C0
9260
9250
9250
9250
9250
9260
52C0
0140
ENDCHAR
STARTCHAR 247E
ENCODING 10609
SWIDTH 1200 0
DWIDTH 12 0
BBX 12 10 0 -1
BITMAP
2000
48C0
88A0
8890
8890
8890
8890
88A0
48C0
0040
ENDCHAR
STARTCHAR 247F
ENCODING 10610
SWIDTH 1200 0
DWIDTH 12 0
BBX 12 10 0 -1
BITMAP
2000
5040
93A0
9290
9090
9110
9210
9220
5240
03C0
ENDCHAR
STARTCHAR 2480
ENCODING 10611
SWIDTH 1200 0
DWIDTH 12 0
BBX 12 10 0 -1
BITMAP
2000
51C0
9060
9050
9090
9090
9050
9260
5240
01C0
ENDCHAR
STARTCHAR 2481
ENCODING 10612
SWIDTH 1200 0
DWIDTH 12 0
BBX 12 10 0 -1
BITMAP
2000
50C0
90A0
9190
9290
9290
9290
93E0
50C0
00C0
ENDCHAR
STARTCHAR 2482
ENCODING 10613
SWIDTH 1200 0
DWIDTH 12 0
BBX 12 10 0 -1
BITMAP
2000
43C0
9220
9210
93D0
9250
9050
9060
50C0
0140
ENDCHAR
STARTCHAR 00B9
ENCODING 10614
SWIDTH 1200 0
DWIDTH 12 0
BBX 1 5 6 4
BITMAP
80
80
80
80
80
ENDCHAR
STARTCHAR 00B2
ENCODING 10615
SWIDTH 1200 0
DWIDTH 12 0
BBX 4 5 4 4
BITMAP
70
10
20
C0
F0
ENDCHAR
STARTCHAR 00B3
ENCODING 10616
SWIDTH 1200 0
DWIDTH 12 0
BBX 3 6 5 3
BITMAP
C0
40
40
20
40
80
ENDCHAR
STARTCHAR 2074
ENCODING 10617
SWIDTH 1200 0
DWIDTH 12 0
BBX 4 5 4 4
BITMAP
20
E0
A0
F0
20
ENDCHAR
STARTCHAR 207F
ENCODING 10618
SWIDTH 1200 0
DWIDTH 12 0
BBX 4 4 4 4
BITMAP
F0
90
90
90
ENDCHAR
STARTCHAR 2081
ENCODING 10619
SWIDTH 1200 0
DWIDTH 12 0
BBX 2 5 5 -2
BITMAP
40
C0
40
40
40
ENDCHAR
STARTCHAR 2082
ENCODING 10620
SWIDTH 1200 0
DWIDTH 12 0
BBX 4 6 4 -2
BITMAP
60
10
10
60
80
F0
ENDCHAR
STARTCHAR 2083
ENCODING 10621
SWIDTH 1200 0
DWIDTH 12 0
BBX 4 6 4 -3
BITMAP
60
A0
60
10
20
40
ENDCHAR
STARTCHAR 2084
ENCODING 10622
SWIDTH 1200 0
DWIDTH 12 0
BBX 4 5 4 -2
BITMAP
20
E0
A0
F0
20
ENDCHAR
STARTCHAR 3041
ENCODING 10785
SWIDTH 1200 0
DWIDTH 12 0
BBX 7 7 2 -1
BITMAP
10
38
20
3E
72
92
64
ENDCHAR
STARTCHAR 3042
ENCODING 10786
SWIDTH 1200 0
DWIDTH 12 0
BBX 9 10 1 -1
BITMAP
0800
1200
7C00
1200
1D00
3480
5480
8880
9880
6300
ENDCHAR
STARTCHAR 3043
ENCODING 10787
SWIDTH 1200 0
DWIDTH 12 0
BBX 6 5 3 -1
BITMAP
80
88
84
84
60
ENDCHAR
STARTCHAR 3044
ENCODING 10788
SWIDTH 1200 0
DWIDTH 12 0
BBX 9 6 1 0
BITMAP
8100
8080
8080
4080
4000
3000
ENDCHAR
STARTCHAR 3045
ENCODING 10789
SWIDTH 1200 0
DWIDTH 12 0
BBX 3 7 5 -1
BITMAP
40
00
E0
20
20
20
40
ENDCHAR
STARTCHAR 3046
ENCODING 10790
SWIDTH 1200 0
DWIDTH 12 0
BBX 6 10 3 -1
BITMAP
30
08
00
78
84
04
04
08
08
10
ENDCHAR
STARTCHAR 3047
ENCODING 10791
SWIDTH 1200 0
DWIDTH 12 0
BBX 6 7 3 -2
BITMAP
10
00
70
20
30
D0
8C
ENDCHAR
STARTCHAR 3048
ENCODING 10792
SWIDTH 1200 0
DWIDTH 12 0
BBX 8 9 2 -1
BITMAP
10
08
1C
28
10
38
28
48
87
ENDCHAR
STARTCHAR 3049
ENCODING 10793
SWIDTH 1200 0
DWIDTH 12 0
BBX 7 7 2 -2
BITMAP
20
32
20
3E
E2
A0
40
ENDCHAR
STARTCHAR 304A
ENCODING 10794
SWIDTH 1200 0
DWIDTH 12 0
BBX 9 10 1 -1
BITMAP
1000
1000
1100
7880
1000
1300
1C80
7080
9080
7100
ENDCHAR
STARTCHAR 304B
ENCODING 10795
SWIDTH 1200 0
DWIDTH 12 0
BBX 10 9 1 -1
BITMAP
1000
2000
1C80
E440
2440
4400
4400
8400
1800
ENDCHAR
STARTCHAR 304C
ENCODING 10796
SWIDTH 1200 0
DWIDTH 12 0
BBX 10 10 1 -1
BITMAP
0040
1080
2000
3C80
6480
4440
4400
4400
8400
1800
ENDCHAR
STARTCHAR 304D
ENCODING 10797
SWIDTH 1200 0
DWIDTH 12 0
BBX 7 9 2 -1
BITMAP
10
18
2A
1C
24
3E
C0
40
38
ENDCHAR
STARTCHAR 304E
ENCODING 10798
SWIDTH 1200 0
DWIDTH 12 0
BBX 9 10 1 -1
BITMAP
0080
1100
1800
2A00
1C00
2400
3E00
C000
4000
3C00
ENDCHAR
STARTCHAR 304F
ENCODING 10799
SWIDTH 1200 0
DWIDTH 12 0
BBX 4 9 4 -1
BITMAP
10
20
40
80
80
40
20
20
10
ENDCHAR
STARTCHAR 3050
ENCODING 10800
SWIDTH 1200 0
DWIDTH 12 0
BBX 7 9 2 -1
BITMAP
10
12
20
40
80
40
20
10
08
ENDCHAR
STARTCHAR 3051
ENCODING 10801
SWIDTH 1200 0
DWIDTH 12 0
BBX 8 9 1 -1
BITMAP
40
41
8F
81
81
82
82
42
44
ENDCHAR
STARTCHAR 3052
ENCODING 10802
SWIDTH 1200 0
DWIDTH 12 0
BBX 10 10 1 -1
BITMAP
0040
0280
8280
9F00
8200
8200
8200
C200
8400
0400
ENDCHAR
STARTCHAR 3053
ENCODING 10803
SWIDTH 1200 0
DWIDTH 12 0
BBX 8 8 2 0
BITMAP
3E
00
00
00
00
80
80
7F
ENDCHAR
STARTCHAR 3054
ENCODING 10804
SWIDTH 1200 0
DWIDTH 12 0
BBX 9 8 1 0
BITMAP
3E00
0000
0080
0000
0000
8000
8000
7E00
ENDCHAR
STARTCHAR 3055
ENCODING 10805
SWIDTH 1200 0
DWIDTH 12 0
BBX 7 8 2 -1
BITMAP
0E
78
04
02
7E
80
40
38
ENDCHAR
STARTCHAR 3056
ENCODING 10806
SWIDTH 1200 0
DWIDTH 12 0
BBX 9 10 1 -1
BITMAP
0080
0000
0E00
7800
0400
0200
7E00
8000
4000
3800
ENDCHAR
STARTCHAR 3057
ENCODING 10807
SWIDTH 1200 0
DWIDTH 12 0
BBX 7 9 2 -1
BITMAP
40
40
80
80
80
80
80
42
3C
ENDCHAR
STARTCHAR 3058
ENCODING 10808
SWIDTH 1200 0
DWIDTH 12 0
BBX 7 10 2 -1
BITMAP
40
40
40
40
80
80
80
82
44
38
ENDCHAR
STARTCHAR 3059
ENCODING 10809
SWIDTH 1200 0
DWIDTH 12 0
BBX 8 9 2 -1
BITMAP
08
0F
F8
38
48
48
38
10
20
ENDCHAR
STARTCHAR 305A
ENCODING 10810
SWIDTH 1200 0
DWIDTH 12 0
BBX 8 10 2 -1
BITMAP
08
08
FF
08
38
48
48
38
10
20
ENDCHAR
STARTCHAR 305B
ENCODING 10811
SWIDTH 1200 0
DWIDTH 12 0
BBX 10 9 1 -1
BITMAP
0100
0100
21C0
FF00
2100
2200
2000
1000
0F80
ENDCHAR
STARTCHAR 305C
ENCODING 10812
SWIDTH 1200 0
DWIDTH 12 0
BBX 10 9 1 0
BITMAP
0040
2280
2200
7FC0
A200
2200
2600
2000
1F00
ENDCHAR
STARTCHAR 305D
ENCODING 10813
SWIDTH 1200 0
DWIDTH 12 0
BBX 7 9 2 -1
BITMAP
02
24
08
1E
E8
10
10
10
0C
ENDCHAR
STARTCHAR 305E
ENCODING 10814
SWIDTH 1200 0
DWIDTH 12 0
BBX 10 9 1 -1
BITMAP
0240
2400
0800
1F00
E800
1000
1000
1000
0E00
ENDCHAR
STARTCHAR 305F
ENCODING 10815
SWIDTH 1200 0
DWIDTH 12 0
BBX 8 9 2 -1
BITMAP
20
20
C0
43
40
40
80
88
87
ENDCHAR
STARTCHAR 3060
ENCODING 10816
SWIDTH 1200 0
DWIDTH 12 0
BBX 10 9 1 -1
BITMAP
0040
2080
F000
2700
4000
4000
4800
4800
8780
ENDCHAR
STARTCHAR 3061
ENCODING 10817
SWIDTH 1200 0
DWIDTH 12 0
BBX 8 9 2 -1
BITMAP
20
24
F8
40
4E
71
01
01
0E
ENDCHAR
STARTCHAR 3062
ENCODING 10818
SWIDTH 1200 0
DWIDTH 12 0
BBX 8 9 2 -1
BITMAP
20
45
F8
40
4E
71
01
03
1C
ENDCHAR
STARTCHAR 3063
ENCODING 10819
SWIDTH 1200 0
DWIDTH 12 0
BBX 6 5 3 -1
BITMAP
18
E4
04
04
18
ENDCHAR
STARTCHAR 3064
ENCODING 10820
SWIDTH 1200 0
DWIDTH 12 0
BBX 10 7 1 0
BITMAP
0F00
F080
0040
0040
0080
0100
0600
ENDCHAR
STARTCHAR 3065
ENCODING 10821
SWIDTH 1200 0
DWIDTH 12 0
BBX 10 9 1 0
BITMAP
0040
0080
0E00
F180
0080
0080
0080
0100
0E00
ENDCHAR
STARTCHAR 3066
ENCODING 10822
SWIDTH 1200 0
DWIDTH 12 0
BBX 8 9 2 -1
BITMAP
0F
F4
08
10
10
10
10
08
06
ENDCHAR
STARTCHAR 3067
ENCODING 10823
SWIDTH 1200 0
DWIDTH 12 0
BBX 10 9 1 -1
BITMAP
0700
FC00
0840
1080
1000
1000
1000
0800
0600
ENDCHAR
STARTCHAR 3068
ENCODING 10824
SWIDTH 1200 0
DWIDTH 12 0
BBX 7 9 2 -1
BITMAP
20
22
24
18
20
40
80
40
3C
ENDCHAR
STARTCHAR 3069
ENCODING 10825
SWIDTH 1200 0
DWIDTH 12 0
BBX 9 10 1 -1
BITMAP
0080
2100
2200
2400
1800
2000
4000
8000
4000
3C00
ENDCHAR
STARTCHAR 306A
ENCODING 10826
SWIDTH 1200 0
DWIDTH 12 0
BBX 9 10 2 -1
BITMAP
2000
4000
E200
4180
8400
8400
0400
1C00
2700
3800
ENDCHAR
STARTCHAR 306B
ENCODING 10827
SWIDTH 1200 0
DWIDTH 12 0
BBX 9 8 1 0
BITMAP
4000
4780
4000
8000
8000
8000
4800
4780
ENDCHAR
STARTCHAR 306C
ENCODING 10828
SWIDTH 1200 0
DWIDTH 12 0
BBX 9 8 1 -1
BITMAP
4800
5F00
6880
B080
9080
9280
A580
4200
ENDCHAR
STARTCHAR 306D
ENCODING 10829
SWIDTH 1200 0
DWIDTH 12 0
BBX 10 9 1 -1
BITMAP
2000
2000
7700
3880
2080
6080
A380
2540
2200
ENDCHAR
STARTCHAR 306E
ENCODING 10830
SWIDTH 1200 0
DWIDTH 12 0
BBX 10 8 1 0
BITMAP
0E00
3580
4880
8840
8840
9040
9080
6100
ENDCHAR
STARTCHAR 306F
ENCODING 10831
SWIDTH 1200 0
DWIDTH 12 0
BBX 9 9 1 -1
BITMAP
4000
4200
8F00
8200
8200
8200
8F00
D180
4E00
ENDCHAR
STARTCHAR 3070
ENCODING 10832
SWIDTH 1200 0
DWIDTH 12 0
BBX 10 10 1 -1
BITMAP
0040
4280
8200
9F00
8200
8200
8200
8F00
9280
0C00
ENDCHAR
STARTCHAR 3071
ENCODING 10833
SWIDTH 1200 0
DWIDTH 12 0
BBX 10 9 1 -1
BITMAP
42C0
82C0
9F00
8200
8200
8200
8E00
D380
0C00
ENDCHAR
STARTCHAR 3072
ENCODING 10834
SWIDTH 1200 0
DWIDTH 12 0
BBX 10 9 1 -1
BITMAP
0200
6100
4280
4240
4200
8200
4200
4400
3800
ENDCHAR
STARTCHAR 3073
ENCODING 10835
SWIDTH 1200 0
DWIDTH 12 0
BBX 10 10 1 -1
BITMAP
0040
2200
E200
4300
8280
8200
8200
8200
4400
3800
ENDCHAR
STARTCHAR 3074
ENCODING 10836
SWIDTH 1200 0
DWIDTH 12 0
BBX 10 9 1 -1
BITMAP
23C0
E2C0
4300
8280
8200
8200
8200
4400
3800
ENDCHAR
STARTCHAR 3075
ENCODING 10837
SWIDTH 1200 0
DWIDTH 12 0
BBX 10 9 1 -1
BITMAP
0800
0400
0000
0000
0800
0480
8440
4200
0400
ENDCHAR
STARTCHAR 3076
ENCODING 10838
SWIDTH 1200 0
DWIDTH 12 0
BBX 10 9 1 -1
BITMAP
0800
0400
0080
0000
0800
0480
8440
4200
0400
ENDCHAR
STARTCHAR 3077
ENCODING 10839
SWIDTH 1200 0
DWIDTH 12 0
BBX 10 9 1 -1
BITMAP
0800
0580
0140
0080
0800
0480
8440
4200
0400
ENDCHAR
STARTCHAR 3078
ENCODING 10840
SWIDTH 1200 0
DWIDTH 12 0
BBX 10 5 1 1
BITMAP
1000
2800
4600
8100
00C0
ENDCHAR
STARTCHAR 3079
ENCODING 10841
SWIDTH 1200 0
DWIDTH 12 0
BBX 10 6 1 1
BITMAP
0080
1100
2800
4600
8100
00C0
ENDCHAR
STARTCHAR 307A
ENCODING 10842
SWIDTH 1200 0
DWIDTH 12 0
BBX 10 6 1 1
BITMAP
01C0
1140
2880
4600
8100
00C0
ENDCHAR
STARTCHAR 307B
ENCODING 10843
SWIDTH 1200 0
DWIDTH 12 0
BBX 10 9 1 -1
BITMAP
4F80
4100
8100
8F00
8100
8100
8700
59C0
4E00
ENDCHAR
STARTCHAR 307C
ENCODING 10844
SWIDTH 1200 0
DWIDTH 12 0
BBX 9 9 1 -1
BITMAP
5F80
8200
8200
9F00
8200
8200
8E00
B380
9C00
ENDCHAR
STARTCHAR 307D
ENCODING 10845
SWIDTH 1200 0
DWIDTH 12 0
BBX 10 9 1 -1
BITMAP
1F80
0340
82C0
9E00
8200
8200
8E00
B380
9C00
ENDCHAR
STARTCHAR 307E
ENCODING 10846
SWIDTH 1200 0
DWIDTH 12 0
BBX 6 9 2 -1
BITMAP
08
08
3C
08
7C
08
08
FC
78
ENDCHAR
STARTCHAR 307F
ENCODING 10847
SWIDTH 1200 0
DWIDTH 12 0
BBX 9 9 1 -1
BITMAP
0800
1800
0800
1100
3900
E700
A280
A200
4400
ENDCHAR
STARTCHAR 3080
ENCODING 10848
SWIDTH 1200 0
DWIDTH 12 0
BBX 10 9 1 -1
BITMAP
1000
7880
1040
7000
9000
9000
6080
2080
1F00
ENDCHAR
STARTCHAR 3081
ENCODING 10849
SWIDTH 1200 0
DWIDTH 12 0
BBX 10 9 1 -1
BITMAP
0200
4400
5F00
2480
6880
9840
9080
6880
0300
ENDCHAR
STARTCHAR 3082
ENCODING 10850
SWIDTH 1200 0
DWIDTH 12 0
BBX 7 9 3 -1
BITMAP
40
40
F0
40
84
C4
82
84
78
ENDCHAR
STARTCHAR 3083
ENCODING 10851
SWIDTH 1200 0
DWIDTH 12 0
BBX 5 4 4 0
BITMAP
38
C8
B0
40
ENDCHAR
STARTCHAR 3084
ENCODING 10852
SWIDTH 1200 0
DWIDTH 12 0
BBX 9 8 2 0
BITMAP
9000
4F00
7080
A080
2700
2000
1000
1000
ENDCHAR
STARTCHAR 3085
ENCODING 10853
SWIDTH 1200 0
DWIDTH 12 0
BBX 7 6 2 -1
BITMAP
40
9C
AA
52
14
18
ENDCHAR
STARTCHAR 3086
ENCODING 10854
SWIDTH 1200 0
DWIDTH 12 0
BBX 10 9 1 -1
BITMAP
4200
4300
4EC0
B240
A240
C240
4A80
4500
0800
ENDCHAR
STARTCHAR 3087
ENCODING 10855
SWIDTH 1200 0
DWIDTH 12 0
BBX 6 6 3 -1
BITMAP
10
14
18
10
78
90
ENDCHAR
STARTCHAR 3088
ENCODING 10856
SWIDTH 1200 0
DWIDTH 12 0
BBX 8 10 2 -1
BITMAP
08
08
0B
0C
08
08
08
7C
8B
70
ENDCHAR
STARTCHAR 3089
ENCODING 10857
SWIDTH 1200 0
DWIDTH 12 0
BBX 7 9 3 -1
BITMAP
40
00
80
80
BC
C2
02
04
18
ENDCHAR
STARTCHAR 308A
ENCODING 10858
SWIDTH 1200 0
DWIDTH 12 0
BBX 6 9 3 -1
BITMAP
40
84
84
84
84
88
08
08
10
ENDCHAR
STARTCHAR 308B
ENCODING 10859
SWIDTH 1200 0
DWIDTH 12 0
BBX 8 9 2 -1
BITMAP
7C
08
10
3E
41
81
39
2A
1C
ENDCHAR
STARTCHAR 308C
ENCODING 10860
SWIDTH 1200 0
DWIDTH 12 0
BBX 10 9 1 -1
BITMAP
2000
2000
7700
3900
2100
6100
A200
A240
2180
ENDCHAR
STARTCHAR 308D
ENCODING 10861
SWIDTH 1200 0
DWIDTH 12 0
BBX 7 9 3 -1
BITMAP
F8
10
20
40
7C
82
02
04
18
ENDCHAR
STARTCHAR 308E
ENCODING 10862
SWIDTH 1200 0
DWIDTH 12 0
BBX 7 6 3 -1
BITMAP
40
60
7C
C2
44
48
ENDCHAR
STARTCHAR 308F
ENCODING 10863
SWIDTH 1200 0
DWIDTH 12 0
BBX 9 10 2 -1
BITMAP
2000
2000
3000
E700
3880
6080
A080
A080
2100
2200
ENDCHAR
STARTCHAR 3090
ENCODING 10864
SWIDTH 1200 0
DWIDTH 12 0
BBX 9 9 1 -1
BITMAP
1C00
0400
0800
1F00
3080
5080
9480
AA80
4700
ENDCHAR
STARTCHAR 3091
ENCODING 10865
SWIDTH 1200 0
DWIDTH 12 0
BBX 8 9 2 -1
BITMAP
3C
18
1E
62
3A
1E
66
B9
10
ENDCHAR
STARTCHAR 3092
ENCODING 10866
SWIDTH 1200 0
DWIDTH 12 0
BBX 8 9 2 -1
BITMAP
10
30
40
7B
8C
30
40
20
1C
ENDCHAR
STARTCHAR 3093
ENCODING 10867
SWIDTH 1200 0
DWIDTH 12 0
BBX 9 9 1 -1
BITMAP
0800
0800
0800
1000
2000
3C00
4400
4480
8300
ENDCHAR
STARTCHAR 30A1
ENCODING 11041
SWIDTH 1200 0
DWIDTH 12 0
BBX 6 6 3 -1
BITMAP
FC
08
30
20
40
40
ENDCHAR
STARTCHAR 30A2
ENCODING 11042
SWIDTH 1200 0
DWIDTH 12 0
BBX 8 8 2 0
BITMAP
FF
01
12
14
10
20
20
C0
ENDCHAR
STARTCHAR 30A3
ENCODING 11043
SWIDTH 1200 0
DWIDTH 12 0
BBX 5 6 4 -1
BITMAP
08
10
60
A0
20
20
ENDCHAR
STARTCHAR 30A4
ENCODING 11044
SWIDTH 1200 0
DWIDTH 12 0
BBX 8 9 2 -1
BITMAP
01
02
0C
18
E8
08
08
08
08
ENDCHAR
STARTCHAR 30A5
ENCODING 11045
SWIDTH 1200 0
DWIDTH 12 0
BBX 6 5 3 -1
BITMAP
FC
84
88
10
20
ENDCHAR
STARTCHAR 30A6
ENCODING 11046
SWIDTH 1200 0
DWIDTH 12 0
BBX 7 9 2 -1
BITMAP
10
FE
82
82
02
02
04
08
10
ENDCHAR
STARTCHAR 30A7
ENCODING 11047
SWIDTH 1200 0
DWIDTH 12 0
BBX 7 5 2 -2
BITMAP
7C
10
10
10
FE
ENDCHAR
STARTCHAR 30A8
ENCODING 11048
SWIDTH 1200 0
DWIDTH 12 0
BBX 9 6 1 1
BITMAP
7F00
0800
0800
0800
0800
FF80
ENDCHAR
STARTCHAR 30A9
ENCODING 11049
SWIDTH 1200 0
DWIDTH 12 0
BBX 6 6 3 -1
BITMAP
10
FC
30
50
90
30
ENDCHAR
STARTCHAR 30AA
ENCODING 11050
SWIDTH 1200 0
DWIDTH 12 0
BBX 9 8 2 0
BITMAP
0400
0400
FF80
0C00
1400
2400
C400
1C00
ENDCHAR
STARTCHAR 30AB
ENCODING 11051
SWIDTH 1200 0
DWIDTH 12 0
BBX 8 9 2 -1
BITMAP
10
10
FF
11
11
22
42
82
0E
ENDCHAR
STARTCHAR 30AC
ENCODING 11052
SWIDTH 1200 0
DWIDTH 12 0
BBX 8 9 2 -1
BITMAP
10
11
FF
11
11
22
42
82
0E
ENDCHAR
STARTCHAR 30AD
ENCODING 11053
SWIDTH 1200 0
DWIDTH 12 0
BBX 8 9 2 -1
BITMAP
10
10
7C
10
13
FC
08
08
08
ENDCHAR
STARTCHAR 30AE
ENCODING 11054
SWIDTH 1200 0
DWIDTH 12 0
BBX 9 8 1 0
BITMAP
1080
1000
7E00
0800
0B00
FC00
0800
0800
ENDCHAR
STARTCHAR 30AF
ENCODING 11055
SWIDTH 1200 0
DWIDTH 12 0
BBX 8 8 2 -1
BITMAP
1F
22
42
04
08
18
20
C0
ENDCHAR
STARTCHAR 30B0
ENCODING 11056
SWIDTH 1200 0
DWIDTH 12 0
BBX 10 10 1 -1
BITMAP
0040
1000
1F00
2200
4200
0400
0800
1000
2000
C000
ENDCHAR
STARTCHAR 30B1
ENCODING 11057
SWIDTH 1200 0
DWIDTH 12 0
BBX 9 8 2 -1
BITMAP
2000
3F80
4400
8400
0800
0800
1000
2000
ENDCHAR
STARTCHAR 30B2
ENCODING 11058
SWIDTH 1200 0
DWIDTH 12 0
BBX 10 10 1 -1
BITMAP
0040
1080
2000
3F80
4400
8400
0400
0800
0800
3000
ENDCHAR
STARTCHAR 30B3
ENCODING 11059
SWIDTH 1200 0
DWIDTH 12 0
BBX 7 7 3 0
BITMAP
FE
02
02
02
02
FE
02
ENDCHAR
STARTCHAR 30B4
ENCODING 11060
SWIDTH 1200 0
DWIDTH 12 0
BBX 9 9 1 0
BITMAP
0080
0080
FE00
0200
0200
0200
0200
FE00
0200
ENDCHAR
STARTCHAR 30B5
ENCODING 11061
SWIDTH 1200 0
DWIDTH 12 0
BBX 8 9 2 -1
BITMAP
24
24
FF
24
24
24
08
08
10
ENDCHAR
STARTCHAR 30B6
ENCODING 11062
SWIDTH 1200 0
DWIDTH 12 0
BBX 10 10 1 -1
BITMAP
0040
2280
2200
FF80
2200
2200
2200
0400
0400
1800
ENDCHAR
STARTCHAR 30B7
ENCODING 11063
SWIDTH 1200 0
DWIDTH 12 0
BBX 8 8 2 0
BITMAP
60
00
00
C1
02
04
08
70
ENDCHAR
STARTCHAR 30B8
ENCODING 11064
SWIDTH 1200 0
DWIDTH 12 0
BBX 8 8 2 0
BITMAP
41
22
00
C1
02
04
08
30
ENDCHAR
STARTCHAR 30B9
ENCODING 11065
SWIDTH 1200 0
DWIDTH 12 0
BBX 8 7 2 0
BITMAP
7E
04
04
08
14
22
C1
ENDCHAR
STARTCHAR 30BA
ENCODING 11066
SWIDTH 1200 0
DWIDTH 12 0
BBX 9 8 1 0
BITMAP
0080
7E00
0200
0400
0400
1A00
2100
C000
ENDCHAR
STARTCHAR 30BB
ENCODING 11067
SWIDTH 1200 0
DWIDTH 12 0
BBX 10 9 1 -1
BITMAP
1000
1000
17C0
F880
1100
1000
1000
1080
0F00
ENDCHAR
STARTCHAR 30BC
ENCODING 11068
SWIDTH 1200 0
DWIDTH 12 0
BBX 11 10 0 -1
BITMAP
0020
1040
1000
17C0
F880
1100
1000
1000
1080
0F00
ENDCHAR
STARTCHAR 30BD
ENCODING 11069
SWIDTH 1200 0
DWIDTH 12 0
BBX 8 9 2 -1
BITMAP
01
82
42
02
04
04
08
10
20
ENDCHAR
STARTCHAR 30BE
ENCODING 11070
SWIDTH 1200 0
DWIDTH 12 0
BBX 9 9 1 -1
BITMAP
0080
8100
4200
0200
0400
0400
0800
1000
2000
ENDCHAR
STARTCHAR 30BF
ENCODING 11071
SWIDTH 1200 0
DWIDTH 12 0
BBX 8 8 2 -1
BITMAP
1F
22
42
0C
08
08
30
C0
ENDCHAR
STARTCHAR 30C0
ENCODING 11072
SWIDTH 1200 0
DWIDTH 12 0
BBX 9 9 1 -1
BITMAP
1080
1F00
2200
4200
0C00
0400
0800
3000
C000
ENDCHAR
STARTCHAR 30C1
ENCODING 11073
SWIDTH 1200 0
DWIDTH 12 0
BBX 10 9 1 -1
BITMAP
0300
1C00
0400
FFC0
0400
0800
0800
1000
2000
ENDCHAR
STARTCHAR 30C2
ENCODING 11074
SWIDTH 1200 0
DWIDTH 12 0
BBX 10 9 1 -1
BITMAP
0640
3880
0800
FF80
0800
0800
1000
1000
6000
ENDCHAR
STARTCHAR 30C3
ENCODING 11075
SWIDTH 1200 0
DWIDTH 12 0
BBX 6 5 3 -1
BITMAP
A4
88
08
10
20
ENDCHAR
STARTCHAR 30C4
ENCODING 11076
SWIDTH 1200 0
DWIDTH 12 0
BBX 8 8 2 -1
BITMAP
10
91
01
02
04
04
08
30
ENDCHAR
STARTCHAR 30C5
ENCODING 11077
SWIDTH 1200 0
DWIDTH 12 0
BBX 10 10 1 -1
BITMAP
00C0
0000
9080
9100
0100
0200
0200
0400
0800
3000
ENDCHAR
STARTCHAR 30C6
ENCODING 11078
SWIDTH 1200 0
DWIDTH 12 0
BBX 8 9 2 -1
BITMAP
7E
00
00
FF
08
08
10
10
60
ENDCHAR
STARTCHAR 30C7
ENCODING 11079
SWIDTH 1200 0
DWIDTH 12 0
BBX 10 9 1 -1
BITMAP
7E40
0080
0000
FF80
0800
0800
0800
1000
6000
ENDCHAR
STARTCHAR 30C8
ENCODING 11080
SWIDTH 1200 0
DWIDTH 12 0
BBX 4 9 4 -1
BITMAP
80
80
80
80
E0
90
80
80
80
ENDCHAR
STARTCHAR 30C9
ENCODING 11081
SWIDTH 1200 0
DWIDTH 12 0
BBX 5 9 3 -1
BITMAP
80
88
80
C0
B0
80
80
80
80
ENDCHAR
STARTCHAR 30CA
ENCODING 11082
SWIDTH 1200 0
DWIDTH 12 0
BBX 10 9 1 -1
BITMAP
0400
0400
FFC0
0400
0800
0800
0800
1000
2000
ENDCHAR
STARTCHAR 30CB
ENCODING 11083
SWIDTH 1200 0
DWIDTH 12 0
BBX 8 6 2 1
BITMAP
7E
00
00
00
00
FF
ENDCHAR
STARTCHAR 30CC
ENCODING 11084
SWIDTH 1200 0
DWIDTH 12 0
BBX 8 9 2 -1
BITMAP
7F
02
02
12
0C
0A
10
20
C0
ENDCHAR
STARTCHAR 30CD
ENCODING 11085
SWIDTH 1200 0
DWIDTH 12 0
BBX 8 9 2 -1
BITMAP
08
7F
02
04
0A
39
C8
08
08
ENDCHAR
STARTCHAR 30CE
ENCODING 11086
SWIDTH 1200 0
DWIDTH 12 0
BBX 7 8 3 0
BITMAP
02
04
08
08
10
20
40
80
ENDCHAR
STARTCHAR 30CF
ENCODING 11087
SWIDTH 1200 0
DWIDTH 12 0
BBX 10 6 1 1
BITMAP
1000
1100
2080
2080
4040
8000
ENDCHAR
STARTCHAR 30D0
ENCODING 11088
SWIDTH 1200 0
DWIDTH 12 0
BBX 10 7 1 1
BITMAP
0040
0000
2200
2100
4080
4080
8080
ENDCHAR
STARTCHAR 30D1
ENCODING 11089
SWIDTH 1200 0
DWIDTH 12 0
BBX 11 7 1 1
BITMAP
00E0
02C0
2200
2100
2100
4080
8080
ENDCHAR
STARTCHAR 30D2
ENCODING 11090
SWIDTH 1200 0
DWIDTH 12 0
BBX 7 7 2 0
BITMAP
82
8C
70
80
80
80
7E
ENDCHAR
STARTCHAR 30D3
ENCODING 11091
SWIDTH 1200 0
DWIDTH 12 0
BBX 8 9 2 0
BITMAP
01
82
8C
B0
C0
80
80
80
FC
ENDCHAR
STARTCHAR 30D4
ENCODING 11092
SWIDTH 1200 0
DWIDTH 12 0
BBX 8 9 2 0
BITMAP
03
83
86
98
E0
80
80
80
7E
ENDCHAR
STARTCHAR 30D5
ENCODING 11093
SWIDTH 1200 0
DWIDTH 12 0
BBX 8 8 2 -1
BITMAP
FF
01
02
02
04
08
10
60
ENDCHAR
STARTCHAR 30D6
ENCODING 11094
SWIDTH 1200 0
DWIDTH 12 0
BBX 9 9 1 -1
BITMAP
0080
FF00
0100
0100
0200
0400
0400
1800
2000
ENDCHAR
STARTCHAR 30D7
ENCODING 11095
SWIDTH 1200 0
DWIDTH 12 0
BBX 10 10 1 -1
BITMAP
01C0
0180
FF00
0100
0200
0200
0400
0800
1000
2000
ENDCHAR
STARTCHAR 30D8
ENCODING 11096
SWIDTH 1200 0
DWIDTH 12 0
BBX 10 5 1 1
BITMAP
1000
2C00
4200
8100
00C0
ENDCHAR
STARTCHAR 30D9
ENCODING 11097
SWIDTH 1200 0
DWIDTH 12 0
BBX 10 7 1 1
BITMAP
0100
0100
1000
2C00
4200
8100
00C0
ENDCHAR
STARTCHAR 30DA
ENCODING 11098
SWIDTH 1200 0
DWIDTH 12 0
BBX 10 7 1 1
BITMAP
0300
0280
1100
2C00
4200
8100
00C0
ENDCHAR
STARTCHAR 30DB
ENCODING 11099
SWIDTH 1200 0
DWIDTH 12 0
BBX 9 9 2 -1
BITMAP
0800
0800
FF80
0800
4800
8900
8900
0800
3000
ENDCHAR
STARTCHAR 30DC
ENCODING 11100
SWIDTH 1200 0
DWIDTH 12 0
BBX 9 9 2 -1
BITMAP
0800
0800
FF80
0800
4800
8900
8900
0800
3000
ENDCHAR
STARTCHAR 30DD
ENCODING 11101
SWIDTH 1200 0
DWIDTH 12 0
BBX 9 10 2 -1
BITMAP
0300
0A80
0900
FF80
0800
4800
8900
8900
0800
3000
ENDCHAR
STARTCHAR 30DE
ENCODING 11102
SWIDTH 1200 0
DWIDTH 12 0
BBX 8 7 2 0
BITMAP
FF
01
02
04
28
10
08
ENDCHAR
STARTCHAR 30DF
ENCODING 11103
SWIDTH 1200 0
DWIDTH 12 0
BBX 4 8 4 0
BITMAP
C0
30
00
C0
20
00
E0
10
ENDCHAR
STARTCHAR 30E0
ENCODING 11104
SWIDTH 1200 0
DWIDTH 12 0
BBX 9 8 1 0
BITMAP
0C00
0800
0800
1000
1000
2100
E180
1E80
ENDCHAR
STARTCHAR 30E1
ENCODING 11105
SWIDTH 1200 0
DWIDTH 12 0
BBX 8 8 2 0
BITMAP
01
02
12
0C
04
1A
20
C0
ENDCHAR
STARTCHAR 30E2
ENCODING 11106
SWIDTH 1200 0
DWIDTH 12 0
BBX 9 7 2 0
BITMAP
7E00
1000
1000
FF80
1000
1000
1F00
ENDCHAR
STARTCHAR 30E3
ENCODING 11107
SWIDTH 1200 0
DWIDTH 12 0
BBX 5 4 4 0
BITMAP
B8
50
40
40
ENDCHAR
STARTCHAR 30E4
ENCODING 11108
SWIDTH 1200 0
DWIDTH 12 0
BBX 8 8 2 0
BITMAP
20
20
3F
E1
22
10
10
10
ENDCHAR
STARTCHAR 30E5
ENCODING 11109
SWIDTH 1200 0
DWIDTH 12 0
BBX 6 5 3 -1
BITMAP
78
08
08
10
FC
ENDCHAR
STARTCHAR 30E6
ENCODING 11110
SWIDTH 1200 0
DWIDTH 12 0
BBX 10 6 1 1
BITMAP
3E00
0200
0200
0200
0200
FFC0
ENDCHAR
STARTCHAR 30E7
ENCODING 11111
SWIDTH 1200 0
DWIDTH 12 0
BBX 5 5 4 -1
BITMAP
F8
08
F8
08
F8
ENDCHAR
STARTCHAR 30E8
ENCODING 11112
SWIDTH 1200 0
DWIDTH 12 0
BBX 7 7 3 0
BITMAP
FE
02
02
FE
02
02
FE
ENDCHAR
STARTCHAR 30E9
ENCODING 11113
SWIDTH 1200 0
DWIDTH 12 0
BBX 8 9 2 -1
BITMAP
7E
00
00
FF
02
02
04
08
30
ENDCHAR
STARTCHAR 30EA
ENCODING 11114
SWIDTH 1200 0
DWIDTH 12 0
BBX 5 9 3 -1
BITMAP
80
88
88
88
88
08
08
10
20
ENDCHAR
STARTCHAR 30EB
ENCODING 11115
SWIDTH 1200 0
DWIDTH 12 0
BBX 10 8 1 0
BITMAP
0400
2400
2400
2400
2440
4480
4700
8000
ENDCHAR
STARTCHAR 30EC
ENCODING 11116
SWIDTH 1200 0
DWIDTH 12 0
BBX 8 8 2 0
BITMAP
80
80
80
81
82
8C
B0
C0
ENDCHAR
STARTCHAR 30ED
ENCODING 11117
SWIDTH 1200 0
DWIDTH 12 0
BBX 6 7 3 0
BITMAP
FC
84
84
84
84
FC
84
ENDCHAR
STARTCHAR 30EE
ENCODING 11118
SWIDTH 1200 0
DWIDTH 12 0
BBX 6 6 3 -1
BITMAP
FC
84
84
08
08
10
ENDCHAR
STARTCHAR 30EF
ENCODING 11119
SWIDTH 1200 0
DWIDTH 12 0
BBX 8 9 2 -1
BITMAP
FF
81
81
81
02
02
02
04
08
ENDCHAR
STARTCHAR 30F0
ENCODING 11120
SWIDTH 1200 0
DWIDTH 12 0
BBX 10 9 1 -1
BITMAP
0200
0200
7F80
2200
2200
FFC0
0200
0200
0200
ENDCHAR
STARTCHAR 30F1
ENCODING 11121
SWIDTH 1200 0
DWIDTH 12 0
BBX 9 7 1 0
BITMAP
3F80
0100
0A00
0800
0800
0800
FF80
ENDCHAR
STARTCHAR 30F2
ENCODING 11122
SWIDTH 1200 0
DWIDTH 12 0
BBX 8 9 2 -1
BITMAP
FF
02
02
FE
04
04
08
10
60
ENDCHAR
STARTCHAR 30F3
ENCODING 11123
SWIDTH 1200 0
DWIDTH 12 0
BBX 8 8 2 0
BITMAP
80
40
00
01
02
0C
30
C0
ENDCHAR
STARTCHAR 30F4
ENCODING 11124
SWIDTH 1200 0
DWIDTH 12 0
BBX 10 9 1 -1
BITMAP
08C0
0800
FF00
8100
8100
0100
0200
0400
0800
ENDCHAR
STARTCHAR 30F5
ENCODING 11125
SWIDTH 1200 0
DWIDTH 12 0
BBX 6 6 3 -2
BITMAP
20
7C
24
24
48
80
ENDCHAR
STARTCHAR 30F6
ENCODING 11126
SWIDTH 1200 0
DWIDTH 12 0
BBX 6 5 3 -1
BITMAP
40
7C
90
10
20
ENDCHAR
STARTCHAR 0410
ENCODING 11297
SWIDTH 1200 0
DWIDTH 12 0
BBX 7 9 2 -1
BITMAP
18
18
28
24
24
3E
42
40
80
ENDCHAR
STARTCHAR 0411
ENCODING 11298
SWIDTH 1200 0
DWIDTH 12 0
BBX 6 8 3 0
BITMAP
F8
80
80
80
FC
84
84
F8
ENDCHAR
STARTCHAR 0412
ENCODING 11299
SWIDTH 1200 0
DWIDTH 12 0
BBX 6 8 3 0
BITMAP
F8
84
88
F0
8C
84
84
F8
ENDCHAR
STARTCHAR 0413
ENCODING 11300
SWIDTH 1200 0
DWIDTH 12 0
BBX 5 9 3 0
BITMAP
F8
80
80
80
80
80
80
80
80
ENDCHAR
STARTCHAR 0414
ENCODING 11301
SWIDTH 1200 0
DWIDTH 12 0
BBX 8 11 2 -2
BITMAP
7E
42
42
42
42
42
42
42
FF
81
81
ENDCHAR
STARTCHAR 0415
ENCODING 11302
SWIDTH 1200 0
DWIDTH 12 0
BBX 6 9 3 0
BITMAP
FC
80
80
80
F8
80
80
80
FC
ENDCHAR
STARTCHAR 0401
ENCODING 11303
SWIDTH 1200 0
DWIDTH 12 0
BBX 6 9 3 0
BITMAP
48
FC
80
80
80
F8
80
80
FC
ENDCHAR
STARTCHAR 0416
ENCODING 11304
SWIDTH 1200 0
DWIDTH 12 0
BBX 9 8 1 0
BITMAP
4900
4900
4A00
3E00
C980
8880
8880
8880
ENDCHAR
STARTCHAR 0417
ENCODING 11305
SWIDTH 1200 0
DWIDTH 12 0
BBX 7 9 2 0
BITMAP
38
44
82
04
1C
02
82
42
3C
ENDCHAR
STARTCHAR 0418
ENCODING 11306
SWIDTH 1200 0
DWIDTH 12 0
BBX 6 8 3 0
BITMAP
84
8C
94
A4
A4
C4
C4
84
ENDCHAR
STARTCHAR 0419
ENCODING 11307
SWIDTH 1200 0
DWIDTH 12 0
BBX 6 9 3 0
BITMAP
78
00
84
9C
94
A4
C4
C4
84
ENDCHAR
STARTCHAR 041A
ENCODING 11308
SWIDTH 1200 0
DWIDTH 12 0
BBX 6 9 3 0
BITMAP
04
88
88
90
F8
84
84
84
84
ENDCHAR
STARTCHAR 041B
ENCODING 11309
SWIDTH 1200 0
DWIDTH 12 0
BBX 8 9 2 0
BITMAP
3F
21
21
21
21
21
21
21
C1
ENDCHAR
STARTCHAR 041C
ENCODING 11310
SWIDTH 1200 0
DWIDTH 12 0
BBX 8 8 2 0
BITMAP
81
C3
C5
A5
A5
A9
99
89
ENDCHAR
STARTCHAR 041D
ENCODING 11311
SWIDTH 1200 0
DWIDTH 12 0
BBX 6 9 3 0
BITMAP
04
84
84
84
FC
84
84
84
84
ENDCHAR
STARTCHAR 041E
ENCODING 11312
SWIDTH 1200 0
DWIDTH 12 0
BBX 8 9 2 0
BITMAP
3C
42
81
81
81
81
81
42
3C
ENDCHAR
STARTCHAR 041F
ENCODING 11313
SWIDTH 1200 0
DWIDTH 12 0
BBX 6 9 3 0
BITMAP
FC
84
84
84
84
84
84
84
84
ENDCHAR
STARTCHAR 0420
ENCODING 11314
SWIDTH 1200 0
DWIDTH 12 0
BBX 6 9 3 0
BITMAP
F8
84
84
84
F8
80
80
80
80
ENDCHAR
STARTCHAR 0421
ENCODING 11315
SWIDTH 1200 0
DWIDTH 12 0
BBX 8 9 2 0
BITMAP
18
66
80
80
80
80
81
42
3C
ENDCHAR
STARTCHAR 0422
ENCODING 11316
SWIDTH 1200 0
DWIDTH 12 0
BBX 7 9 3 0
BITMAP
FE
10
10
10
10
10
10
10
10
ENDCHAR
STARTCHAR 0423
ENCODING 11317
SWIDTH 1200 0
DWIDTH 12 0
BBX 6 9 3 -1
BITMAP
84
84
48
48
50
30
20
20
40
ENDCHAR
STARTCHAR 0424
ENCODING 11318
SWIDTH 1200 0
DWIDTH 12 0
BBX 10 8 1 0
BITMAP
3F00
4980
8840
8840
8840
4880
2B00
1C00
ENDCHAR
STARTCHAR 0425
ENCODING 11319
SWIDTH 1200 0
DWIDTH 12 0
BBX 6 8 3 0
BITMAP
84
48
50
30
30
48
48
84
ENDCHAR
STARTCHAR 0426
ENCODING 11320
SWIDTH 1200 0
DWIDTH 12 0
BBX 8 11 2 -2
BITMAP
02
82
82
82
82
82
82
82
FF
01
01
ENDCHAR
STARTCHAR 0427
ENCODING 11321
SWIDTH 1200 0
DWIDTH 12 0
BBX 6 8 3 0
BITMAP
84
84
84
84
4C
34
04
04
ENDCHAR
STARTCHAR 0428
ENCODING 11322
SWIDTH 1200 0
DWIDTH 12 0
BBX 8 9 2 0
BITMAP
11
91
91
91
91
91
91
91
FF
ENDCHAR
STARTCHAR 0429
ENCODING 11323
SWIDTH 1200 0
DWIDTH 12 0
BBX 10 11 1 -2
BITMAP
0880
8880
8880
8880
8880
8880
8880
8880
FFC0
0040
0040
ENDCHAR
STARTCHAR 042A
ENCODING 11324
SWIDTH 1200 0
DWIDTH 12 0
BBX 8 9 2 0
BITMAP
E0
20
20
20
3E
21
21
21
3E
ENDCHAR
STARTCHAR 042B
ENCODING 11325
SWIDTH 1200 0
DWIDTH 12 0
BBX 8 8 2 0
BITMAP
81
81
81
F9
85
85
85
F9
ENDCHAR
STARTCHAR 042C
ENCODING 11326
SWIDTH 1200 0
DWIDTH 12 0
BBX 6 8 3 0
BITMAP
80
80
80
F8
84
84
84
F8
ENDCHAR
STARTCHAR 042D
ENCODING 11327
SWIDTH 1200 0
DWIDTH 12 0
BBX 8 9 2 0
BITMAP
3C
42
81
01
1F
01
81
42
3C
ENDCHAR
STARTCHAR 042E
ENCODING 11328
SWIDTH 1200 0
DWIDTH 12 0
BBX 10 10 1 -1
BITMAP
8F00
9080
A040
A040
E040
A040
A040
9080
8980
0600
ENDCHAR
STARTCHAR 042F
ENCODING 11329
SWIDTH 1200 0
DWIDTH 12 0
BBX 7 8 2 0
BITMAP
7E
82
82
7E
42
42
42
02
ENDCHAR
STARTCHAR 0430
ENCODING 11345
SWIDTH 1200 0
DWIDTH 12 0
BBX 5 7 3 -1
BITMAP
70
88
08
78
88
D8
20
ENDCHAR
STARTCHAR 0431
ENCODING 11346
SWIDTH 1200 0
DWIDTH 12 0
BBX 6 9 3 0
BITMAP
34
48
80
B8
CC
84
84
84
48
ENDCHAR
STARTCHAR 0432
ENCODING 11347
SWIDTH 1200 0
DWIDTH 12 0
BBX 4 6 4 0
BITMAP
F0
90
F0
90
90
F0
ENDCHAR
STARTCHAR 0433
ENCODING 11348
SWIDTH 1200 0
DWIDTH 12 0
BBX 4 6 4 0
BITMAP
F0
80
80
80
80
80
ENDCHAR
STARTCHAR 0434
ENCODING 11349
SWIDTH 1200 0
DWIDTH 12 0
BBX 6 8 3 -2
BITMAP
7C
44
44
44
44
FC
84
84
ENDCHAR
STARTCHAR 0435
ENCODING 11350
SWIDTH 1200 0
DWIDTH 12 0
BBX 6 6 3 0
BITMAP
78
84
7C
80
44
38
ENDCHAR
STARTCHAR 0451
ENCODING 11351
SWIDTH 1200 0
DWIDTH 12 0
BBX 6 8 3 0
BITMAP
48
00
78
44
7C
80
44
38
ENDCHAR
STARTCHAR 0436
ENCODING 11352
SWIDTH 1200 0
DWIDTH 12 0
BBX 7 6 2 0
BITMAP
92
54
54
BA
92
92
ENDCHAR
STARTCHAR 0437
ENCODING 11353
SWIDTH 1200 0
DWIDTH 12 0
BBX 4 7 4 0
BITMAP
70
90
10
20
10
90
70
ENDCHAR
STARTCHAR 0438
ENCODING 11354
SWIDTH 1200 0
DWIDTH 12 0
BBX 6 6 3 0
BITMAP
84
8C
94
A4
C4
84
ENDCHAR
STARTCHAR 0439
ENCODING 11355
SWIDTH 1200 0
DWIDTH 12 0
BBX 6 8 3 0
BITMAP
48
30
84
8C
94
A4
C4
84
ENDCHAR
STARTCHAR 043A
ENCODING 11356
SWIDTH 1200 0
DWIDTH 12 0
BBX 5 7 4 0
BITMAP
80
98
A0
E0
90
90
80
ENDCHAR
STARTCHAR 043B
ENCODING 11357
SWIDTH 1200 0
DWIDTH 12 0
BBX 6 7 3 -1
BITMAP
7C
44
44
44
44
44
80
ENDCHAR
STARTCHAR 043C
ENCODING 11358
SWIDTH 1200 0
DWIDTH 12 0
BBX 6 6 3 0
BITMAP
84
CC
D4
D4
B4
84
ENDCHAR
STARTCHAR 043D
ENCODING 11359
SWIDTH 1200 0
DWIDTH 12 0
BBX 6 7 3 0
BITMAP
04
84
84
FC
84
84
84
ENDCHAR
STARTCHAR 043E
ENCODING 11360
SWIDTH 1200 0
DWIDTH 12 0
BBX 6 6 3 0
BITMAP
78
84
84
84
88
78
ENDCHAR
STARTCHAR 043F
ENCODING 11361
SWIDTH 1200 0
DWIDTH 12 0
BBX 4 7 4 -1
BITMAP
F0
90
90
90
90
90
80
ENDCHAR
STARTCHAR 0440
ENCODING 11362
SWIDTH 1200 0
DWIDTH 12 0
BBX 6 9 3 -2
BITMAP
B8
CC
84
84
84
88
F0
80
80
ENDCHAR
STARTCHAR 0441
ENCODING 11363
SWIDTH 1200 0
DWIDTH 12 0
BBX 6 7 3 -1
BITMAP
38
C0
80
80
84
48
30
ENDCHAR
STARTCHAR 0442
ENCODING 11364
SWIDTH 1200 0
DWIDTH 12 0
BBX 5 6 3 0
BITMAP
F8
20
20
20
20
20
ENDCHAR
STARTCHAR 0443
ENCODING 11365
SWIDTH 1200 0
DWIDTH 12 0
BBX 6 8 3 -2
BITMAP
84
48
48
50
30
30
20
20
ENDCHAR
STARTCHAR 0444
ENCODING 11366
SWIDTH 1200 0
DWIDTH 12 0
BBX 10 10 1 -2
BITMAP
0400
0400
7F80
4440
8440
8440
4C40
3E80
0500
0400
ENDCHAR
STARTCHAR 0445
ENCODING 11367
SWIDTH 1200 0
DWIDTH 12 0
BBX 4 5 4 1
BITMAP
90
A0
60
60
90
ENDCHAR
STARTCHAR 0446
ENCODING 11368
SWIDTH 1200 0
DWIDTH 12 0
BBX 6 9 3 -2
BITMAP
08
88
88
88
88
88
FC
04
04
ENDCHAR
STARTCHAR 0447
ENCODING 11369
SWIDTH 1200 0
DWIDTH 12 0
BBX 5 6 3 0
BITMAP
08
88
88
78
08
08
ENDCHAR
STARTCHAR 0448
ENCODING 11370
SWIDTH 1200 0
DWIDTH 12 0
BBX 6 7 3 0
BITMAP
14
94
94
94
94
94
FC
ENDCHAR
STARTCHAR 0449
ENCODING 11371
SWIDTH 1200 0
DWIDTH 12 0
BBX 8 9 2 -2
BITMAP
02
92
92
92
92
92
FF
01
01
ENDCHAR
STARTCHAR 044A
ENCODING 11372
SWIDTH 1200 0
DWIDTH 12 0
BBX 7 6 3 0
BITMAP
E0
20
3C
22
22
3C
ENDCHAR
STARTCHAR 044B
ENCODING 11373
SWIDTH 1200 0
DWIDTH 12 0
BBX 6 6 3 0
BITMAP
84
84
E4
94
94
F4
ENDCHAR
STARTCHAR 044C
ENCODING 11374
SWIDTH 1200 0
DWIDTH 12 0
BBX 4 6 4 0
BITMAP
80
80
F0
90
90
A0
ENDCHAR
STARTCHAR 044D
ENCODING 11375
SWIDTH 1200 0
DWIDTH 12 0
BBX 5 6 4 0
BITMAP
F0
08
78
08
98
70
ENDCHAR
STARTCHAR 044E
ENCODING 11376
SWIDTH 1200 0
DWIDTH 12 0
BBX 8 7 2 0
BITMAP
80
9E
A1
E1
A1
A1
96
ENDCHAR
STARTCHAR 044F
ENCODING 11377
SWIDTH 1200 0
DWIDTH 12 0
BBX 5 6 3 0
BITMAP
78
88
88
78
88
08
ENDCHAR
STARTCHAR AC00
ENCODING 12321
SWIDTH 1200 0
DWIDTH 12 0
BBX 11 11 1 -2
BITMAP
0080
F880
0880
0880
0880
10E0
1080
2080
C080
0080
0080
ENDCHAR
STARTCHAR AC01
ENCODING 12322
SWIDTH 1200 0
DWIDTH 12 0
BBX 11 11 1 -2
BITMAP
0080
F880
0880
08E0
1080
2080
C000
7F80
0080
0080
0080
ENDCHAR
STARTCHAR AC04
ENCODING 12323
SWIDTH 1200 0
DWIDTH 12 0
BBX 11 11 1 -2
BITMAP
F880
0880
0880
1080
20E0
4080
8080
4080
4000
4000
7F80
ENDCHAR
STARTCHAR AC07
ENCODING 12324
SWIDTH 1200 0
DWIDTH 12 0
BBX 11 11 1 -2
BITMAP
0080
F880
0880
08E0
1080
2080
C080
7F80
4000
4000
7F80
ENDCHAR
STARTCHAR AC08
ENCODING 12325
SWIDTH 1200 0
DWIDTH 12 0
BBX 11 11 1 -2
BITMAP
F880
0880
1080
10E0
6080
8080
7F80
0080
7F80
4000
7F80
ENDCHAR
STARTCHAR AC09
ENCODING 12326
SWIDTH 1200 0
DWIDTH 12 0
BBX 11 11 1 -2
BITMAP
F880
0880
0880
10E0
6080
0080
7F80
0880
7880
4080
7880
ENDCHAR
STARTCHAR AC0A
ENCODING 12327
SWIDTH 1200 0
DWIDTH 12 0
BBX 11 11 1 -2
BITMAP
0080
F880
1080
10E0
2080
4080
F780
1480
7480
4480
7F80
ENDCHAR
STARTCHAR AC10
ENCODING 12328
SWIDTH 1200 0
DWIDTH 12 0
BBX 11 11 1 -2
BITMAP
F880
0880
0880
10E0
2080
C080
0080
7F80
4080
4080
7F80
ENDCHAR
STARTCHAR AC11
ENCODING 12329
SWIDTH 1200 0
DWIDTH 12 0
BBX 11 11 1 -2
BITMAP
F880
0880
0880
10E0
2080
C080
0000
4080
7F80
4080
7F80
ENDCHAR
STARTCHAR AC12
ENCODING 12330
SWIDTH 1200 0
DWIDTH 12 0
BBX 11 11 1 -2
BITMAP
0080
F880
0880
08E0
1080
6080
8100
4900
7900
4A80
7C40
ENDCHAR
STARTCHAR AC13
ENCODING 12331
SWIDTH 1200 0
DWIDTH 12 0
BBX 11 11 1 -2
BITMAP
F880
0880
0880
1080
10E0
6080
0480
0480
0A00
1100
60C0
ENDCHAR
STARTCHAR AC14
ENCODING 12332
SWIDTH 1200 0
DWIDTH 12 0
BBX 11 11 1 -2
BITMAP
F880
0880
0880
10E0
2080
C080
0000
1100
3180
2A80
C440
ENDCHAR
STARTCHAR AC15
ENCODING 12333
SWIDTH 1200 0
DWIDTH 12 0
BBX 11 11 1 -2
BITMAP
F880
0880
0880
10E0
2080
C080
0000
3F00
4080
6180
3F00
ENDCHAR
STARTCHAR AC16
ENCODING 12334
SWIDTH 1200 0
DWIDTH 12 0
BBX 11 11 1 -2
BITMAP
0080
F880
0880
08E0
1080
2080
C000
FF00
0800
1400
E380
ENDCHAR
STARTCHAR AC17
ENCODING 12335
SWIDTH 1200 0
DWIDTH 12 0
BBX 11 11 1 -2
BITMAP
F880
0880
1080
10E0
6080
1E00
0000
7F80
0800
1600
6180
ENDCHAR
STARTCHAR AC19
ENCODING 12336
SWIDTH 1200 0
DWIDTH 12 0
BBX 11 11 1 -2
BITMAP
0080
F880
0880
08E0
1080
2080
C000
7F80
7F80
4000
7F80
ENDCHAR
STARTCHAR AC1A
ENCODING 12337
SWIDTH 1200 0
DWIDTH 12 0
BBX 11 11 1 -2
BITMAP
0080
F880
0880
08E0
1080
2080
FF80
0000
1200
1200
7F80
ENDCHAR
STARTCHAR AC1B
ENCODING 12338
SWIDTH 1200 0
DWIDTH 12 0
BBX 11 11 1 -2
BITMAP
0080
F880
0880
10E0
1080
2080
CE00
7F80
2100
4080
3F00
ENDCHAR
STARTCHAR AC1C
ENCODING 12339
SWIDTH 1200 0
DWIDTH 12 0
BBX 9 11 2 -2
BITMAP
0480
F480
1480
1480
2480
2780
2480
4480
8480
0480
0480
ENDCHAR
STARTCHAR AC1D
ENCODING 12340
SWIDTH 1200 0
DWIDTH 12 0
BBX 10 11 1 -2
BITMAP
0240
7A40
0A40
13C0
1240
2240
C000
3FC0
0040
0040
0040
ENDCHAR
STARTCHAR AC20
ENCODING 12341
SWIDTH 1200 0
DWIDTH 12 0
BBX 10 11 1 -2
BITMAP
7A40
0A40
0A40
1240
23C0
6240
8240
2240
2000
2000
3FC0
ENDCHAR
STARTCHAR AC24
ENCODING 12342
SWIDTH 1200 0
DWIDTH 12 0
BBX 11 11 1 -2
BITMAP
0240
FA40
0A40
0BC0
1240
2240
C000
3FC0
3FC0
2000
3FE0
ENDCHAR
STARTCHAR AC2C
ENCODING 12343
SWIDTH 1200 0
DWIDTH 12 0
BBX 9 11 2 -2
BITMAP
0080
F480
1480
2480
2780
4480
8480
7F80
4080
4080
7F80
ENDCHAR
STARTCHAR AC2D
ENCODING 12344
SWIDTH 1200 0
DWIDTH 12 0
BBX 10 11 1 -2
BITMAP
0240
7A40
0A40
13C0
1240
2240
C000
2040
3FC0
2040
3FC0
ENDCHAR
STARTCHAR AC2F
ENCODING 12345
SWIDTH 1200 0
DWIDTH 12 0
BBX 10 11 1 -2
BITMAP
F240
1240
1240
1240
13C0
2240
4240
8440
0600
0900
70C0
ENDCHAR
STARTCHAR AC30
ENCODING 12346
SWIDTH 1200 0
DWIDTH 12 0
BBX 9 11 2 -2
BITMAP
F480
1480
1480
2480
4780
8480
0480
1000
3300
5500
8880
ENDCHAR
STARTCHAR AC31
ENCODING 12347
SWIDTH 1200 0
DWIDTH 12 0
BBX 9 11 2 -2
BITMAP
F480
1480
2480
2780
4480
8480
0080
7F00
8080
8080
7F00
ENDCHAR
STARTCHAR AC38
ENCODING 12348
SWIDTH 1200 0
DWIDTH 12 0
BBX 11 11 1 -2
BITMAP
0080
F880
0880
0880
08E0
1080
1080
20E0
C080
0080
0080
ENDCHAR
STARTCHAR AC39
ENCODING 12349
SWIDTH 1200 0
DWIDTH 12 0
BBX 11 11 1 -2
BITMAP
0080
F880
08E0
0880
1080
20E0
C080
7F80
0080
0080
0080
ENDCHAR
STARTCHAR AC3C
ENCODING 12350
SWIDTH 1200 0
DWIDTH 12 0
BBX 11 11 1 -2
BITMAP
0080
F880
08E0
0880
1080
20E0
4080
8080
4000
4000
7F80
ENDCHAR
STARTCHAR AC40
ENCODING 12351
SWIDTH 1200 0
DWIDTH 12 0
BBX 11 11 1 -2
BITMAP
0080
F880
08E0
0880
10E0
6080
FF80
0080
7F80
4000
7F80
ENDCHAR
STARTCHAR AC4B
ENCODING 12352
SWIDTH 1200 0
DWIDTH 12 0
BBX 12 11 0 -2
BITMAP
0040
7C40
0470
0440
0840
1070
6040
8240
0500
0880
3060
ENDCHAR
STARTCHAR AC4D
ENCODING 12353
SWIDTH 1200 0
DWIDTH 12 0
BBX 11 11 1 -2
BITMAP
0080
F880
08E0
0880
1080
20E0
C080
3F00
4080
4080
3F00
ENDCHAR
STARTCHAR AC54
ENCODING 12354
SWIDTH 1200 0
DWIDTH 12 0
BBX 10 11 1 -2
BITMAP
0240
FA40
0A40
0BC0
1240
1240
23C0
2240
C240
0240
0040
ENDCHAR
STARTCHAR AC58
ENCODING 12355
SWIDTH 1200 0
DWIDTH 12 0
BBX 11 11 1 -2
BITMAP
0240
7A40
0A40
0BC0
1240
13C0
2240
C240
2040
2000
3FE0
ENDCHAR
STARTCHAR AC5C
ENCODING 12356
SWIDTH 1200 0
DWIDTH 12 0
BBX 11 11 1 -2
BITMAP
0040
7A40
0BC0
1240
13C0
2240
C000
3FC0
3FC0
2000
3FE0
ENDCHAR
STARTCHAR AC70
ENCODING 12357
SWIDTH 1200 0
DWIDTH 12 0
BBX 10 11 1 -2
BITMAP
0040
7C40
0440
0440
0840
0BC0
1040
1040
2040
C040
0040
ENDCHAR
STARTCHAR AC71
ENCODING 12358
SWIDTH 1200 0
DWIDTH 12 0
BBX 10 11 1 -2
BITMAP
0040
7C40
0440
0BC0
0840
1040
E040
3FC0
0040
0040
0040
ENDCHAR
STARTCHAR AC74
ENCODING 12359
SWIDTH 1200 0
DWIDTH 12 0
BBX 9 11 2 -2
BITMAP
F880
0880
1080
1780
2080
C080
0080
4080
4000
4000
7F80
ENDCHAR
STARTCHAR AC77
ENCODING 12360
SWIDTH 1200 0
DWIDTH 12 0
BBX 10 11 1 -2
BITMAP
7C40
0840
0840
13C0
3040
C040
0040
3FC0
2000
2000
3FC0
ENDCHAR
STARTCHAR AC78
ENCODING 12361
SWIDTH 1200 0
DWIDTH 12 0
BBX 9 11 2 -2
BITMAP
F880
0880
1080
1780
6080
8080
7F80
0080
7F80
4000
7F80
ENDCHAR
STARTCHAR AC7A
ENCODING 12362
SWIDTH 1200 0
DWIDTH 12 0
BBX 10 11 1 -2
BITMAP
0040
7C40
0840
0BC0
1040
2040
C040
7BC0
7A40
4240
7BC0
ENDCHAR
STARTCHAR AC80
ENCODING 12363
SWIDTH 1200 0
DWIDTH 12 0
BBX 9 11 2 -2
BITMAP
0080
F880
0880
1780
1080
2080
C080
7F80
4080
4080
7F80
ENDCHAR
STARTCHAR AC81
ENCODING 12364
SWIDTH 1200 0
DWIDTH 12 0
BBX 10 11 1 -2
BITMAP
0040
7C40
0440
0BC0
0840
1040
E000
2040
3FC0
2040
3FC0
ENDCHAR
STARTCHAR AC83
ENCODING 12365
SWIDTH 1200 0
DWIDTH 12 0
BBX 10 11 1 -2
BITMAP
0040
F840
0840
0BC0
0840
1040
6440
0440
0600
0900
30C0
ENDCHAR
STARTCHAR AC84
ENCODING 12366
SWIDTH 1200 0
DWIDTH 12 0
BBX 10 11 1 -2
BITMAP
0080
F880
0880
0F80
1080
2080
4000
1000
1180
2A80
C640
ENDCHAR
STARTCHAR AC85
ENCODING 12367
SWIDTH 1200 0
DWIDTH 12 0
BBX 10 11 1 -2
BITMAP
7C40
0440
0840
0BC0
1040
E040
3F80
60C0
4040
60C0
3F80
ENDCHAR
STARTCHAR AC86
ENCODING 12368
SWIDTH 1200 0
DWIDTH 12 0
BBX 11 11 1 -2
BITMAP
0040
7C40
0440
0BC0
0840
3040
C000
3FC0
0200
0500
78E0
ENDCHAR
STARTCHAR AC89
ENCODING 12369
SWIDTH 1200 0
DWIDTH 12 0
BBX 10 11 1 -2
BITMAP
7C40
0440
0BC0
0840
3040
C040
3FC0
2000
3FC0
2000
3FC0
ENDCHAR
STARTCHAR AC8A
ENCODING 12370
SWIDTH 1200 0
DWIDTH 12 0
BBX 11 11 1 -2
BITMAP
0040
7C40
0840
0BC0
1040
2040
FF80
0000
1100
1100
FFE0
ENDCHAR
STARTCHAR AC8B
ENCODING 12371
SWIDTH 1200 0
DWIDTH 12 0
BBX 9 11 2 -2
BITMAP
0080
F880
1080
1780
2080
2080
DC80
7F80
2100
4080
7F80
ENDCHAR
STARTCHAR AC8C
ENCODING 12372
SWIDTH 1200 0
DWIDTH 12 0
BBX 10 12 1 -2
BITMAP
0040
0140
F940
1140
1140
1740
1140
2140
2140
4140
8140
0040
ENDCHAR
STARTCHAR AC90
ENCODING 12373
SWIDTH 1200 0
DWIDTH 12 0
BBX 10 11 2 -2
BITMAP
0480
F480
1480
1480
3C80
4480
8480
0480
4000
4000
7FC0
ENDCHAR
STARTCHAR AC94
ENCODING 12374
SWIDTH 1200 0
DWIDTH 12 0
BBX 10 11 2 -2
BITMAP
0480
F480
1480
1C80
2480
4480
FF80
0080
7F80
4000
7FC0
ENDCHAR
STARTCHAR AC9C
ENCODING 12375
SWIDTH 1200 0
DWIDTH 12 0
BBX 10 11 1 -2
BITMAP
0240
7A40
0A40
0E40
1240
2240
C040
3FC0
2040
2040
3FC0
ENDCHAR
STARTCHAR AC9D
ENCODING 12376
SWIDTH 1200 0
DWIDTH 12 0
BBX 9 11 2 -2
BITMAP
0480
F480
1480
1C80
2480
4480
8000
4080
7F80
4080
7F80
ENDCHAR
STARTCHAR AC9F
ENCODING 12377
SWIDTH 1200 0
DWIDTH 12 0
BBX 10 11 1 -2
BITMAP
0240
FA40
0A40
1240
1E40
2240
4240
8040
0600
0900
30C0
ENDCHAR
STARTCHAR ACA0
ENCODING 12378
SWIDTH 1200 0
DWIDTH 12 0
BBX 9 11 2 -2
BITMAP
F080
1480
1480
1C80
2480
C480
0000
2000
2300
5300
8C80
ENDCHAR
STARTCHAR ACA1
ENCODING 12379
SWIDTH 1200 0
DWIDTH 12 0
BBX 10 11 1 -2
BITMAP
0240
7A40
0A40
0E40
1240
2240
4240
BF00
4080
4080
3F00
ENDCHAR
STARTCHAR ACA8
ENCODING 12380
SWIDTH 1200 0
DWIDTH 12 0
BBX 10 11 1 -2
BITMAP
0040
7C40
0440
07C0
0840
0840
0BC0
1040
2040
C040
0040
ENDCHAR
STARTCHAR ACA9
ENCODING 12381
SWIDTH 1200 0
DWIDTH 12 0
BBX 10 11 1 -2
BITMAP
7C40
0440
09C0
0840
11C0
E040
0000
3FC0
0040
0040
0040
ENDCHAR
STARTCHAR ACAA
ENCODING 12382
SWIDTH 1200 0
DWIDTH 12 0
BBX 10 11 1 -2
BITMAP
7C40
0840
0BC0
0840
33C0
C040
0000
7BC0
0840
0840
0840
ENDCHAR
STARTCHAR ACAC
ENCODING 12383
SWIDTH 1200 0
DWIDTH 12 0
BBX 9 11 2 -2
BITMAP
F880
0880
1780
1080
2080
4780
8080
4080
4080
4000
7F80
ENDCHAR
STARTCHAR ACAF
ENCODING 12384
SWIDTH 1200 0
DWIDTH 12 0
BBX 9 11 2 -2
BITMAP
0080
F880
0F80
1080
1780
2080
C080
7F80
4000
4000
7F80
ENDCHAR
STARTCHAR ACB0
ENCODING 12385
SWIDTH 1200 0
DWIDTH 12 0
BBX 9 11 2 -2
BITMAP
F880
0880
1780
1080
6780
8080
7F80
0080
7F80
4000
7F80
ENDCHAR
STARTCHAR ACB8
ENCODING 12386
SWIDTH 1200 0
DWIDTH 12 0
BBX 10 11 1 -2
BITMAP
0040
7C40
07C0
0840
0840
13C0
E040
3FC0
2040
2040
3FC0
ENDCHAR
STARTCHAR ACB9
ENCODING 12387
SWIDTH 1200 0
DWIDTH 12 0
BBX 10 11 1 -2
BITMAP
0040
7C40
07C0
0840
0BC0
1040
E000
2040
3FC0
2040
3FC0
ENDCHAR
STARTCHAR ACBB
ENCODING 12388
SWIDTH 1200 0
DWIDTH 12 0
BBX 9 11 2 -2
BITMAP
F080
1080
1780
1080
2080
C780
0080
0880
0C80
1200
6180
ENDCHAR
STARTCHAR ACBC
ENCODING 12389
SWIDTH 1200 0
DWIDTH 12 0
BBX 10 11 1 -2
BITMAP
0080
7880
0F80
1080
1080
2380
C000
1000
1180
2A80
4440
ENDCHAR
STARTCHAR ACBD
ENCODING 12390
SWIDTH 1200 0
DWIDTH 12 0
BBX 9 11 2 -2
BITMAP
0080
F880
0F80
1080
1780
2080
C080
3F00
C080
8080
7F00
ENDCHAR
STARTCHAR ACC1
ENCODING 12391
SWIDTH 1200 0
DWIDTH 12 0
BBX 9 11 2 -2
BITMAP
F880
1080
1780
1080
6780
8080
7F80
4000
7F80
4000
7F80
ENDCHAR
STARTCHAR ACC4
ENCODING 12392
SWIDTH 1200 0
DWIDTH 12 0
BBX 9 11 2 -2
BITMAP
0080
F280
1280
1E80
1280
2280
2E80
4280
8280
0280
0280
ENDCHAR
STARTCHAR ACC8
ENCODING 12393
SWIDTH 1200 0
DWIDTH 12 0
BBX 10 11 1 -2
BITMAP
0240
F240
1E40
1240
2E40
4240
8240
0240
2000
2000
3FC0
ENDCHAR
STARTCHAR ACCC
ENCODING 12394
SWIDTH 1200 0
DWIDTH 12 0
BBX 10 11 1 -2
BITMAP
0040
F240
1E40
1240
2E40
4240
BFC0
0040
3FC0
2000
3FC0
ENDCHAR
STARTCHAR ACD5
ENCODING 12395
SWIDTH 1200 0
DWIDTH 12 0
BBX 10 11 1 -2
BITMAP
0040
F240
1E40
1240
2E40
4240
8200
2040
3FC0
2040
3FC0
ENDCHAR
STARTCHAR ACD7
ENCODING 12396
SWIDTH 1200 0
DWIDTH 12 0
BBX 10 11 1 -2
BITMAP
0240
F240
1E40
1240
2240
4E40
8240
0040
0600
0900
30C0
ENDCHAR
STARTCHAR ACE0
ENCODING 12397
SWIDTH 1200 0
DWIDTH 12 0
BBX 12 9 0 -1
BITMAP
3FC0
0040
0040
0040
0440
0440
0440
0400
FFF0
ENDCHAR
STARTCHAR ACE1
ENCODING 12398
SWIDTH 1200 0
DWIDTH 12 0
BBX 11 11 0 -2
BITMAP
3FC0
0040
0040
0440
0400
FFE0
0000
3FC0
0040
0040
0040
ENDCHAR
STARTCHAR ACE4
ENCODING 12399
SWIDTH 1200 0
DWIDTH 12 0
BBX 11 10 0 -2
BITMAP
3FC0
0040
0440
0440
FFE0
0000
2000
2000
2000
3FC0
ENDCHAR
STARTCHAR ACE7
ENCODING 12400
SWIDTH 1200 0
DWIDTH 12 0
BBX 11 11 0 -2
BITMAP
3FC0
0040
0040
0440
0400
FFE0
0000
3FC0
2000
2000
3FC0
ENDCHAR
STARTCHAR ACE8
ENCODING 12401
SWIDTH 1200 0
DWIDTH 12 0
BBX 11 11 0 -2
BITMAP
3FC0
0040
0440
0400
FFE0
0000
3FC0
0040
3FC0
2000
3FC0
ENDCHAR
STARTCHAR ACEA
ENCODING 12402
SWIDTH 1200 0
DWIDTH 12 0
BBX 11 11 0 -2
BITMAP
3FC0
0040
0040
0400
0400
FFE0
3FC0
0640
3E40
2240
3FC0
ENDCHAR
STARTCHAR ACEC
ENCODING 12403
SWIDTH 1200 0
DWIDTH 12 0
BBX 11 11 0 -2
BITMAP
3FC0
0040
0440
0440
FFE0
0000
3C80
0480
3D80
2180
3E40
ENDCHAR
STARTCHAR ACEF
ENCODING 12404
SWIDTH 1200 0
DWIDTH 12 0
BBX 11 12 0 -3
BITMAP
3FC0
0040
0440
0440
FFE0
0000
3980
0BC0
3BC0
2240
2FC0
1000
ENDCHAR
STARTCHAR ACF0
ENCODING 12405
SWIDTH 1200 0
DWIDTH 12 0
BBX 11 11 0 -2
BITMAP
3FC0
0040
0040
0440
0400
FFE0
0000
3FC0
2040
2040
3FC0
ENDCHAR
STARTCHAR ACF1
ENCODING 12406
SWIDTH 1200 0
DWIDTH 12 0
BBX 11 11 0 -2
BITMAP
3FC0
0040
0040
0400
0400
FFE0
2000
2040
3FC0
2040
3FC0
ENDCHAR
STARTCHAR ACF3
ENCODING 12407
SWIDTH 1200 0
DWIDTH 12 0
BBX 11 11 0 -2
BITMAP
3FC0
0040
0040
0440
0400
FFE0
0000
0400
0600
0900
30C0
ENDCHAR
STARTCHAR ACF5
ENCODING 12408
SWIDTH 1200 0
DWIDTH 12 0
BBX 11 11 0 -2
BITMAP
3FC0
0040
0040
0440
0400
FFE0
0000
1F80
2040
2040
1F80
ENDCHAR
STARTCHAR ACF6
ENCODING 12409
SWIDTH 1200 0
DWIDTH 12 0
BBX 12 11 0 -2
BITMAP
3FC0
0040
0440
0440
FFF0
0000
0000
3FC0
0400
0A00
31C0
ENDCHAR
STARTCHAR ACFC
ENCODING 12410
SWIDTH 1200 0
DWIDTH 12 0
BBX 12 11 0 -2
BITMAP
0040
7E40
0240
0240
1240
1270
1040
1340
EC40
0040
0040
ENDCHAR
STARTCHAR ACFD
ENCODING 12411
SWIDTH 1200 0
DWIDTH 12 0
BBX 12 11 0 -2
BITMAP
0040
7E40
0240
1240
1270
FF40
0040
3FC0
0040
0040
0040
ENDCHAR
STARTCHAR AD00
ENCODING 12412
SWIDTH 1200 0
DWIDTH 12 0
BBX 12 11 0 -2
BITMAP
0040
7E40
0240
1240
1270
1240
FF40
0040
2000
2000
3FC0
ENDCHAR
STARTCHAR AD04
ENCODING 12413
SWIDTH 1200 0
DWIDTH 12 0
BBX 11 11 1 -2
BITMAP
0080
FC80
2480
24E0
2280
5C80
7F80
0080
7F80
4000
7F80
ENDCHAR
STARTCHAR AD06
ENCODING 12414
SWIDTH 1200 0
DWIDTH 12 0
BBX 12 11 0 -2
BITMAP
0040
7E40
0240
1270
1040
FE40
3BC0
0A40
3A40
2240
3FC0
ENDCHAR
STARTCHAR AD0C
ENCODING 12577
SWIDTH 1200 0
DWIDTH 12 0
BBX 12 11 0 -2
BITMAP
0040
7E40
0240
1270
1040
FE40
0000
3FC0
2040
2040
3FC0
ENDCHAR
STARTCHAR AD0D
ENCODING 12578
SWIDTH 1200 0
DWIDTH 12 0
BBX 12 11 0 -2
BITMAP
0040
7E40
0240
1270
1240
FF40
0000
2040
3FC0
2040
3FC0
ENDCHAR
STARTCHAR AD0F
ENCODING 12579
SWIDTH 1200 0
DWIDTH 12 0
BBX 11 11 1 -2
BITMAP
0080
FC80
0480
24E0
2480
3E80
C080
0480
0C00
1200
6180
ENDCHAR
STARTCHAR AD11
ENCODING 12580
SWIDTH 1200 0
DWIDTH 12 0
BBX 11 11 1 -2
BITMAP
0080
FC80
0480
2480
24E0
FE80
0080
1E80
6180
4080
3F00
ENDCHAR
STARTCHAR AD18
ENCODING 12581
SWIDTH 1200 0
DWIDTH 12 0
BBX 9 11 2 -2
BITMAP
0280
F280
1280
1280
5280
5380
4280
7A80
8280
0280
0280
ENDCHAR
STARTCHAR AD1C
ENCODING 12582
SWIDTH 1200 0
DWIDTH 12 0
BBX 10 11 1 -2
BITMAP
0040
F940
0940
2940
29C0
2140
F940
0140
4040
4000
7FC0
ENDCHAR
STARTCHAR AD20
ENCODING 12583
SWIDTH 1200 0
DWIDTH 12 0
BBX 10 11 1 -2
BITMAP
0040
7940
0940
2940
29C0
FD40
0040
3FC0
7FC0
4000
7FC0
ENDCHAR
STARTCHAR AD29
ENCODING 12584
SWIDTH 1200 0
DWIDTH 12 0
BBX 10 12 1 -3
BITMAP
0140
7940
0940
2940
29C0
FD40
0140
4040
7FC0
4040
7FC0
4000
ENDCHAR
STARTCHAR AD2C
ENCODING 12585
SWIDTH 1200 0
DWIDTH 12 0
BBX 10 11 1 -2
BITMAP
0080
7A80
0A80
2A80
2B80
F280
0280
1100
1100
2A80
4440
ENDCHAR
STARTCHAR AD2D
ENCODING 12586
SWIDTH 1200 0
DWIDTH 12 0
BBX 10 11 1 -2
BITMAP
0140
7940
0940
2940
29C0
FD40
0140
1F40
60C0
4040
3F80
ENDCHAR
STARTCHAR AD34
ENCODING 12587
SWIDTH 1200 0
DWIDTH 12 0
BBX 9 11 2 -2
BITMAP
0080
FC80
0480
0480
2480
2080
2080
7E80
8080
0080
0080
ENDCHAR
STARTCHAR AD35
ENCODING 12588
SWIDTH 1200 0
DWIDTH 12 0
BBX 10 11 1 -2
BITMAP
7E40
0240
0240
1040
1040
FF40
0040
3FC0
0040
0040
0040
ENDCHAR
STARTCHAR AD38
ENCODING 12589
SWIDTH 1200 0
DWIDTH 12 0
BBX 9 11 2 -2
BITMAP
FC80
0480
0480
2480
2080
2680
D880
0080
4080
4000
7F80
ENDCHAR
STARTCHAR AD3C
ENCODING 12590
SWIDTH 1200 0
DWIDTH 12 0
BBX 10 11 1 -2
BITMAP
0040
7E40
1240
1240
1040
FE40
3FC0
0040
3FC0
2000
3FC0
ENDCHAR
STARTCHAR AD44
ENCODING 12591
SWIDTH 1200 0
DWIDTH 12 0
BBX 10 11 1 -2
BITMAP
0040
3E40
1240
1040
1040
FE40
0040
3FC0
2040
2040
3FC0
ENDCHAR
STARTCHAR AD45
ENCODING 12592
SWIDTH 1200 0
DWIDTH 12 0
BBX 10 11 1 -2
BITMAP
0040
7E40
0240
1240
1040
FE40
0000
2040
3FC0
2040
3FC0
ENDCHAR
STARTCHAR AD47
ENCODING 12593
SWIDTH 1200 0
DWIDTH 12 0
BBX 10 11 1 -2
BITMAP
7C80
0480
0480
1080
1080
1080
FE80
0480
0400
0B00
70C0
ENDCHAR
STARTCHAR AD49
ENCODING 12594
SWIDTH 1200 0
DWIDTH 12 0
BBX 10 11 1 -2
BITMAP
7E40
0240
1440
1040
1040
FE40
0040
1F00
60C0
4040
3F80
ENDCHAR
STARTCHAR AD50
ENCODING 12595
SWIDTH 1200 0
DWIDTH 12 0
BBX 12 9 0 -1
BITMAP
3FC0
0040
0040
1140
1140
1140
1140
1100
FFF0
ENDCHAR
STARTCHAR AD54
ENCODING 12596
SWIDTH 1200 0
DWIDTH 12 0
BBX 12 11 0 -2
BITMAP
3FC0
0040
1140
1140
1100
FFF0
0000
2000
2000
2000
3FC0
ENDCHAR
STARTCHAR AD58
ENCODING 12597
SWIDTH 1200 0
DWIDTH 12 0
BBX 12 11 0 -2
BITMAP
3FC0
0040
1140
1140
FFF0
0000
3FC0
0040
3FC0
2000
3FC0
ENDCHAR
STARTCHAR AD61
ENCODING 12598
SWIDTH 1200 0
DWIDTH 12 0
BBX 12 11 0 -2
BITMAP
3FC0
0040
0040
1140
1100
FFF0
0040
2040
3FC0
2040
3FC0
ENDCHAR
STARTCHAR AD63
ENCODING 12599
SWIDTH 1200 0
DWIDTH 12 0
BBX 12 11 0 -2
BITMAP
3FC0
0040
1140
1140
1100
FFF0
0000
0400
0600
0900
70C0
ENDCHAR
STARTCHAR AD6C
ENCODING 12600
SWIDTH 1200 0
DWIDTH 12 0
BBX 11 11 1 -2
BITMAP
7F80
0080
0080
0080
0080
FFE0
0400
0400
0400
0400
0400
ENDCHAR
STARTCHAR AD6D
ENCODING 12601
SWIDTH 1200 0
DWIDTH 12 0
BBX 12 11 0 -2
BITMAP
3FC0
0040
0040
0080
FFF0
0400
0400
7FC0
0040
0040
0040
ENDCHAR
STARTCHAR AD70
ENCODING 12602
SWIDTH 1200 0
DWIDTH 12 0
BBX 11 11 1 -2
BITMAP
7FC0
0040
0080
0080
FFE0
0400
0400
4400
4000
4000
7F80
ENDCHAR
STARTCHAR AD73
ENCODING 12603
SWIDTH 1200 0
DWIDTH 12 0
BBX 11 11 0 -2
BITMAP
7FC0
0040
0080
0080
FFE0
0400
0400
3FC0
2000
2000
3FC0
ENDCHAR
STARTCHAR AD74
ENCODING 12604
SWIDTH 1200 0
DWIDTH 12 0
BBX 11 11 0 -2
BITMAP
3FC0
0040
0040
0080
FFE0
0400
7FC0
0040
3FC0
2000
3FC0
ENDCHAR
STARTCHAR AD75
ENCODING 12605
SWIDTH 1200 0
DWIDTH 12 0
BBX 11 11 0 -2
BITMAP
7FC0
0040
0080
0080
FFE0
0400
3FC0
0440
3C40
2040
3C40
ENDCHAR
STARTCHAR AD76
ENCODING 12606
SWIDTH 1200 0
DWIDTH 12 0
BBX 11 11 1 -2
BITMAP
7FC0
0040
0080
0080
FFE0
0400
7F80
0C80
7C80
4480
7F80
ENDCHAR
STARTCHAR AD7B
ENCODING 12607
SWIDTH 1200 0
DWIDTH 12 0
BBX 11 11 0 -2
BITMAP
7FC0
0040
0080
0080
FFE0
0400
3D80
0F80
3B80
2440
3F80
ENDCHAR
STARTCHAR AD7C
ENCODING 12608
SWIDTH 1200 0
DWIDTH 12 0
BBX 10 11 1 -2
BITMAP
7F80
0080
0080
0080
FFC0
0400
0400
7F80
4080
4080
7F80
ENDCHAR
STARTCHAR AD7D
ENCODING 12609
SWIDTH 1200 0
DWIDTH 12 0
BBX 11 11 1 -2
BITMAP
7FC0
0040
0080
0080
FFE0
0400
0400
4080
7F80
4080
7F80
ENDCHAR
STARTCHAR AD7F
ENCODING 12610
SWIDTH 1200 0
DWIDTH 12 0
BBX 11 11 0 -2
BITMAP
7FC0
0040
0080
0080
FFE0
0400
0400
0000
0600
0900
30C0
ENDCHAR
STARTCHAR AD81
ENCODING 12611
SWIDTH 1200 0
DWIDTH 12 0
BBX 11 11 0 -2
BITMAP
7FC0
0040
0080
0080
FFE0
0400
0700
3880
2040
3040
0F80
ENDCHAR
STARTCHAR AD82
ENCODING 12612
SWIDTH 1200 0
DWIDTH 12 0
BBX 11 11 0 -2
BITMAP
7FC0
0040
0080
FFE0
0400
0400
3FC0
0400
0600
0900
30C0
ENDCHAR
STARTCHAR AD88
ENCODING 12613
SWIDTH 1200 0
DWIDTH 12 0
BBX 10 11 1 -2
BITMAP
0040
FC40
0440
0440
0440
0F40
7040
11C0
1040
1040
1040
ENDCHAR
STARTCHAR AD89
ENCODING 12614
SWIDTH 1200 0
DWIDTH 12 0
BBX 10 11 1 -2
BITMAP
FC40
0440
0440
FF40
1040
11C0
0040
3FC0
0040
0040
0040
ENDCHAR
STARTCHAR AD8C
ENCODING 12615
SWIDTH 1200 0
DWIDTH 12 0
BBX 10 11 1 -2
BITMAP
0040
FC40
0440
0440
FF40
1040
11C0
1040
2040
2000
3FC0
ENDCHAR
STARTCHAR AD90
ENCODING 12616
SWIDTH 1200 0
DWIDTH 12 0
BBX 10 11 1 -2
BITMAP
FC40
0440
0440
FF40
1040
11C0
3FC0
0040
3FC0
2000
3FC0
ENDCHAR
STARTCHAR AD9C
ENCODING 12617
SWIDTH 1200 0
DWIDTH 12 0
BBX 10 11 1 -2
BITMAP
0080
FC80
0480
FF80
1080
1380
0180
1100
1280
2E40
4400
ENDCHAR
STARTCHAR AD9D
ENCODING 12618
SWIDTH 1200 0
DWIDTH 12 0
BBX 10 11 1 -2
BITMAP
0040
FC40
0440
0440
FF40
11C0
1040
3F80
4040
4040
3F80
ENDCHAR
STARTCHAR ADA4
ENCODING 12619
SWIDTH 1200 0
DWIDTH 12 0
BBX 10 11 1 -2
BITMAP
0040
F940
0940
0940
0940
7D40
2140
2740
2140
2140
0140
ENDCHAR
STARTCHAR ADB7
ENCODING 12620
SWIDTH 1200 0
DWIDTH 12 0
BBX 10 11 1 -2
BITMAP
0240
FA40
0A40
0A40
1240
6E40
2240
2440
0600
0900
70C0
ENDCHAR
STARTCHAR ADC0
ENCODING 12621
SWIDTH 1200 0
DWIDTH 12 0
BBX 9 11 2 -2
BITMAP
0080
FC80
0480
0480
0480
FF80
1080
1080
1080
1080
1080
ENDCHAR
STARTCHAR ADC1
ENCODING 12622
SWIDTH 1200 0
DWIDTH 12 0
BBX 9 11 2 -2
BITMAP
0080
FC80
0480
0480
0F80
7080
1080
7F80
0080
0080
0080
ENDCHAR
STARTCHAR ADC4
ENCODING 12623
SWIDTH 1200 0
DWIDTH 12 0
BBX 9 11 2 -2
BITMAP
FC80
0480
0480
0480
FF80
1080
1080
5080
4080
4000
7F80
ENDCHAR
STARTCHAR ADC8
ENCODING 12624
SWIDTH 1200 0
DWIDTH 12 0
BBX 9 11 2 -2
BITMAP
0080
FC80
0480
0480
0F80
7080
1000
7F80
7F80
4000
7F80
ENDCHAR
STARTCHAR ADD0
ENCODING 12625
SWIDTH 1200 0
DWIDTH 12 0
BBX 9 11 2 -2
BITMAP
0080
FC80
0480
0480
0780
7880
1080
7F80
4080
4080
7F80
ENDCHAR
STARTCHAR ADD1
ENCODING 12626
SWIDTH 1200 0
DWIDTH 12 0
BBX 10 11 1 -2
BITMAP
0040
7E40
0240
0240
FFC0
0840
0800
2040
3FC0
2040
3FC0
ENDCHAR
STARTCHAR ADD3
ENCODING 12627
SWIDTH 1200 0
DWIDTH 12 0
BBX 10 11 1 -2
BITMAP
0080
7C80
0480
0480
FE80
1080
1080
1480
0600
0900
30C0
ENDCHAR
STARTCHAR ADDC
ENCODING 12628
SWIDTH 1200 0
DWIDTH 12 0
BBX 12 11 0 -2
BITMAP
7FC0
0040
0040
0040
0040
FFF0
1080
1080
1080
1080
1080
ENDCHAR
STARTCHAR ADE0
ENCODING 12629
SWIDTH 1200 0
DWIDTH 12 0
BBX 11 11 0 -2
BITMAP
3FC0
0040
0040
0080
FFE0
0900
0900
2900
2000
2000
3FC0
ENDCHAR
STARTCHAR ADE4
ENCODING 12630
SWIDTH 1200 0
DWIDTH 12 0
BBX 10 11 1 -2
BITMAP
7F80
0080
0080
0100
FFC0
1200
7F80
0080
7F80
4000
7F80
ENDCHAR
STARTCHAR ADF8
ENCODING 12631
SWIDTH 1200 0
DWIDTH 12 0
BBX 10 9 1 -1
BITMAP
7F80
0080
0080
0080
0080
0080
0100
0100
FFC0
ENDCHAR
STARTCHAR ADF9
ENCODING 12632
SWIDTH 1200 0
DWIDTH 12 0
BBX 10 11 1 -2
BITMAP
7F80
0080
0080
0100
FFC0
0000
7F80
0080
0080
0080
0080
ENDCHAR
STARTCHAR ADFC
ENCODING 12633
SWIDTH 1200 0
DWIDTH 12 0
BBX 10 9 1 -1
BITMAP
7F80
0080
0080
0080
FFC0
4000
4000
4000
7F80
ENDCHAR
STARTCHAR ADFF
ENCODING 12634
SWIDTH 1200 0
DWIDTH 12 0
BBX 10 11 1 -2
BITMAP
7F80
0080
0080
0100
FFC0
0000
0000
7F80
4000
4000
7F80
ENDCHAR
STARTCHAR AE00
ENCODING 12635
SWIDTH 1200 0
DWIDTH 12 0
BBX 10 11 1 -2
BITMAP
7F80
0080
0080
0080
FFC0
0000
7F80
0080
7F80
4000
7F80
ENDCHAR
STARTCHAR AE01
ENCODING 12636
SWIDTH 1200 0
DWIDTH 12 0
BBX 11 12 1 -3
BITMAP
7F80
0080
0080
0080
FFE0
0000
7F80
0880
7880
4080
5880
2000
ENDCHAR
STARTCHAR AE08
ENCODING 12637
SWIDTH 1200 0
DWIDTH 12 0
BBX 10 11 1 -2
BITMAP
7F80
0080
0080
0080
FFC0
0000
0000
7F80
4080
4080
7F80
ENDCHAR
STARTCHAR AE09
ENCODING 12638
SWIDTH 1200 0
DWIDTH 12 0
BBX 10 11 1 -2
BITMAP
7F80
0080
0080
0080
FFC0
4080
4080
7F80
4080
4080
7F80
ENDCHAR
STARTCHAR AE0B
ENCODING 12639
SWIDTH 1200 0
DWIDTH 12 0
BBX 10 11 1 -2
BITMAP
7F80
0080
0080
0080
0100
FFC0
0000
0000
0C00
1200
E1C0
ENDCHAR
STARTCHAR AE0D
ENCODING 12640
SWIDTH 1200 0
DWIDTH 12 0
BBX 10 9 1 -1
BITMAP
7F80
0080
0100
FFC0
0000
3F00
6180
4080
2100
ENDCHAR
STARTCHAR AE14
ENCODING 12641
SWIDTH 1200 0
DWIDTH 12 0
BBX 9 11 2 -2
BITMAP
0080
FC80
0480
0480
0480
0080
0080
1E80
E080
0080
0080
ENDCHAR
STARTCHAR AE30
ENCODING 12642
SWIDTH 1200 0
DWIDTH 12 0
BBX 9 11 2 -2
BITMAP
0080
F880
0880
0880
1080
1080
2080
4080
8080
0080
0080
ENDCHAR
STARTCHAR AE31
ENCODING 12643
SWIDTH 1200 0
DWIDTH 12 0
BBX 10 11 1 -2
BITMAP
0040
7C40
0440
0840
0840
1040
E040
3FC0
0040
0040
0040
ENDCHAR
STARTCHAR AE34
ENCODING 12644
SWIDTH 1200 0
DWIDTH 12 0
BBX 9 11 2 -2
BITMAP
0080
F880
0880
0880
1080
2080
C080
4080
4080
4000
7F80
ENDCHAR
STARTCHAR AE37
ENCODING 12645
SWIDTH 1200 0
DWIDTH 12 0
BBX 9 11 2 -2
BITMAP
0080
F880
0880
1080
1080
2080
C080
7F80
4000
4000
7F80
ENDCHAR
STARTCHAR AE38
ENCODING 12646
SWIDTH 1200 0
DWIDTH 12 0
BBX 9 11 2 -2
BITMAP
F880
0880
1080
1080
6080
8080
7F80
0080
7F80
4000
7F80
ENDCHAR
STARTCHAR AE3A
ENCODING 12647
SWIDTH 1200 0
DWIDTH 12 0
BBX 9 11 2 -2
BITMAP
0080
F880
0880
1080
1080
6080
F780
1480
7480
4480
7F80
ENDCHAR
STARTCHAR AE40
ENCODING 12648
SWIDTH 1200 0
DWIDTH 12 0
BBX 9 11 2 -2
BITMAP
0080
F880
0880
1080
1080
2080
C080
7F80
4080
4080
7F80
ENDCHAR
STARTCHAR AE41
ENCODING 12649
SWIDTH 1200 0
DWIDTH 12 0
BBX 10 11 1 -2
BITMAP
0040
7C40
0440
0840
0840
1040
E000
2040
3FC0
2040
3FC0
ENDCHAR
STARTCHAR AE43
ENCODING 12650
SWIDTH 1200 0
DWIDTH 12 0
BBX 10 11 1 -2
BITMAP
FC80
0880
0880
0880
1080
6080
0080
0480
0A00
1900
60C0
ENDCHAR
STARTCHAR AE45
ENCODING 12651
SWIDTH 1200 0
DWIDTH 12 0
BBX 9 11 2 -2
BITMAP
F880
0880
0880
1080
2080
C080
0080
7F00
8080
8080
7F00
ENDCHAR
STARTCHAR AE46
ENCODING 12652
SWIDTH 1200 0
DWIDTH 12 0
BBX 10 11 1 -2
BITMAP
7C40
0440
0840
0840
3040
C040
0000
3FC0
0400
0A00
71C0
ENDCHAR
STARTCHAR AE4A
ENCODING 12653
SWIDTH 1200 0
DWIDTH 12 0
BBX 10 11 1 -2
BITMAP
0040
7C40
0440
0840
0840
1040
FF80
0000
1100
1100
7FC0
ENDCHAR
STARTCHAR AE4C
ENCODING 12654
SWIDTH 1200 0
DWIDTH 12 0
BBX 11 11 1 -2
BITMAP
0080
EC80
2480
2480
4480
44E0
8880
8880
1080
0080
0080
ENDCHAR
STARTCHAR AE4D
ENCODING 12655
SWIDTH 1200 0
DWIDTH 12 0
BBX 11 11 1 -2
BITMAP
0080
FC80
2480
4480
48E0
8880
1080
7F80
0080
0080
0080
ENDCHAR
STARTCHAR AE4E
ENCODING 12656
SWIDTH 1200 0
DWIDTH 12 0
BBX 10 12 1 -3
BITMAP
0080
EC80
2480
24C0
4880
8880
0000
7F80
0880
0880
0880
0080
ENDCHAR
STARTCHAR AE50
ENCODING 12657
SWIDTH 1200 0
DWIDTH 12 0
BBX 11 11 1 -2
BITMAP
0080
EC80
2480
2480
44E0
8880
0880
1080
4080
4000
7F80
ENDCHAR
STARTCHAR AE54
ENCODING 12658
SWIDTH 1200 0
DWIDTH 12 0
BBX 11 11 1 -2
BITMAP
0080
EC80
2480
44E0
4880
8880
7F80
0080
7F80
4000
7F80
ENDCHAR
STARTCHAR AE56
ENCODING 12659
SWIDTH 1200 0
DWIDTH 12 0
BBX 11 11 1 -2
BITMAP
0080
FC80
2880
48E0
4880
9080
7780
1480
7480
4480
7F80
ENDCHAR
STARTCHAR AE5C
ENCODING 12660
SWIDTH 1200 0
DWIDTH 12 0
BBX 11 11 1 -2
BITMAP
0080
EC80
2480
2480
44E0
8880
0080
7F80
4080
4080
7F80
ENDCHAR
STARTCHAR AE5D
ENCODING 12661
SWIDTH 1200 0
DWIDTH 12 0
BBX 11 11 1 -2
BITMAP
0080
EC80
2480
44E0
4480
8880
1000
4080
7F80
4080
7F80
ENDCHAR
STARTCHAR AE5F
ENCODING 12662
SWIDTH 1200 0
DWIDTH 12 0
BBX 12 11 0 -2
BITMAP
0040
7740
1140
1140
2270
4240
8440
0240
0500
0880
3060
ENDCHAR
STARTCHAR AE60
ENCODING 12663
SWIDTH 1200 0
DWIDTH 12 0
BBX 11 11 1 -2
BITMAP
0080
EC80
2480
2480
44E0
8880
0880
2100
2100
5280
8400
ENDCHAR
STARTCHAR AE61
ENCODING 12664
SWIDTH 1200 0
DWIDTH 12 0
BBX 11 11 1 -2
BITMAP
0080
EC80
2480
2480
44E0
4880
8880
3F00
4080
4080
3700
ENDCHAR
STARTCHAR AE65
ENCODING 12665
SWIDTH 1200 0
DWIDTH 12 0
BBX 11 11 1 -2
BITMAP
0080
EC80
2480
44E0
4880
8880
7F80
4000
7F80
4000
7F80
ENDCHAR
STARTCHAR AE68
ENCODING 12666
SWIDTH 1200 0
DWIDTH 12 0
BBX 10 11 1 -2
BITMAP
0140
6D40
2540
2940
2940
49C0
4940
9140
1140
0140
0140
ENDCHAR
STARTCHAR AE69
ENCODING 12667
SWIDTH 1200 0
DWIDTH 12 0
BBX 10 11 1 -2
BITMAP
0140
6D40
2540
4540
49C0
8940
1140
7FC0
0040
0040
0040
ENDCHAR
STARTCHAR AE6C
ENCODING 12668
SWIDTH 1200 0
DWIDTH 12 0
BBX 10 11 1 -2
BITMAP
0140
6D40
2540
2540
49C0
4940
8140
0140
4000
4000
7FC0
ENDCHAR
STARTCHAR AE70
ENCODING 12669
SWIDTH 1200 0
DWIDTH 12 0
BBX 9 11 2 -2
BITMAP
0280
DA80
4A80
5380
9280
9280
FF80
0080
FF80
8000
FF80
ENDCHAR
STARTCHAR AE78
ENCODING 12670
SWIDTH 1200 0
DWIDTH 12 0
BBX 10 11 1 -2
BITMAP
0140
7D40
2540
2540
49C0
4940
9140
7FC0
4040
4040
7FC0
ENDCHAR
STARTCHAR AE79
ENCODING 12833
SWIDTH 1200 0
DWIDTH 12 0
BBX 10 11 1 -2
BITMAP
0140
CD40
4540
4540
49C0
8940
1140
4040
7FC0
4040
7FC0
ENDCHAR
STARTCHAR AE7B
ENCODING 12834
SWIDTH 1200 0
DWIDTH 12 0
BBX 10 11 1 -2
BITMAP
0140
FD40
2540
2940
49C0
4940
9140
0440
0600
0900
30C0
ENDCHAR
STARTCHAR AE7C
ENCODING 12835
SWIDTH 1200 0
DWIDTH 12 0
BBX 10 11 1 -2
BITMAP
0140
6D40
2540
2540
45C0
4940
8940
1080
1180
2980
4240
ENDCHAR
STARTCHAR AE7D
ENCODING 12836
SWIDTH 1200 0
DWIDTH 12 0
BBX 10 11 1 -2
BITMAP
0140
6D40
2540
2940
49C0
4940
8140
1F00
60C0
4040
3F80
ENDCHAR
STARTCHAR AE84
ENCODING 12837
SWIDTH 1200 0
DWIDTH 12 0
BBX 11 11 1 -2
BITMAP
0080
EC80
2480
24E0
4480
4480
88E0
8880
1080
0080
0080
ENDCHAR
STARTCHAR AE85
ENCODING 12838
SWIDTH 1200 0
DWIDTH 12 0
BBX 11 11 1 -2
BITMAP
0080
EC80
24E0
2480
44E0
8880
0800
7F80
0080
0080
0080
ENDCHAR
STARTCHAR AE8C
ENCODING 12839
SWIDTH 1200 0
DWIDTH 12 0
BBX 11 11 1 -2
BITMAP
0080
EC80
24E0
4480
48E0
8880
1000
7F80
7F80
4000
7F80
ENDCHAR
STARTCHAR AEBC
ENCODING 12840
SWIDTH 1200 0
DWIDTH 12 0
BBX 10 11 1 -2
BITMAP
0040
7E40
1240
2240
25C0
2440
4440
8840
1040
0040
0040
ENDCHAR
STARTCHAR AEBD
ENCODING 12841
SWIDTH 1200 0
DWIDTH 12 0
BBX 10 11 1 -2
BITMAP
0040
6E40
2440
25C0
4440
8840
0040
3FC0
0040
0040
0040
ENDCHAR
STARTCHAR AEBE
ENCODING 12842
SWIDTH 1200 0
DWIDTH 12 0
BBX 9 12 2 -3
BITMAP
0080
DC80
4480
4780
4880
8880
1000
7780
1080
1080
0080
0080
ENDCHAR
STARTCHAR AEC0
ENCODING 12843
SWIDTH 1200 0
DWIDTH 12 0
BBX 10 11 1 -2
BITMAP
0040
7E40
2240
25C0
2440
4440
8840
2040
2000
2000
3FC0
ENDCHAR
STARTCHAR AEC4
ENCODING 12844
SWIDTH 1200 0
DWIDTH 12 0
BBX 9 11 2 -2
BITMAP
0080
DC80
4480
4B80
4880
9080
7F80
0080
7F80
4000
7F80
ENDCHAR
STARTCHAR AECC
ENCODING 12845
SWIDTH 1200 0
DWIDTH 12 0
BBX 9 11 2 -2
BITMAP
0080
FC80
4880
4B80
4880
9080
1080
7F80
4080
4080
7F80
ENDCHAR
STARTCHAR AECD
ENCODING 12846
SWIDTH 1200 0
DWIDTH 12 0
BBX 9 11 2 -2
BITMAP
0080
DC80
4480
4B80
4880
9080
0080
4080
7F80
4080
7F80
ENDCHAR
STARTCHAR AECF
ENCODING 12847
SWIDTH 1200 0
DWIDTH 12 0
BBX 10 11 1 -2
BITMAP
0080
6C80
2480
2380
2480
4880
8880
0400
0400
0B00
30C0
ENDCHAR
STARTCHAR AED0
ENCODING 12848
SWIDTH 1200 0
DWIDTH 12 0
BBX 10 11 1 -2
BITMAP
0080
EC80
2480
2780
4880
8880
1080
1100
1100
2A80
4440
ENDCHAR
STARTCHAR AED1
ENCODING 12849
SWIDTH 1200 0
DWIDTH 12 0
BBX 9 11 2 -2
BITMAP
0080
D880
4880
4B80
4880
9080
1080
7F00
8080
8080
7F00
ENDCHAR
STARTCHAR AED8
ENCODING 12850
SWIDTH 1200 0
DWIDTH 12 0
BBX 10 11 1 -2
BITMAP
0140
6D40
2540
2940
4740
4940
9140
9140
2140
0140
0040
ENDCHAR
STARTCHAR AED9
ENCODING 12851
SWIDTH 1200 0
DWIDTH 12 0
BBX 10 11 1 -2
BITMAP
0040
6D40
2540
2740
4940
8940
1040
7FC0
0040
0040
0040
ENDCHAR
STARTCHAR AEDC
ENCODING 12852
SWIDTH 1200 0
DWIDTH 12 0
BBX 11 11 1 -2
BITMAP
0040
7D40
2540
4740
4940
9140
1140
0140
2040
2000
3FE0
ENDCHAR
STARTCHAR AEE8
ENCODING 12853
SWIDTH 1200 0
DWIDTH 12 0
BBX 10 11 1 -2
BITMAP
0040
7D40
2540
4740
8940
1140
1040
3FC0
2040
2040
3FC0
ENDCHAR
STARTCHAR AEEB
ENCODING 12854
SWIDTH 1200 0
DWIDTH 12 0
BBX 10 12 1 -2
BITMAP
0100
0140
ED40
4540
4740
8940
0940
1040
0400
0A00
0900
70C0
ENDCHAR
STARTCHAR AEED
ENCODING 12855
SWIDTH 1200 0
DWIDTH 12 0
BBX 9 12 2 -2
BITMAP
0200
0280
FA80
4A80
5680
9280
2280
2080
7F00
8080
8080
7F00
ENDCHAR
STARTCHAR AEF4
ENCODING 12856
SWIDTH 1200 0
DWIDTH 12 0
BBX 9 11 1 -2
BITMAP
0080
7E80
2380
2280
2480
2580
4480
8880
1080
0080
0080
ENDCHAR
STARTCHAR AEF8
ENCODING 12857
SWIDTH 1200 0
DWIDTH 12 0
BBX 9 11 2 -2
BITMAP
0080
D880
4B80
4880
4880
9380
1080
0080
4080
4000
7F80
ENDCHAR
STARTCHAR AEFC
ENCODING 12858
SWIDTH 1200 0
DWIDTH 12 0
BBX 9 11 2 -2
BITMAP
0080
DC80
4780
4880
8B80
9080
7F80
0080
7F80
4000
7F80
ENDCHAR
STARTCHAR AF07
ENCODING 12859
SWIDTH 1200 0
DWIDTH 12 0
BBX 10 11 1 -2
BITMAP
0040
6E40
23C0
2240
2440
45C0
8840
0440
0C00
1300
6080
ENDCHAR
STARTCHAR AF08
ENCODING 12860
SWIDTH 1200 0
DWIDTH 12 0
BBX 10 11 1 -2
BITMAP
0080
EC80
2780
2480
4B80
4880
1000
1000
1100
2A80
4440
ENDCHAR
STARTCHAR AF0D
ENCODING 12861
SWIDTH 1200 0
DWIDTH 12 0
BBX 9 11 2 -2
BITMAP
0080
DC80
4B80
4880
4B80
9080
FF00
8000
FF00
8000
FF00
ENDCHAR
STARTCHAR AF10
ENCODING 12862
SWIDTH 1200 0
DWIDTH 12 0
BBX 10 11 1 -2
BITMAP
0140
7D40
2540
2740
4940
4F40
8940
9140
0140
0140
0040
ENDCHAR
STARTCHAR AF2C
ENCODING 12863
SWIDTH 1200 0
DWIDTH 12 0
BBX 11 9 1 -1
BITMAP
7780
1080
1080
2080
2480
2400
0400
0400
FFE0
ENDCHAR
STARTCHAR AF2D
ENCODING 12864
SWIDTH 1200 0
DWIDTH 12 0
BBX 10 11 1 -2
BITMAP
7780
1080
1080
0480
0400
FFC0
0000
7F80
0080
0080
0080
ENDCHAR
STARTCHAR AF30
ENCODING 12865
SWIDTH 1200 0
DWIDTH 12 0
BBX 11 10 1 -2
BITMAP
7780
1080
1480
0480
FFE0
0000
4000
4000
4000
7F80
ENDCHAR
STARTCHAR AF32
ENCODING 12866
SWIDTH 1200 0
DWIDTH 12 0
BBX 11 11 1 -2
BITMAP
7780
1080
1080
0480
0400
FFE0
4700
4F80
4000
4F80
6780
ENDCHAR
STARTCHAR AF34
ENCODING 12867
SWIDTH 1200 0
DWIDTH 12 0
BBX 11 11 1 -2
BITMAP
7780
1080
1480
0480
FFE0
0000
7F80
0080
7F80
4000
7F80
ENDCHAR
STARTCHAR AF3C
ENCODING 12868
SWIDTH 1200 0
DWIDTH 12 0
BBX 11 11 1 -2
BITMAP
7780
1080
1080
0400
0400
FFE0
0000
7F80
4080
4080
7F80
ENDCHAR
STARTCHAR AF3D
ENCODING 12869
SWIDTH 1200 0
DWIDTH 12 0
BBX 11 11 1 -2
BITMAP
7780
1080
1080
0480
0400
FFE0
0000
4080
7F80
4080
7F80
ENDCHAR
STARTCHAR AF3F
ENCODING 12870
SWIDTH 1200 0
DWIDTH 12 0
BBX 11 11 1 -2
BITMAP
7780
1080
1480
0480
0400
FFE0
0000
0000
0C00
1200
6180
ENDCHAR
STARTCHAR AF41
ENCODING 12871
SWIDTH 1200 0
DWIDTH 12 0
BBX 11 11 1 -2
BITMAP
7780
1080
1080
0480
0400
FFE0
0000
3F00
4080
4080
3F00
ENDCHAR
STARTCHAR AF42
ENCODING 12872
SWIDTH 1200 0
DWIDTH 12 0
BBX 10 11 1 -2
BITMAP
7780
1080
1080
0480
0400
FFC0
7F80
0800
0C00
1200
6180
ENDCHAR
STARTCHAR AF43
ENCODING 12873
SWIDTH 1200 0
DWIDTH 12 0
BBX 11 11 1 -2
BITMAP
7780
1080
2480
0480
FFE0
0000
1E00
7F80
0C00
1200
6180
ENDCHAR
STARTCHAR AF48
ENCODING 12874
SWIDTH 1200 0
DWIDTH 12 0
BBX 11 11 1 -2
BITMAP
0080
EE80
2280
2280
5280
12E0
1080
1E80
E080
0080
0080
ENDCHAR
STARTCHAR AF49
ENCODING 12875
SWIDTH 1200 0
DWIDTH 12 0
BBX 10 10 1 -2
BITMAP
EF00
2300
5300
12C0
FE80
0080
7F80
0080
0080
0080
ENDCHAR
STARTCHAR AF50
ENCODING 12876
SWIDTH 1200 0
DWIDTH 12 0
BBX 12 11 0 -2
BITMAP
0040
7640
1240
2A40
0A70
FF40
3FC0
0040
3FC0
2000
3FC0
ENDCHAR
STARTCHAR AF5C
ENCODING 12877
SWIDTH 1200 0
DWIDTH 12 0
BBX 12 11 0 -2
BITMAP
7040
1640
2240
0A40
0870
FF40
0040
0080
1080
2940
4220
ENDCHAR
STARTCHAR AF5D
ENCODING 12878
SWIDTH 1200 0
DWIDTH 12 0
BBX 12 11 0 -2
BITMAP
0040
7640
1240
2A40
0A70
FF40
0040
1F80
2040
2040
1F80
ENDCHAR
STARTCHAR AF64
ENCODING 12879
SWIDTH 1200 0
DWIDTH 12 0
BBX 10 11 1 -2
BITMAP
0140
ED40
4540
4540
4540
51C0
1140
1740
6940
0140
0140
ENDCHAR
STARTCHAR AF65
ENCODING 12880
SWIDTH 1200 0
DWIDTH 12 0
BBX 10 11 1 -2
BITMAP
0040
CD40
4540
5540
51C0
FD40
0140
7FC0
0040
0040
0040
ENDCHAR
STARTCHAR AF79
ENCODING 12881
SWIDTH 1200 0
DWIDTH 12 0
BBX 10 11 1 -2
BITMAP
0040
CD40
4540
5540
51C0
FF40
0140
3FC0
4040
4040
3F80
ENDCHAR
STARTCHAR AF80
ENCODING 12882
SWIDTH 1200 0
DWIDTH 12 0
BBX 9 11 2 -2
BITMAP
0080
DC80
4480
4480
5480
5480
1080
3E80
C080
0080
0080
ENDCHAR
STARTCHAR AF84
ENCODING 12883
SWIDTH 1200 0
DWIDTH 12 0
BBX 10 11 1 -2
BITMAP
0040
6E40
2240
2240
2A40
0840
F640
2040
2040
2000
3FC0
ENDCHAR
STARTCHAR AF88
ENCODING 12884
SWIDTH 1200 0
DWIDTH 12 0
BBX 10 11 1 -2
BITMAP
6E40
2240
2240
2A40
0840
FE40
3FC0
0040
3FC0
2000
3FC0
ENDCHAR
STARTCHAR AF90
ENCODING 12885
SWIDTH 1200 0
DWIDTH 12 0
BBX 9 11 2 -2
BITMAP
0080
DC80
4480
5480
5480
1280
EC80
7F80
4080
4080
7F80
ENDCHAR
STARTCHAR AF91
ENCODING 12886
SWIDTH 1200 0
DWIDTH 12 0
BBX 10 12 1 -3
BITMAP
6E40
2240
2240
2A40
0840
FF40
0000
2040
3FC0
2040
3FC0
2000
ENDCHAR
STARTCHAR AF95
ENCODING 12887
SWIDTH 1200 0
DWIDTH 12 0
BBX 9 11 2 -2
BITMAP
0080
DC80
4480
5480
5480
1080
EE80
7F00
8080
8080
7F00
ENDCHAR
STARTCHAR AF9C
ENCODING 12888
SWIDTH 1200 0
DWIDTH 12 0
BBX 10 9 1 -1
BITMAP
7780
1080
2080
2080
2080
2280
1200
1200
FFC0
ENDCHAR
STARTCHAR AFB8
ENCODING 12889
SWIDTH 1200 0
DWIDTH 12 0
BBX 11 11 0 -2
BITMAP
73C0
1040
1080
1080
1080
FFE0
0400
0400
0400
0400
0400
ENDCHAR
STARTCHAR AFB9
ENCODING 12890
SWIDTH 1200 0
DWIDTH 12 0
BBX 11 11 0 -2
BITMAP
73C0
1040
1080
1080
FFE0
0400
0400
7FC0
0040
0040
0040
ENDCHAR
STARTCHAR AFBC
ENCODING 12891
SWIDTH 1200 0
DWIDTH 12 0
BBX 10 11 1 -2
BITMAP
7780
1080
1080
1100
FFC0
0800
0800
4000
4000
4000
7F80
ENDCHAR
STARTCHAR AFC0
ENCODING 12892
SWIDTH 1200 0
DWIDTH 12 0
BBX 11 11 0 -2
BITMAP
73C0
1040
1040
10C0
FFE0
0400
3FC0
0040
3FC0
2000
3FC0
ENDCHAR
STARTCHAR AFC7
ENCODING 12893
SWIDTH 1200 0
DWIDTH 12 0
BBX 11 12 1 -3
BITMAP
73C0
1040
1080
1080
FFE0
0400
7700
1780
7380
4480
4F80
3000
ENDCHAR
STARTCHAR AFC8
ENCODING 12894
SWIDTH 1200 0
DWIDTH 12 0
BBX 11 11 0 -2
BITMAP
73C0
1040
1040
10C0
FFE0
0400
0400
3FC0
2040
2040
3FC0
ENDCHAR
STARTCHAR AFC9
ENCODING 12895
SWIDTH 1200 0
DWIDTH 12 0
BBX 12 11 0 -2
BITMAP
73C0
1040
1040
1040
FFF0
0400
0400
2040
3FC0
2040
3FC0
ENDCHAR
STARTCHAR AFCB
ENCODING 12896
SWIDTH 1200 0
DWIDTH 12 0
BBX 11 11 0 -2
BITMAP
73C0
1040
1080
1080
FFE0
0400
0400
0000
0600
0900
30C0
ENDCHAR
STARTCHAR AFCD
ENCODING 12897
SWIDTH 1200 0
DWIDTH 12 0
BBX 11 11 1 -2
BITMAP
73C0
1040
1080
1080
FFE0
0400
0400
3F00
4080
4080
3F00
ENDCHAR
STARTCHAR AFCE
ENCODING 12898
SWIDTH 1200 0
DWIDTH 12 0
BBX 11 11 0 -2
BITMAP
73C0
1040
1080
1080
FFE0
0400
0400
3FC0
0400
0A00
31C0
ENDCHAR
STARTCHAR AFD4
ENCODING 12899
SWIDTH 1200 0
DWIDTH 12 0
BBX 9 11 2 -2
BITMAP
0080
EE80
2480
2480
4480
4680
B880
1380
1080
1080
1080
ENDCHAR
STARTCHAR AFDC
ENCODING 12900
SWIDTH 1200 0
DWIDTH 12 0
BBX 9 11 2 -2
BITMAP
0080
EC80
2480
4480
4680
BB80
1000
7F80
7F80
4000
7F80
ENDCHAR
STARTCHAR AFE8
ENCODING 12901
SWIDTH 1200 0
DWIDTH 12 0
BBX 11 11 0 -2
BITMAP
0040
7740
1240
2240
E140
1FC0
0840
0800
08C0
14C0
2320
ENDCHAR
STARTCHAR AFE9
ENCODING 12902
SWIDTH 1200 0
DWIDTH 12 0
BBX 9 11 2 -2
BITMAP
0080
EE80
2480
4480
4280
BF80
1080
7F00
8080
8080
7F00
ENDCHAR
STARTCHAR AFF0
ENCODING 12903
SWIDTH 1200 0
DWIDTH 12 0
BBX 10 11 1 -2
BITMAP
0140
6D40
2540
2540
2540
FF40
1740
1140
1140
1140
0040
ENDCHAR
STARTCHAR AFF1
ENCODING 12904
SWIDTH 1200 0
DWIDTH 12 0
BBX 10 11 1 -2
BITMAP
0140
6D40
2540
2940
C540
3F40
0140
7FC0
0040
0040
0040
ENDCHAR
STARTCHAR AFF4
ENCODING 12905
SWIDTH 1200 0
DWIDTH 12 0
BBX 11 11 1 -2
BITMAP
0040
6D40
2540
2940
4940
F940
1740
1140
2000
2000
3FE0
ENDCHAR
STARTCHAR AFF8
ENCODING 12906
SWIDTH 1200 0
DWIDTH 12 0
BBX 11 11 1 -2
BITMAP
0140
6D40
2540
2540
FD40
1740
0000
3FC0
3FC0
2000
3FE0
ENDCHAR
STARTCHAR B000
ENCODING 12907
SWIDTH 1200 0
DWIDTH 12 0
BBX 9 11 2 -2
BITMAP
0080
DA80
4A80
4A80
7E80
AE80
2080
7F80
4080
4080
7F80
ENDCHAR
STARTCHAR B001
ENCODING 12908
SWIDTH 1200 0
DWIDTH 12 0
BBX 9 11 2 -2
BITMAP
0080
FA80
4A80
4A80
9A80
6E80
2200
4080
7F80
4080
7F80
ENDCHAR
STARTCHAR B004
ENCODING 12909
SWIDTH 1200 0
DWIDTH 12 0
BBX 10 11 1 -2
BITMAP
0040
DA40
4A40
4A40
5240
2E40
2240
1080
1080
2980
4600
ENDCHAR
STARTCHAR B00C
ENCODING 12910
SWIDTH 1200 0
DWIDTH 12 0
BBX 10 11 1 -2
BITMAP
0040
6640
2240
2240
2240
E340
1C40
0840
0840
0840
0840
ENDCHAR
STARTCHAR B010
ENCODING 12911
SWIDTH 1200 0
DWIDTH 12 0
BBX 10 11 1 -2
BITMAP
0040
6640
2240
2240
2240
FF40
0840
0840
2800
2000
3FC0
ENDCHAR
STARTCHAR B014
ENCODING 12912
SWIDTH 1200 0
DWIDTH 12 0
BBX 10 11 1 -2
BITMAP
0040
6640
2240
2340
FF40
0840
0000
3FC0
3FC0
2000
3FC0
ENDCHAR
STARTCHAR B01C
ENCODING 12913
SWIDTH 1200 0
DWIDTH 12 0
BBX 10 11 1 -2
BITMAP
0040
6640
2240
2240
2240
DC40
0840
3FC0
2040
2040
3FC0
ENDCHAR
STARTCHAR B01D
ENCODING 12914
SWIDTH 1200 0
DWIDTH 12 0
BBX 9 11 2 -2
BITMAP
0080
CC80
4480
4480
4680
B880
1000
4080
7F80
4080
7F80
ENDCHAR
STARTCHAR B028
ENCODING 12915
SWIDTH 1200 0
DWIDTH 12 0
BBX 12 11 0 -2
BITMAP
7BE0
0820
0840
1040
1040
FFF0
1080
1080
1080
1080
1080
ENDCHAR
STARTCHAR B044
ENCODING 12916
SWIDTH 1200 0
DWIDTH 12 0
BBX 10 9 1 -1
BITMAP
F780
1080
1080
1080
1080
1080
2100
2100
FFC0
ENDCHAR
STARTCHAR B045
ENCODING 12917
SWIDTH 1200 0
DWIDTH 12 0
BBX 10 11 1 -2
BITMAP
7780
1080
1080
1080
FFC0
0000
0000
7F80
0080
0080
0080
ENDCHAR
STARTCHAR B048
ENCODING 12918
SWIDTH 1200 0
DWIDTH 12 0
BBX 10 9 1 -1
BITMAP
F780
1080
1080
1080
FFC0
4000
4000
4000
7F80
ENDCHAR
STARTCHAR B04A
ENCODING 12919
SWIDTH 1200 0
DWIDTH 12 0
BBX 10 11 1 -2
BITMAP
7780
1080
1080
1080
FFC0
0700
4000
4F80
4F00
4880
7F00
ENDCHAR
STARTCHAR B04C
ENCODING 12920
SWIDTH 1200 0
DWIDTH 12 0
BBX 10 11 1 -2
BITMAP
7780
1080
1080
1100
FFC0
0000
7F80
0080
7F80
4000
7F80
ENDCHAR
STARTCHAR B04E
ENCODING 12921
SWIDTH 1200 0
DWIDTH 12 0
BBX 10 11 1 -2
BITMAP
F780
1080
1080
2080
FFC0
0000
7F80
0C80
7C80
4480
7F80
ENDCHAR
STARTCHAR B053
ENCODING 12922
SWIDTH 1200 0
DWIDTH 12 0
BBX 11 12 0 -3
BITMAP
7BC0
1040
1080
1080
FFE0
0180
3800
0BC0
3BC0
2240
27C0
1800
ENDCHAR
STARTCHAR B054
ENCODING 12923
SWIDTH 1200 0
DWIDTH 12 0
BBX 10 11 1 -2
BITMAP
F780
1080
1080
1080
1100
FFC0
7F80
4080
4080
4080
7F80
ENDCHAR
STARTCHAR B055
ENCODING 12924
SWIDTH 1200 0
DWIDTH 12 0
BBX 10 11 1 -2
BITMAP
F780
1080
1080
1080
FFC0
4080
4080
7F80
4080
4080
7F80
ENDCHAR
STARTCHAR B057
ENCODING 12925
SWIDTH 1200 0
DWIDTH 12 0
BBX 10 10 1 -2
BITMAP
7780
1080
1080
1100
FFC0
0000
0000
0C00
1200
6180
ENDCHAR
STARTCHAR B059
ENCODING 12926
SWIDTH 1200 0
DWIDTH 12 0
BBX 10 11 1 -2
BITMAP
7780
1080
1080
1080
FFC0
0000
3F80
60C0
4040
60C0
3F80
ENDCHAR
STARTCHAR B05D
ENCODING 13089
SWIDTH 1200 0
DWIDTH 12 0
BBX 10 11 1 -2
BITMAP
7780
1080
1080
1100
FFC0
0000
7F80
4000
7F80
4000
7F80
ENDCHAR
STARTCHAR B07C
ENCODING 13090
SWIDTH 1200 0
DWIDTH 12 0
BBX 10 11 1 -2
BITMAP
0040
7E40
1240
2240
2240
2440
4440
8440
0840
0040
0040
ENDCHAR
STARTCHAR B07D
ENCODING 13091
SWIDTH 1200 0
DWIDTH 12 0
BBX 9 11 2 -2
BITMAP
0080
EC80
4480
4480
4880
8880
1080
7F80
0080
0080
0080
ENDCHAR
STARTCHAR B080
ENCODING 13092
SWIDTH 1200 0
DWIDTH 12 0
BBX 10 11 1 -2
BITMAP
0040
7E40
1240
2240
2440
4440
8840
2040
2000
2000
3FC0
ENDCHAR
STARTCHAR B084
ENCODING 13093
SWIDTH 1200 0
DWIDTH 12 0
BBX 9 11 2 -2
BITMAP
0080
FC80
4480
4480
4880
8880
1000
7F80
7F80
4000
7F80
ENDCHAR
STARTCHAR B08C
ENCODING 13094
SWIDTH 1200 0
DWIDTH 12 0
BBX 10 11 1 -2
BITMAP
0040
7E40
1240
2240
2440
4440
8840
3FC0
2040
2040
3FC0
ENDCHAR
STARTCHAR B08D
ENCODING 13095
SWIDTH 1200 0
DWIDTH 12 0
BBX 9 11 2 -2
BITMAP
0080
FC80
4480
4480
4880
9080
0000
4080
7F80
4080
7F80
ENDCHAR
STARTCHAR B08F
ENCODING 13096
SWIDTH 1200 0
DWIDTH 12 0
BBX 10 11 1 -2
BITMAP
0040
6E40
2240
2440
4440
4840
8840
0440
0600
0900
30C0
ENDCHAR
STARTCHAR B091
ENCODING 13097
SWIDTH 1200 0
DWIDTH 12 0
BBX 9 11 2 -2
BITMAP
0080
FC80
2480
4480
4880
8880
1080
3F00
4080
4080
3F00
ENDCHAR
STARTCHAR B098
ENCODING 13098
SWIDTH 1200 0
DWIDTH 12 0
BBX 10 11 1 -2
BITMAP
0100
8100
8100
8100
8100
81C0
8100
FF00
0100
0100
0100
ENDCHAR
STARTCHAR B099
ENCODING 13099
SWIDTH 1200 0
DWIDTH 12 0
BBX 10 11 1 -2
BITMAP
0100
8100
8100
81C0
8100
FD00
0100
FF00
0100
0100
0100
ENDCHAR
STARTCHAR B09A
ENCODING 13100
SWIDTH 1200 0
DWIDTH 12 0
BBX 10 11 1 -2
BITMAP
0100
8100
8100
81C0
8100
FD00
0100
FF00
1100
1100
1100
ENDCHAR
STARTCHAR B09C
ENCODING 13101
SWIDTH 1200 0
DWIDTH 12 0
BBX 10 11 1 -2
BITMAP
0100
8100
8100
8100
81C0
BF00
4100
4100
4100
4000
7F80
ENDCHAR
STARTCHAR B09F
ENCODING 13102
SWIDTH 1200 0
DWIDTH 12 0
BBX 10 11 1 -2
BITMAP
0100
8100
8100
8100
81C0
FD00
0100
7F80
4000
4000
7F80
ENDCHAR
STARTCHAR B0A0
ENCODING 13103
SWIDTH 1200 0
DWIDTH 12 0
BBX 10 11 1 -2
BITMAP
0100
8100
8100
81C0
8300
7D00
7F00
0100
7F00
4000
7F80
ENDCHAR
STARTCHAR B0A1
ENCODING 13104
SWIDTH 1200 0
DWIDTH 12 0
BBX 10 12 1 -3
BITMAP
0100
8100
8100
81C0
8700
7900
7F00
1100
7100
4100
5900
2000
ENDCHAR
STARTCHAR B0A2
ENCODING 13105
SWIDTH 1200 0
DWIDTH 12 0
BBX 10 12 1 -3
BITMAP
0100
8100
8100
81C0
8700
7900
7700
1500
7500
4500
4F00
3000
ENDCHAR
STARTCHAR B0A8
ENCODING 13106
SWIDTH 1200 0
DWIDTH 12 0
BBX 10 11 1 -2
BITMAP
0100
8100
8100
8100
83C0
7D00
0100
7F00
4100
4100
7F00
ENDCHAR
STARTCHAR B0A9
ENCODING 13107
SWIDTH 1200 0
DWIDTH 12 0
BBX 10 11 1 -2
BITMAP
0100
8100
8100
81C0
8700
7900
0000
4100
7F00
4100
7F00
ENDCHAR
STARTCHAR B0AB
ENCODING 13108
SWIDTH 1200 0
DWIDTH 12 0
BBX 10 11 1 -2
BITMAP
0100
8100
8100
8100
81C0
FF00
0100
0100
0C00
1200
6180
ENDCHAR
STARTCHAR B0AC
ENCODING 13109
SWIDTH 1200 0
DWIDTH 12 0
BBX 10 11 1 -2
BITMAP
0100
8100
8100
81C0
8100
FD00
0100
2100
2100
5280
8400
ENDCHAR
STARTCHAR B0AD
ENCODING 13110
SWIDTH 1200 0
DWIDTH 12 0
BBX 10 11 1 -2
BITMAP
0100
8100
8100
81C0
8100
FD00
0100
7F00
8080
8080
7F00
ENDCHAR
STARTCHAR B0AE
ENCODING 13111
SWIDTH 1200 0
DWIDTH 12 0
BBX 10 11 1 -2
BITMAP
0100
8100
8100
81C0
8F00
7100
7F00
0800
0C00
3600
C180
ENDCHAR
STARTCHAR B0AF
ENCODING 13112
SWIDTH 1200 0
DWIDTH 12 0
BBX 10 11 1 -2
BITMAP
8100
8100
8100
81C0
E100
1D00
1C00
0000
7F00
0800
7700
ENDCHAR
STARTCHAR B0B1
ENCODING 13113
SWIDTH 1200 0
DWIDTH 12 0
BBX 10 11 1 -2
BITMAP
0100
8100
8100
81C0
FF00
0100
7F80
4000
7F80
4000
7F80
ENDCHAR
STARTCHAR B0B3
ENCODING 13114
SWIDTH 1200 0
DWIDTH 12 0
BBX 10 11 1 -2
BITMAP
0100
8100
8100
81C0
FD00
1D00
0000
FF80
2100
4080
3F80
ENDCHAR
STARTCHAR B0B4
ENCODING 13115
SWIDTH 1200 0
DWIDTH 12 0
BBX 10 11 1 -2
BITMAP
0240
8240
8240
8240
8240
83C0
8240
9A40
6240
0240
0240
ENDCHAR
STARTCHAR B0B5
ENCODING 13116
SWIDTH 1200 0
DWIDTH 12 0
BBX 10 11 1 -2
BITMAP
0240
8240
8240
8240
83C0
7240
0240
3FC0
0040
0040
0040
ENDCHAR
STARTCHAR B0B8
ENCODING 13117
SWIDTH 1200 0
DWIDTH 12 0
BBX 10 11 1 -2
BITMAP
0040
8240
8240
8240
83C0
FA40
0240
0240
4000
4000
7F80
ENDCHAR
STARTCHAR B0BC
ENCODING 13118
SWIDTH 1200 0
DWIDTH 12 0
BBX 10 11 1 -2
BITMAP
0240
8240
8240
83C0
8A40
7240
3FC0
0040
7FC0
4000
7F80
ENDCHAR
STARTCHAR B0C4
ENCODING 13119
SWIDTH 1200 0
DWIDTH 12 0
BBX 10 11 1 -2
BITMAP
0040
8240
8240
8240
83C0
FA40
0240
7FC0
4040
4040
7FC0
ENDCHAR
STARTCHAR B0C5
ENCODING 13120
SWIDTH 1200 0
DWIDTH 12 0
BBX 10 11 1 -2
BITMAP
0040
8240
8240
8240
8BC0
7240
0240
4040
7FC0
4040
7FC0
ENDCHAR
STARTCHAR B0C7
ENCODING 13121
SWIDTH 1200 0
DWIDTH 12 0
BBX 9 11 1 -2
BITMAP
0480
8480
8480
8480
8780
FC80
0480
0880
0C00
1200
E180
ENDCHAR
STARTCHAR B0C8
ENCODING 13122
SWIDTH 1200 0
DWIDTH 12 0
BBX 10 11 1 -2
BITMAP
0080
8480
8480
8480
8780
F480
0480
1100
1100
2A80
4640
ENDCHAR
STARTCHAR B0C9
ENCODING 13123
SWIDTH 1200 0
DWIDTH 12 0
BBX 10 12 1 -2
BITMAP
0200
0240
8240
8240
83C0
8240
F240
0040
1F00
60C0
4040
3F80
ENDCHAR
STARTCHAR B0D0
ENCODING 13124
SWIDTH 1200 0
DWIDTH 12 0
BBX 10 11 1 -2
BITMAP
0100
8100
8100
81C0
8100
8100
81C0
FD00
0100
0100
0100
ENDCHAR
STARTCHAR B0D1
ENCODING 13125
SWIDTH 1200 0
DWIDTH 12 0
BBX 10 11 1 -2
BITMAP
0100
8100
81C0
8100
FF00
01C0
0100
FF00
0100
0100
0100
ENDCHAR
STARTCHAR B0D4
ENCODING 13126
SWIDTH 1200 0
DWIDTH 12 0
BBX 10 11 1 -2
BITMAP
0100
8100
81C0
8100
8100
FDC0
0100
4100
4000
4000
7F80
ENDCHAR
STARTCHAR B0D8
ENCODING 13127
SWIDTH 1200 0
DWIDTH 12 0
BBX 10 11 1 -2
BITMAP
0100
8100
81C0
8100
BFC0
4100
7F00
0100
7F00
4000
7F80
ENDCHAR
STARTCHAR B0E0
ENCODING 13128
SWIDTH 1200 0
DWIDTH 12 0
BBX 10 11 1 -2
BITMAP
0100
8100
81C0
8100
8300
7DC0
0100
7F00
4100
4100
7F00
ENDCHAR
STARTCHAR B0E5
ENCODING 13129
SWIDTH 1200 0
DWIDTH 12 0
BBX 10 11 1 -2
BITMAP
0100
8100
81C0
8100
8100
FDC0
0100
7F00
C180
8080
4300
ENDCHAR
STARTCHAR B108
ENCODING 13130
SWIDTH 1200 0
DWIDTH 12 0
BBX 9 11 1 -2
BITMAP
0080
8080
8080
8080
8780
8080
8080
BC80
4080
0080
0080
ENDCHAR
STARTCHAR B109
ENCODING 13131
SWIDTH 1200 0
DWIDTH 12 0
BBX 9 11 1 -2
BITMAP
8080
8080
8780
8080
8080
7880
0080
7F80
0080
0080
0080
ENDCHAR
STARTCHAR B10B
ENCODING 13132
SWIDTH 1200 0
DWIDTH 12 0
BBX 10 11 1 -2
BITMAP
8080
8080
8780
8080
9C80
6080
7980
0900
0B00
0CC0
0800
ENDCHAR
STARTCHAR B10C
ENCODING 13133
SWIDTH 1200 0
DWIDTH 12 0
BBX 9 11 1 -2
BITMAP
0080
8080
8080
8780
8080
FC80
0080
0080
4080
4000
7F80
ENDCHAR
STARTCHAR B110
ENCODING 13134
SWIDTH 1200 0
DWIDTH 12 0
BBX 9 11 1 -2
BITMAP
0080
8080
8780
8080
8C80
7080
7F80
0080
7F80
4000
7F80
ENDCHAR
STARTCHAR B112
ENCODING 13135
SWIDTH 1200 0
DWIDTH 12 0
BBX 9 11 1 -2
BITMAP
0080
8080
8780
8080
8C80
7080
7B80
0A80
7A80
4280
3380
ENDCHAR
STARTCHAR B113
ENCODING 13136
SWIDTH 1200 0
DWIDTH 12 0
BBX 9 11 1 -2
BITMAP
0080
8080
8780
8080
B880
4080
7A00
0A80
7B80
4280
7B80
ENDCHAR
STARTCHAR B118
ENCODING 13137
SWIDTH 1200 0
DWIDTH 12 0
BBX 9 11 1 -2
BITMAP
0080
8080
8780
8080
8080
F080
0080
7F80
4080
4080
7F80
ENDCHAR
STARTCHAR B119
ENCODING 13138
SWIDTH 1200 0
DWIDTH 12 0
BBX 9 11 1 -2
BITMAP
0080
8080
8780
8080
8080
F880
4080
4080
7F80
4080
7F80
ENDCHAR
STARTCHAR B11B
ENCODING 13139
SWIDTH 1200 0
DWIDTH 12 0
BBX 9 11 1 -2
BITMAP
8080
8080
8080
8780
8080
9C80
6080
0480
0C00
1B00
6080
ENDCHAR
STARTCHAR B11C
ENCODING 13140
SWIDTH 1200 0
DWIDTH 12 0
BBX 10 11 1 -2
BITMAP
0080
8080
8780
8080
8080
FC80
1000
1100
1100
2A80
C640
ENDCHAR
STARTCHAR B11D
ENCODING 13141
SWIDTH 1200 0
DWIDTH 12 0
BBX 9 11 1 -2
BITMAP
0080
8080
8780
8080
8080
F880
0000
3F00
4080
4080
3F00
ENDCHAR
STARTCHAR B123
ENCODING 13142
SWIDTH 1200 0
DWIDTH 12 0
BBX 9 11 1 -2
BITMAP
0080
8080
8780
8080
F880
0E80
0000
7F80
3F00
4080
3F00
ENDCHAR
STARTCHAR B124
ENCODING 13143
SWIDTH 1200 0
DWIDTH 12 0
BBX 10 11 1 -2
BITMAP
0240
8240
8240
8240
8E40
8240
8240
8240
7240
0240
0240
ENDCHAR
STARTCHAR B125
ENCODING 13144
SWIDTH 1200 0
DWIDTH 12 0
BBX 10 11 1 -2
BITMAP
0240
8240
8240
8E40
8240
F240
0240
3FC0
0040
0040
0040
ENDCHAR
STARTCHAR B128
ENCODING 13145
SWIDTH 1200 0
DWIDTH 12 0
BBX 10 11 1 -2
BITMAP
0240
8240
8240
8E40
8240
8240
7240
4240
4000
4000
7F80
ENDCHAR
STARTCHAR B12C
ENCODING 13146
SWIDTH 1200 0
DWIDTH 12 0
BBX 10 11 1 -2
BITMAP
0040
8240
8E40
8240
8240
E240
0000
7FC0
7FC0
4000
7F80
ENDCHAR
STARTCHAR B134
ENCODING 13147
SWIDTH 1200 0
DWIDTH 12 0
BBX 10 11 1 -2
BITMAP
0040
8240
8240
8E40
8A40
7240
0240
7FC0
4040
4040
7FC0
ENDCHAR
STARTCHAR B135
ENCODING 13148
SWIDTH 1200 0
DWIDTH 12 0
BBX 10 11 1 -2
BITMAP
0040
8240
8E40
8240
8240
E240
0000
4040
7FC0
4040
7FC0
ENDCHAR
STARTCHAR B137
ENCODING 13149
SWIDTH 1200 0
DWIDTH 12 0
BBX 10 11 1 -2
BITMAP
0280
8280
8280
8E80
8280
9280
6280
0480
0C00
1300
60C0
ENDCHAR
STARTCHAR B138
ENCODING 13150
SWIDTH 1200 0
DWIDTH 12 0
BBX 10 11 1 -2
BITMAP
0080
8280
8E80
8280
8280
F280
0080
1100
1100
2A80
C440
ENDCHAR
STARTCHAR B139
ENCODING 13151
SWIDTH 1200 0
DWIDTH 12 0
BBX 10 11 1 -2
BITMAP
0240
8240
8E40
8240
8240
F240
0040
3F80
4040
4040
3F80
ENDCHAR
STARTCHAR B140
ENCODING 13152
SWIDTH 1200 0
DWIDTH 12 0
BBX 9 11 1 -2
BITMAP
0080
8080
8780
8080
8080
8780
8080
8080
7880
0080
0080
ENDCHAR
STARTCHAR B141
ENCODING 13153
SWIDTH 1200 0
DWIDTH 12 0
BBX 9 11 1 -2
BITMAP
0080
8780
8080
8780
8080
F880
0080
7F80
0080
0080
0080
ENDCHAR
STARTCHAR B144
ENCODING 13154
SWIDTH 1200 0
DWIDTH 12 0
BBX 9 11 1 -2
BITMAP
0080
8780
8080
8080
8780
8080
7080
0080
4080
4000
7F80
ENDCHAR
STARTCHAR B148
ENCODING 13155
SWIDTH 1200 0
DWIDTH 12 0
BBX 9 11 1 -2
BITMAP
8080
8780
8080
8780
8880
7080
7F80
0080
7F80
4000
7F80
ENDCHAR
STARTCHAR B150
ENCODING 13156
SWIDTH 1200 0
DWIDTH 12 0
BBX 9 11 1 -2
BITMAP
0080
8780
8080
8080
8780
FC80
0080
7F80
4080
4080
7F80
ENDCHAR
STARTCHAR B151
ENCODING 13157
SWIDTH 1200 0
DWIDTH 12 0
BBX 9 11 1 -2
BITMAP
0080
8780
8080
8780
8080
F080
0000
4080
7F80
4080
7F80
ENDCHAR
STARTCHAR B154
ENCODING 13158
SWIDTH 1200 0
DWIDTH 12 0
BBX 9 11 1 -2
BITMAP
0080
8780
8080
8780
8080
FC80
0000
1100
1100
2A80
C400
ENDCHAR
STARTCHAR B155
ENCODING 13159
SWIDTH 1200 0
DWIDTH 12 0
BBX 9 11 1 -2
BITMAP
0080
8080
8780
8080
8780
8480
7880
3F80
4080
4080
3F00
ENDCHAR
STARTCHAR B158
ENCODING 13160
SWIDTH 1200 0
DWIDTH 12 0
BBX 9 11 1 -2
BITMAP
0080
8780
8080
8780
8080
F880
0000
7F80
0080
7F00
0100
ENDCHAR
STARTCHAR B15C
ENCODING 13161
SWIDTH 1200 0
DWIDTH 12 0
BBX 10 11 1 -2
BITMAP
0040
8240
8240
8E40
8240
8240
8E40
8240
F240
0240
0240
ENDCHAR
STARTCHAR B160
ENCODING 13162
SWIDTH 1200 0
DWIDTH 12 0
BBX 10 11 1 -2
BITMAP
0040
8240
8E40
8240
8E40
8240
7240
4240
4200
4000
7F80
ENDCHAR
STARTCHAR B178
ENCODING 13163
SWIDTH 1200 0
DWIDTH 12 0
BBX 11 9 0 -1
BITMAP
2000
2000
2000
2000
3FC0
0400
0400
0400
FFE0
ENDCHAR
STARTCHAR B179
ENCODING 13164
SWIDTH 1200 0
DWIDTH 12 0
BBX 11 11 1 -2
BITMAP
4000
4000
4000
7FC0
0400
FFE0
0000
7F80
0080
0080
0080
ENDCHAR
STARTCHAR B17C
ENCODING 13165
SWIDTH 1200 0
DWIDTH 12 0
BBX 11 11 0 -2
BITMAP
2000
2000
2000
3FC0
0400
FFE0
0000
2000
2000
2000
3FC0
ENDCHAR
STARTCHAR B180
ENCODING 13166
SWIDTH 1200 0
DWIDTH 12 0
BBX 11 11 0 -2
BITMAP
2000
2000
3FC0
0400
0400
FFE0
3FC0
0040
3FC0
2000
3FC0
ENDCHAR
STARTCHAR B182
ENCODING 13167
SWIDTH 1200 0
DWIDTH 12 0
BBX 11 11 0 -2
BITMAP
2000
2000
3FC0
0400
0400
FFE0
3FC0
0640
3E40
2240
3FC0
ENDCHAR
STARTCHAR B188
ENCODING 13168
SWIDTH 1200 0
DWIDTH 12 0
BBX 11 11 0 -2
BITMAP
2000
2000
3FC0
0400
0400
FFE0
0000
3FC0
2040
2040
3FC0
ENDCHAR
STARTCHAR B189
ENCODING 13169
SWIDTH 1200 0
DWIDTH 12 0
BBX 11 11 0 -2
BITMAP
2000
2000
3FC0
0400
0400
FFE0
0000
2040
3FC0
2040
3FC0
ENDCHAR
STARTCHAR B18B
ENCODING 13170
SWIDTH 1200 0
DWIDTH 12 0
BBX 12 11 0 -2
BITMAP
2000
2000
3FC0
0200
0200
FFF0
0000
0000
0600
0900
30C0
ENDCHAR
STARTCHAR B18D
ENCODING 13171
SWIDTH 1200 0
DWIDTH 12 0
BBX 11 11 0 -2
BITMAP
2000
2000
2000
3FC0
0400
FFE0
0000
1F80
2040
2040
1F80
ENDCHAR
STARTCHAR B192
ENCODING 13172
SWIDTH 1200 0
DWIDTH 12 0
BBX 11 11 0 -2
BITMAP
2000
2000
3FC0
0400
0400
FFE0
0000
3FC0
0100
1100
7FC0
ENDCHAR
STARTCHAR B193
ENCODING 13173
SWIDTH 1200 0
DWIDTH 12 0
BBX 11 11 0 -2
BITMAP
2000
2000
3FC0
0400
FFE0
0000
0F00
3FC0
3F80
2040
1F80
ENDCHAR
STARTCHAR B194
ENCODING 13174
SWIDTH 1200 0
DWIDTH 12 0
BBX 11 11 1 -2
BITMAP
0080
4080
4080
4080
7C80
10E0
1080
1E80
E080
0080
0080
ENDCHAR
STARTCHAR B198
ENCODING 13175
SWIDTH 1200 0
DWIDTH 12 0
BBX 12 11 0 -2
BITMAP
0040
4040
4040
7E40
0870
0840
F640
0040
2040
2000
3FC0
ENDCHAR
STARTCHAR B19C
ENCODING 13176
SWIDTH 1200 0
DWIDTH 12 0
BBX 12 11 0 -2
BITMAP
0040
4040
4040
7F40
0870
0940
FFC0
0040
3FC0
2000
3FC0
ENDCHAR
STARTCHAR B1A8
ENCODING 13177
SWIDTH 1200 0
DWIDTH 12 0
BBX 11 11 1 -2
BITMAP
0080
8080
8080
FCE0
2080
2280
DC00
1100
1100
2A80
C440
ENDCHAR
STARTCHAR B1CC
ENCODING 13178
SWIDTH 1200 0
DWIDTH 12 0
BBX 10 11 1 -2
BITMAP
0040
4040
4040
4040
7E40
0840
0840
FF40
0040
0040
0040
ENDCHAR
STARTCHAR B1D0
ENCODING 13179
SWIDTH 1200 0
DWIDTH 12 0
BBX 9 11 2 -2
BITMAP
8080
8080
8080
FC80
1080
1080
EE80
0080
4000
4000
7F80
ENDCHAR
STARTCHAR B1D4
ENCODING 13180
SWIDTH 1200 0
DWIDTH 12 0
BBX 10 11 1 -2
BITMAP
0040
4040
4040
7E40
0840
FFC0
0000
3FC0
3FC0
2000
3FC0
ENDCHAR
STARTCHAR B1DC
ENCODING 13181
SWIDTH 1200 0
DWIDTH 12 0
BBX 10 11 1 -2
BITMAP
0040
4040
4040
7F40
0840
08C0
F740
3FC0
2040
2040
3FC0
ENDCHAR
STARTCHAR B1DD
ENCODING 13182
SWIDTH 1200 0
DWIDTH 12 0
BBX 10 11 1 -2
BITMAP
0040
4040
4040
7E40
0840
FFC0
0000
2040
3FC0
2040
3FC0
ENDCHAR
STARTCHAR B1DF
ENCODING 13345
SWIDTH 1200 0
DWIDTH 12 0
BBX 10 11 1 -2
BITMAP
4040
4040
4040
7C40
1040
1F40
E040
0440
0400
0B00
3080
ENDCHAR
STARTCHAR B1E8
ENCODING 13346
SWIDTH 1200 0
DWIDTH 12 0
BBX 10 9 1 -1
BITMAP
4000
4000
4000
4000
7F80
0200
1200
1200
FFC0
ENDCHAR
STARTCHAR B1E9
ENCODING 13347
SWIDTH 1200 0
DWIDTH 12 0
BBX 10 11 1 -2
BITMAP
4000
4000
7F80
1200
1200
FFC0
0000
7F80
0080
0080
0080
ENDCHAR
STARTCHAR B1EC
ENCODING 13348
SWIDTH 1200 0
DWIDTH 12 0
BBX 10 11 1 -2
BITMAP
4000
4000
4000
7F80
1200
FFC0
0000
4000
4000
4000
7F80
ENDCHAR
STARTCHAR B1F0
ENCODING 13349
SWIDTH 1200 0
DWIDTH 12 0
BBX 10 11 1 -2
BITMAP
4000
4000
4000
7F80
1200
FFC0
7F80
0080
7F80
4000
7F80
ENDCHAR
STARTCHAR B1F9
ENCODING 13350
SWIDTH 1200 0
DWIDTH 12 0
BBX 10 11 1 -2
BITMAP
4000
4000
7F80
0000
1200
FFC0
0000
4080
7F80
4080
7F80
ENDCHAR
STARTCHAR B1FB
ENCODING 13351
SWIDTH 1200 0
DWIDTH 12 0
BBX 10 11 1 -2
BITMAP
4000
4000
4000
7F80
1200
1200
FFC0
0400
0C00
1200
6180
ENDCHAR
STARTCHAR B1FD
ENCODING 13352
SWIDTH 1200 0
DWIDTH 12 0
BBX 10 11 1 -2
BITMAP
4000
4000
7F80
1200
1200
FFC0
0000
0000
7F80
4080
3F00
ENDCHAR
STARTCHAR B204
ENCODING 13353
SWIDTH 1200 0
DWIDTH 12 0
BBX 11 11 0 -2
BITMAP
2000
2000
2000
3FC0
0000
FFE0
0400
0400
0400
0400
0400
ENDCHAR
STARTCHAR B205
ENCODING 13354
SWIDTH 1200 0
DWIDTH 12 0
BBX 11 11 1 -2
BITMAP
4000
4000
7F80
0000
0000
FFE0
0400
7F80
0080
0080
0080
ENDCHAR
STARTCHAR B208
ENCODING 13355
SWIDTH 1200 0
DWIDTH 12 0
BBX 11 11 0 -2
BITMAP
2000
2000
2000
3FC0
0000
FFE0
0400
0400
2400
2000
3FC0
ENDCHAR
STARTCHAR B20B
ENCODING 13356
SWIDTH 1200 0
DWIDTH 12 0
BBX 11 11 0 -2
BITMAP
2000
2000
3FC0
0000
FFE0
0400
0400
3FC0
2000
2000
3FC0
ENDCHAR
STARTCHAR B20C
ENCODING 13357
SWIDTH 1200 0
DWIDTH 12 0
BBX 11 11 0 -2
BITMAP
2000
2000
2000
3FC0
FFE0
0400
3FC0
0040
3FC0
2000
3FC0
ENDCHAR
STARTCHAR B214
ENCODING 13358
SWIDTH 1200 0
DWIDTH 12 0
BBX 11 11 0 -2
BITMAP
2000
2000
2000
3FC0
0000
FFE0
0400
3FC0
2040
2040
3FC0
ENDCHAR
STARTCHAR B215
ENCODING 13359
SWIDTH 1200 0
DWIDTH 12 0
BBX 11 11 0 -2
BITMAP
2000
2000
3FC0
0000
0000
FFE0
0400
2440
3FC0
2040
3FC0
ENDCHAR
STARTCHAR B217
ENCODING 13360
SWIDTH 1200 0
DWIDTH 12 0
BBX 11 11 0 -2
BITMAP
2000
2000
2000
3FC0
0000
FFE0
0400
0000
0400
0A00
31C0
ENDCHAR
STARTCHAR B219
ENCODING 13361
SWIDTH 1200 0
DWIDTH 12 0
BBX 11 11 0 -2
BITMAP
2000
2000
2000
3FC0
0000
FFE0
0400
1F80
2040
2040
1F80
ENDCHAR
STARTCHAR B220
ENCODING 13362
SWIDTH 1200 0
DWIDTH 12 0
BBX 10 11 1 -2
BITMAP
4040
4040
4040
7E40
0040
FF40
0840
0BC0
0840
0840
0040
ENDCHAR
STARTCHAR B234
ENCODING 13363
SWIDTH 1200 0
DWIDTH 12 0
BBX 11 11 0 -2
BITMAP
0020
2020
2020
3F20
0020
FF20
09E0
0840
0840
14C0
2120
ENDCHAR
STARTCHAR B23C
ENCODING 13364
SWIDTH 1200 0
DWIDTH 12 0
BBX 10 11 1 -2
BITMAP
0140
4140
4140
4140
7D40
0140
F940
1740
1140
1140
0040
ENDCHAR
STARTCHAR B258
ENCODING 13365
SWIDTH 1200 0
DWIDTH 12 0
BBX 10 11 1 -2
BITMAP
4040
4040
4040
7E40
0040
0040
FF40
0840
0840
0840
0840
ENDCHAR
STARTCHAR B25C
ENCODING 13366
SWIDTH 1200 0
DWIDTH 12 0
BBX 10 11 1 -2
BITMAP
0040
4040
4040
7E40
0040
FF40
0840
0840
2040
2000
3FC0
ENDCHAR
STARTCHAR B260
ENCODING 13367
SWIDTH 1200 0
DWIDTH 12 0
BBX 10 11 1 -2
BITMAP
4040
4040
7E40
0040
FF40
0840
3FC0
0040
3FC0
2000
3FC0
ENDCHAR
STARTCHAR B268
ENCODING 13368
SWIDTH 1200 0
DWIDTH 12 0
BBX 10 11 1 -2
BITMAP
0040
4040
4040
7E40
0040
FF40
0840
3FC0
2040
2040
3FC0
ENDCHAR
STARTCHAR B269
ENCODING 13369
SWIDTH 1200 0
DWIDTH 12 0
BBX 10 11 1 -2
BITMAP
0040
4040
4040
7E40
0040
FF40
0800
2840
3FC0
2040
3FC0
ENDCHAR
STARTCHAR B274
ENCODING 13370
SWIDTH 1200 0
DWIDTH 12 0
BBX 12 11 0 -2
BITMAP
2000
2000
2000
3FC0
0000
FFF0
1080
1080
1080
1080
1080
ENDCHAR
STARTCHAR B275
ENCODING 13371
SWIDTH 1200 0
DWIDTH 12 0
BBX 10 11 1 -2
BITMAP
4000
4000
7F80
0000
0000
FFC0
1200
7F80
0080
0080
0080
ENDCHAR
STARTCHAR B27C
ENCODING 13372
SWIDTH 1200 0
DWIDTH 12 0
BBX 10 11 1 -2
BITMAP
4000
4000
4000
7F80
FFC0
1200
7F80
0080
7F80
4000
7F80
ENDCHAR
STARTCHAR B284
ENCODING 13373
SWIDTH 1200 0
DWIDTH 12 0
BBX 10 11 1 -2
BITMAP
4000
4000
7F80
0000
0000
FFC0
1200
7F80
4080
4080
7F80
ENDCHAR
STARTCHAR B285
ENCODING 13374
SWIDTH 1200 0
DWIDTH 12 0
BBX 10 11 1 -2
BITMAP
4000
4000
7F80
0000
FFC0
1200
1200
4080
7F80
4080
7F80
ENDCHAR
STARTCHAR B289
ENCODING 13375
SWIDTH 1200 0
DWIDTH 12 0
BBX 10 11 1 -2
BITMAP
4000
4000
4000
7F80
0000
FFC0
1200
2E00
4180
4080
3F00
ENDCHAR
STARTCHAR B290
ENCODING 13376
SWIDTH 1200 0
DWIDTH 12 0
BBX 10 9 1 -1
BITMAP
4000
4000
4000
4000
7F80
0000
0000
0000
FFC0
ENDCHAR
STARTCHAR B291
ENCODING 13377
SWIDTH 1200 0
DWIDTH 12 0
BBX 10 11 1 -2
BITMAP
4000
4000
4000
7F80
0000
FFC0
0000
7F80
0080
0080
0080
ENDCHAR
STARTCHAR B294
ENCODING 13378
SWIDTH 1200 0
DWIDTH 12 0
BBX 10 11 1 -2
BITMAP
4000
4000
4000
7F80
0000
FFC0
0000
4000
4000
4000
7F80
ENDCHAR
STARTCHAR B298
ENCODING 13379
SWIDTH 1200 0
DWIDTH 12 0
BBX 10 11 1 -2
BITMAP
4000
4000
4000
7F80
0000
FFC0
0000
7F80
7F80
4000
7F80
ENDCHAR
STARTCHAR B299
ENCODING 13380
SWIDTH 1200 0
DWIDTH 12 0
BBX 10 11 1 -2
BITMAP
4000
4000
4000
7F80
0000
FFC0
7F80
0880
7880
4080
7880
ENDCHAR
STARTCHAR B29A
ENCODING 13381
SWIDTH 1200 0
DWIDTH 12 0
BBX 10 11 1 -2
BITMAP
4000
4000
7F80
0000
0000
FFC0
7F80
0C80
7C80
4480
7F80
ENDCHAR
STARTCHAR B2A0
ENCODING 13382
SWIDTH 1200 0
DWIDTH 12 0
BBX 10 11 1 -2
BITMAP
4000
4000
4000
7F80
0000
FFC0
0000
7F80
4080
4080
7F80
ENDCHAR
STARTCHAR B2A1
ENCODING 13383
SWIDTH 1200 0
DWIDTH 12 0
BBX 10 11 1 -2
BITMAP
4000
4000
4000
7F80
0000
FFC0
0000
4080
7F80
4080
7F80
ENDCHAR
STARTCHAR B2A3
ENCODING 13384
SWIDTH 1200 0
DWIDTH 12 0
BBX 10 11 1 -2
BITMAP
4000
4000
7F80
0000
0000
FFC0
0000
0000
0C00
1200
6180
ENDCHAR
STARTCHAR B2A5
ENCODING 13385
SWIDTH 1200 0
DWIDTH 12 0
BBX 10 11 1 -2
BITMAP
4000
4000
4000
7F80
0000
FFC0
0000
3F00
4080
4080
3F00
ENDCHAR
STARTCHAR B2A6
ENCODING 13386
SWIDTH 1200 0
DWIDTH 12 0
BBX 10 11 1 -2
BITMAP
4000
4000
4000
7F80
0000
FFC0
0000
7F80
0800
0C00
7380
ENDCHAR
STARTCHAR B2AA
ENCODING 13387
SWIDTH 1200 0
DWIDTH 12 0
BBX 10 11 1 -2
BITMAP
4000
4000
4000
7F80
0000
FFC0
0000
7F80
1000
1200
7FC0
ENDCHAR
STARTCHAR B2AC
ENCODING 13388
SWIDTH 1200 0
DWIDTH 12 0
BBX 9 10 2 -1
BITMAP
8080
8080
8080
FC80
0080
0080
3E80
C080
0080
0080
ENDCHAR
STARTCHAR B2B0
ENCODING 13389
SWIDTH 1200 0
DWIDTH 12 0
BBX 10 11 1 -2
BITMAP
4040
4040
4040
7E40
0040
0040
FF40
0040
2000
2000
3FC0
ENDCHAR
STARTCHAR B2B4
ENCODING 13390
SWIDTH 1200 0
DWIDTH 12 0
BBX 10 11 1 -2
BITMAP
0040
4040
4040
7E40
0040
FE40
3FC0
0040
3FC0
2000
3FC0
ENDCHAR
STARTCHAR B2C8
ENCODING 13391
SWIDTH 1200 0
DWIDTH 12 0
BBX 9 11 1 -2
BITMAP
0080
8080
8080
8080
8080
8080
8080
FC80
0080
0080
0080
ENDCHAR
STARTCHAR B2C9
ENCODING 13392
SWIDTH 1200 0
DWIDTH 12 0
BBX 9 11 1 -2
BITMAP
0080
8080
8080
8080
8080
FC80
0000
7F80
0080
0080
0080
ENDCHAR
STARTCHAR B2CC
ENCODING 13393
SWIDTH 1200 0
DWIDTH 12 0
BBX 9 11 1 -2
BITMAP
0080
8080
8080
8080
8080
FC80
0080
4080
4000
4000
7F80
ENDCHAR
STARTCHAR B2D0
ENCODING 13394
SWIDTH 1200 0
DWIDTH 12 0
BBX 9 11 1 -2
BITMAP
0080
8080
8080
8080
8680
7880
7F80
0080
7F80
4000
7F80
ENDCHAR
STARTCHAR B2D2
ENCODING 13395
SWIDTH 1200 0
DWIDTH 12 0
BBX 9 11 1 -2
BITMAP
0080
8080
8080
8080
8680
7880
7B80
0A80
7A80
4280
7B80
ENDCHAR
STARTCHAR B2D8
ENCODING 13396
SWIDTH 1200 0
DWIDTH 12 0
BBX 9 11 1 -2
BITMAP
0080
8080
8080
8080
8280
7C80
0000
7F80
4080
4080
7F80
ENDCHAR
STARTCHAR B2D9
ENCODING 13397
SWIDTH 1200 0
DWIDTH 12 0
BBX 9 11 1 -2
BITMAP
0080
8080
8080
8080
8080
FC80
0080
4080
7F80
4080
7F80
ENDCHAR
STARTCHAR B2DB
ENCODING 13398
SWIDTH 1200 0
DWIDTH 12 0
BBX 9 11 1 -2
BITMAP
0080
8080
8080
8080
8080
FC80
0080
0480
0400
0A00
7180
ENDCHAR
STARTCHAR B2DD
ENCODING 13399
SWIDTH 1200 0
DWIDTH 12 0
BBX 9 11 1 -2
BITMAP
0080
8080
8080
8080
8080
FC80
0080
3F00
4080
4080
3F00
ENDCHAR
STARTCHAR B2E2
ENCODING 13400
SWIDTH 1200 0
DWIDTH 12 0
BBX 10 11 1 -2
BITMAP
0080
8080
8080
8080
8280
7C80
0000
7F80
1000
1200
7FC0
ENDCHAR
STARTCHAR B2E4
ENCODING 13401
SWIDTH 1200 0
DWIDTH 12 0
BBX 10 11 1 -2
BITMAP
0100
FD00
8100
8100
8100
81C0
8100
8100
FD00
0100
0100
ENDCHAR
STARTCHAR B2E5
ENCODING 13402
SWIDTH 1200 0
DWIDTH 12 0
BBX 10 11 1 -2
BITMAP
0100
F900
8100
81C0
8100
BF00
4100
FF00
0100
0100
0100
ENDCHAR
STARTCHAR B2E6
ENCODING 13403
SWIDTH 1200 0
DWIDTH 12 0
BBX 10 11 1 -2
BITMAP
0100
F900
8100
81C0
8100
FD00
FF00
1100
1100
1100
1100
ENDCHAR
STARTCHAR B2E8
ENCODING 13404
SWIDTH 1200 0
DWIDTH 12 0
BBX 10 11 1 -2
BITMAP
0100
F900
8100
8100
83C0
FD00
0100
4100
4100
4000
7F80
ENDCHAR
STARTCHAR B2EB
ENCODING 13405
SWIDTH 1200 0
DWIDTH 12 0
BBX 10 11 1 -2
BITMAP
0100
F900
8100
81C0
8100
BF00
4100
7F80
4000
4000
7F80
ENDCHAR
STARTCHAR B2EC
ENCODING 13406
SWIDTH 1200 0
DWIDTH 12 0
BBX 10 11 1 -2
BITMAP
0100
F900
8100
81C0
8100
FD00
FF00
0100
7F00
4000
7F80
ENDCHAR
STARTCHAR B2ED
ENCODING 13407
SWIDTH 1200 0
DWIDTH 12 0
BBX 10 11 1 -2
BITMAP
0100
F900
8100
81C0
8100
FD00
7F00
1100
7100
4100
7900
ENDCHAR
STARTCHAR B2EE
ENCODING 13408
SWIDTH 1200 0
DWIDTH 12 0
BBX 10 11 1 -2
BITMAP
0100
F900
8100
83C0
FD00
0100
FF00
1900
F900
8900
FF00
ENDCHAR
STARTCHAR B2EF
ENCODING 13409
SWIDTH 1200 0
DWIDTH 12 0
BBX 10 11 1 -2
BITMAP
0100
F900
8100
81C0
8100
FD00
F500
1500
F700
8500
F700
ENDCHAR
STARTCHAR B2F3
ENCODING 13410
SWIDTH 1200 0
DWIDTH 12 0
BBX 10 11 1 -2
BITMAP
0100
F900
8100
83C0
FD00
0100
F700
1F80
FF00
8900
FF00
ENDCHAR
STARTCHAR B2F4
ENCODING 13411
SWIDTH 1200 0
DWIDTH 12 0
BBX 10 11 1 -2
BITMAP
0100
F900
8100
81C0
8100
BF00
4100
7F00
4100
4100
7F00
ENDCHAR
STARTCHAR B2F5
ENCODING 13412
SWIDTH 1200 0
DWIDTH 12 0
BBX 10 11 1 -2
BITMAP
0100
F900
8100
81C0
8100
9F00
6000
4100
7F00
4100
7F00
ENDCHAR
STARTCHAR B2F7
ENCODING 13413
SWIDTH 1200 0
DWIDTH 12 0
BBX 10 11 1 -2
BITMAP
0100
F900
8100
8100
81C0
BF00
4100
0100
0C00
1200
6180
ENDCHAR
STARTCHAR B2F8
ENCODING 13414
SWIDTH 1200 0
DWIDTH 12 0
BBX 10 11 1 -2
BITMAP
0100
F900
8100
81C0
8300
FD00
0100
0100
3100
5300
8480
ENDCHAR
STARTCHAR B2F9
ENCODING 13415
SWIDTH 1200 0
DWIDTH 12 0
BBX 10 11 1 -2
BITMAP
0100
F900
8100
81C0
8100
BF00
4100
3F00
4080
4080
3F00
ENDCHAR
STARTCHAR B2FA
ENCODING 13416
SWIDTH 1200 0
DWIDTH 12 0
BBX 10 11 1 -2
BITMAP
0100
F900
8100
81C0
8100
9F00
6000
7F00
0800
1400
E300
ENDCHAR
STARTCHAR B2FB
ENCODING 13417
SWIDTH 1200 0
DWIDTH 12 0
BBX 10 11 1 -2
BITMAP
0100
F900
8100
81C0
8100
FF00
1C00
FF00
1000
1800
E700
ENDCHAR
STARTCHAR B2FF
ENCODING 13418
SWIDTH 1200 0
DWIDTH 12 0
BBX 10 11 1 -2
BITMAP
0100
F900
8100
81C0
8100
FD00
1C00
FF80
7F00
4080
2100
ENDCHAR
STARTCHAR B300
ENCODING 13419
SWIDTH 1200 0
DWIDTH 12 0
BBX 10 11 1 -2
BITMAP
0240
F240
8240
8240
8240
83C0
8240
8240
F240
0240
0240
ENDCHAR
STARTCHAR B301
ENCODING 13420
SWIDTH 1200 0
DWIDTH 12 0
BBX 10 11 1 -2
BITMAP
0240
F240
8240
83C0
8240
FA40
0040
3FC0
0040
0040
0040
ENDCHAR
STARTCHAR B304
ENCODING 13421
SWIDTH 1200 0
DWIDTH 12 0
BBX 10 11 1 -2
BITMAP
0040
F240
8240
8240
83C0
9A40
6240
4240
4000
4000
7F80
ENDCHAR
STARTCHAR B308
ENCODING 13422
SWIDTH 1200 0
DWIDTH 12 0
BBX 10 11 1 -2
BITMAP
0240
F240
8240
83C0
8240
FA40
0000
3FC0
7FC0
4000
7F80
ENDCHAR
STARTCHAR B310
ENCODING 13423
SWIDTH 1200 0
DWIDTH 12 0
BBX 10 11 1 -2
BITMAP
0240
F240
8240
8240
83C0
FA40
0240
7FC0
4040
4040
7FC0
ENDCHAR
STARTCHAR B311
ENCODING 13424
SWIDTH 1200 0
DWIDTH 12 0
BBX 10 11 1 -2
BITMAP
0240
F240
8240
83C0
8240
FA40
0000
4040
7FC0
4040
7FC0
ENDCHAR
STARTCHAR B313
ENCODING 13425
SWIDTH 1200 0
DWIDTH 12 0
BBX 9 11 1 -2
BITMAP
0480
F480
8480
8480
8780
FC80
0480
0880
0C00
1200
E180
ENDCHAR
STARTCHAR B314
ENCODING 13426
SWIDTH 1200 0
DWIDTH 12 0
BBX 10 11 1 -2
BITMAP
0280
F280
8280
8380
8280
8280
F280
1100
1100
2A80
4640
ENDCHAR
STARTCHAR B315
ENCODING 13427
SWIDTH 1200 0
DWIDTH 12 0
BBX 10 11 1 -2
BITMAP
0040
F240
8240
83C0
8240
FA40
0240
1F00
60C0
4040
3F80
ENDCHAR
STARTCHAR B31C
ENCODING 13428
SWIDTH 1200 0
DWIDTH 12 0
BBX 10 11 1 -2
BITMAP
0100
FD00
8100
81C0
8100
8100
8100
81C0
FD00
0100
0100
ENDCHAR
STARTCHAR B354
ENCODING 13429
SWIDTH 1200 0
DWIDTH 12 0
BBX 9 11 1 -2
BITMAP
0080
F880
8080
8080
8380
8080
8080
8080
F880
0080
0080
ENDCHAR
STARTCHAR B355
ENCODING 13430
SWIDTH 1200 0
DWIDTH 12 0
BBX 9 11 1 -2
BITMAP
0080
F880
8780
8080
8080
BE80
4000
7F80
0080
0080
0080
ENDCHAR
STARTCHAR B356
ENCODING 13431
SWIDTH 1200 0
DWIDTH 12 0
BBX 9 12 1 -3
BITMAP
0080
F880
8780
8080
8080
9E80
6000
7F80
0880
0880
0880
0080
ENDCHAR
STARTCHAR B358
ENCODING 13432
SWIDTH 1200 0
DWIDTH 12 0
BBX 9 11 1 -2
BITMAP
0080
F880
8080
8780
8080
8280
FC80
4080
4080
4000
7F80
ENDCHAR
STARTCHAR B35B
ENCODING 13433
SWIDTH 1200 0
DWIDTH 12 0
BBX 9 11 1 -2
BITMAP
0080
F880
8080
8780
8080
8C80
7080
7F80
4000
4000
7F80
ENDCHAR
STARTCHAR B35C
ENCODING 13434
SWIDTH 1200 0
DWIDTH 12 0
BBX 9 11 1 -2
BITMAP
0080
F880
8080
8380
8080
BE80
7F80
0080
7F80
4000
7F80
ENDCHAR
STARTCHAR B35E
ENCODING 13435
SWIDTH 1200 0
DWIDTH 12 0
BBX 9 11 1 -2
BITMAP
0080
F880
8780
8080
8080
FC00
7B80
0A80
7A80
4280
7B80
ENDCHAR
STARTCHAR B35F
ENCODING 13436
SWIDTH 1200 0
DWIDTH 12 0
BBX 9 11 1 -2
BITMAP
0080
F880
8780
8080
8080
FC00
7A80
0B80
7A80
4280
7B80
ENDCHAR
STARTCHAR B364
ENCODING 13437
SWIDTH 1200 0
DWIDTH 12 0
BBX 9 11 1 -2
BITMAP
0080
F880
8080
8380
8080
8680
7880
7F80
4080
4080
7F80
ENDCHAR
STARTCHAR B365
ENCODING 13438
SWIDTH 1200 0
DWIDTH 12 0
BBX 9 11 1 -2
BITMAP
0080
F880
8080
8380
8080
8680
7880
4080
7F80
4080
7F80
ENDCHAR
STARTCHAR B367
ENCODING 13601
SWIDTH 1200 0
DWIDTH 12 0
BBX 10 11 1 -2
BITMAP
0080
F880
8080
8380
8080
8080
FC80
0480
0600
0900
30C0
ENDCHAR
STARTCHAR B369
ENCODING 13602
SWIDTH 1200 0
DWIDTH 12 0
BBX 9 11 1 -2
BITMAP
0080
F880
8080
8380
8080
8080
FC80
3F00
4080
4080
3F00
ENDCHAR
STARTCHAR B36B
ENCODING 13603
SWIDTH 1200 0
DWIDTH 12 0
BBX 9 11 1 -2
BITMAP
0080
F880
8780
8080
8080
9E80
6000
7F80
0400
1A00
6180
ENDCHAR
STARTCHAR B36E
ENCODING 13604
SWIDTH 1200 0
DWIDTH 12 0
BBX 10 11 1 -2
BITMAP
0080
F880
8780
8080
8080
8C80
7000
3F80
1100
1100
7FC0
ENDCHAR
STARTCHAR B370
ENCODING 13605
SWIDTH 1200 0
DWIDTH 12 0
BBX 10 11 1 -2
BITMAP
0240
F240
8240
8240
8E40
8240
8240
8240
F240
0240
0240
ENDCHAR
STARTCHAR B371
ENCODING 13606
SWIDTH 1200 0
DWIDTH 12 0
BBX 10 11 1 -2
BITMAP
0240
F240
8240
8E40
8240
8240
F240
3FC0
0040
0040
0040
ENDCHAR
STARTCHAR B374
ENCODING 13607
SWIDTH 1200 0
DWIDTH 12 0
BBX 10 11 1 -2
BITMAP
0040
F240
8240
8E40
8240
8240
F240
4240
4000
4000
7F80
ENDCHAR
STARTCHAR B378
ENCODING 13608
SWIDTH 1200 0
DWIDTH 12 0
BBX 10 11 1 -2
BITMAP
0040
F240
8240
8E40
8240
8A40
7240
3FC0
7FC0
4000
7F80
ENDCHAR
STARTCHAR B380
ENCODING 13609
SWIDTH 1200 0
DWIDTH 12 0
BBX 10 11 1 -2
BITMAP
0040
F240
8240
8E40
8240
8240
F240
7FC0
4040
4040
7FC0
ENDCHAR
STARTCHAR B381
ENCODING 13610
SWIDTH 1200 0
DWIDTH 12 0
BBX 10 11 1 -2
BITMAP
0040
F240
8240
8E40
8240
8240
F240
4080
7F80
4080
7F80
ENDCHAR
STARTCHAR B383
ENCODING 13611
SWIDTH 1200 0
DWIDTH 12 0
BBX 9 11 1 -2
BITMAP
0080
F280
8280
8E80
8280
8280
F280
0480
0400
1A00
6180
ENDCHAR
STARTCHAR B384
ENCODING 13612
SWIDTH 1200 0
DWIDTH 12 0
BBX 10 11 1 -2
BITMAP
0280
F280
8280
8E80
8280
8280
F280
1100
1100
2A80
4240
ENDCHAR
STARTCHAR B385
ENCODING 13613
SWIDTH 1200 0
DWIDTH 12 0
BBX 10 11 1 -2
BITMAP
0040
F240
8240
8E40
8240
8240
F240
3F80
4040
4040
3F80
ENDCHAR
STARTCHAR B38C
ENCODING 13614
SWIDTH 1200 0
DWIDTH 12 0
BBX 9 11 1 -2
BITMAP
0080
F880
8080
8380
8080
8080
8380
8080
F880
0080
0080
ENDCHAR
STARTCHAR B390
ENCODING 13615
SWIDTH 1200 0
DWIDTH 12 0
BBX 9 11 1 -2
BITMAP
0080
F880
8780
8080
8780
8080
FE80
4080
4080
4000
7F80
ENDCHAR
STARTCHAR B394
ENCODING 13616
SWIDTH 1200 0
DWIDTH 12 0
BBX 10 11 1 -2
BITMAP
0080
F880
8780
8780
8080
BC80
7F80
0080
3F80
2000
3FC0
ENDCHAR
STARTCHAR B3A0
ENCODING 13617
SWIDTH 1200 0
DWIDTH 12 0
BBX 10 11 1 -2
BITMAP
0080
F880
8780
8080
8780
9C80
6180
0100
3280
2A40
4000
ENDCHAR
STARTCHAR B3A1
ENCODING 13618
SWIDTH 1200 0
DWIDTH 12 0
BBX 10 11 1 -2
BITMAP
0080
F880
8780
8080
8780
8080
7880
3F80
4040
4040
3F80
ENDCHAR
STARTCHAR B3A8
ENCODING 13619
SWIDTH 1200 0
DWIDTH 12 0
BBX 10 11 1 -2
BITMAP
0240
F240
8240
8E40
8240
8E40
8240
8240
F240
0240
0040
ENDCHAR
STARTCHAR B3AC
ENCODING 13620
SWIDTH 1200 0
DWIDTH 12 0
BBX 10 11 1 -2
BITMAP
0240
F240
8E40
8240
8E40
8240
F240
4240
4000
4000
7F80
ENDCHAR
STARTCHAR B3C4
ENCODING 13621
SWIDTH 1200 0
DWIDTH 12 0
BBX 11 9 0 -1
BITMAP
3FC0
2000
2000
2000
3FC0
0400
0400
0400
FFE0
ENDCHAR
STARTCHAR B3C5
ENCODING 13622
SWIDTH 1200 0
DWIDTH 12 0
BBX 11 11 1 -2
BITMAP
7F80
4000
4000
7FC0
0400
FFE0
0000
7F80
0080
0080
0080
ENDCHAR
STARTCHAR B3C8
ENCODING 13623
SWIDTH 1200 0
DWIDTH 12 0
BBX 11 11 0 -2
BITMAP
3FC0
2000
2000
3FC0
0400
0400
FFE0
2000
2000
2000
3FC0
ENDCHAR
STARTCHAR B3CB
ENCODING 13624
SWIDTH 1200 0
DWIDTH 12 0
BBX 11 11 0 -2
BITMAP
3FC0
2000
2000
3FC0
0400
FFE0
0000
3FC0
2000
2000
3FC0
ENDCHAR
STARTCHAR B3CC
ENCODING 13625
SWIDTH 1200 0
DWIDTH 12 0
BBX 11 11 0 -2
BITMAP
3FC0
2000
2000
3FC0
0400
FFE0
3FC0
0040
3FC0
2000
3FC0
ENDCHAR
STARTCHAR B3CE
ENCODING 13626
SWIDTH 1200 0
DWIDTH 12 0
BBX 11 11 0 -2
BITMAP
3FC0
2000
2000
3FC0
0400
FFE0
3FC0
0640
3E40
2240
3FC0
ENDCHAR
STARTCHAR B3D0
ENCODING 13627
SWIDTH 1200 0
DWIDTH 12 0
BBX 11 11 0 -2
BITMAP
3FC0
2000
2000
3FC0
0400
FFE0
3C00
0480
3C80
2140
3E20
ENDCHAR
STARTCHAR B3D4
ENCODING 13628
SWIDTH 1200 0
DWIDTH 12 0
BBX 11 11 0 -2
BITMAP
3FC0
2000
2000
3FC0
0400
FFE0
0000
3FC0
2040
2040
3FC0
ENDCHAR
STARTCHAR B3D5
ENCODING 13629
SWIDTH 1200 0
DWIDTH 12 0
BBX 11 11 0 -2
BITMAP
3FC0
2000
2000
3FC0
0400
FFE0
0000
2040
3FC0
2040
3FC0
ENDCHAR
STARTCHAR B3D7
ENCODING 13630
SWIDTH 1200 0
DWIDTH 12 0
BBX 11 11 0 -2
BITMAP
3FC0
2000
2000
3FC0
0400
FFE0
0000
0000
0600
0900
30C0
ENDCHAR
STARTCHAR B3D9
ENCODING 13631
SWIDTH 1200 0
DWIDTH 12 0
BBX 11 11 1 -2
BITMAP
7F80
4000
4000
7FC0
0400
FFE0
0000
3F00
4080
4080
3700
ENDCHAR
STARTCHAR B3DB
ENCODING 13632
SWIDTH 1200 0
DWIDTH 12 0
BBX 11 11 0 -2
BITMAP
3FC0
2000
3FC0
0400
0400
FFE0
0000
7FC0
0400
0A00
71C0
ENDCHAR
STARTCHAR B3DD
ENCODING 13633
SWIDTH 1200 0
DWIDTH 12 0
BBX 11 11 0 -2
BITMAP
3FC0
2000
2000
3FC0
0400
FFE0
0000
3FC0
3FC0
2000
3FC0
ENDCHAR
STARTCHAR B3E0
ENCODING 13634
SWIDTH 1200 0
DWIDTH 12 0
BBX 11 11 1 -2
BITMAP
0080
FC80
8080
8080
FC80
10E0
1080
1180
EE80
0080
0080
ENDCHAR
STARTCHAR B3E4
ENCODING 13635
SWIDTH 1200 0
DWIDTH 12 0
BBX 12 11 0 -2
BITMAP
0040
7E40
4040
7E40
0870
0840
F740
0040
2000
2000
3FC0
ENDCHAR
STARTCHAR B3E8
ENCODING 13636
SWIDTH 1200 0
DWIDTH 12 0
BBX 11 11 1 -2
BITMAP
0080
FC80
8080
FCE0
1080
1E80
E000
7F80
7F80
4000
7F80
ENDCHAR
STARTCHAR B3FC
ENCODING 13637
SWIDTH 1200 0
DWIDTH 12 0
BBX 9 11 2 -2
BITMAP
0480
FC80
8480
8480
FC80
2780
2480
3C80
C480
0480
0480
ENDCHAR
STARTCHAR B410
ENCODING 13638
SWIDTH 1200 0
DWIDTH 12 0
BBX 10 11 1 -2
BITMAP
F840
8240
8240
FBC0
2240
2240
D840
1100
1100
2A80
4440
ENDCHAR
STARTCHAR B418
ENCODING 13639
SWIDTH 1200 0
DWIDTH 12 0
BBX 9 11 2 -2
BITMAP
0080
FC80
8080
8080
FC80
1080
1080
1180
EE80
0080
0080
ENDCHAR
STARTCHAR B41C
ENCODING 13640
SWIDTH 1200 0
DWIDTH 12 0
BBX 10 11 1 -2
BITMAP
0040
7E40
4040
7E40
0840
0840
F740
0040
2000
2000
3FC0
ENDCHAR
STARTCHAR B420
ENCODING 13641
SWIDTH 1200 0
DWIDTH 12 0
BBX 10 11 1 -2
BITMAP
7E40
4040
4040
7E40
0840
FFC0
3FC0
0040
3FC0
2000
3FC0
ENDCHAR
STARTCHAR B428
ENCODING 13642
SWIDTH 1200 0
DWIDTH 12 0
BBX 9 11 2 -2
BITMAP
FC80
8080
8080
FC80
1080
1380
EC80
7F80
4080
4080
7F80
ENDCHAR
STARTCHAR B429
ENCODING 13643
SWIDTH 1200 0
DWIDTH 12 0
BBX 9 11 2 -2
BITMAP
0080
FC80
8080
FC80
1080
1F80
E080
4080
7F80
4080
7F80
ENDCHAR
STARTCHAR B42B
ENCODING 13644
SWIDTH 1200 0
DWIDTH 12 0
BBX 11 11 0 -2
BITMAP
3F40
2040
2040
3E40
0840
0840
FFC0
0040
0300
0480
1860
ENDCHAR
STARTCHAR B434
ENCODING 13645
SWIDTH 1200 0
DWIDTH 12 0
BBX 10 9 1 -1
BITMAP
7F80
4000
4000
4000
7F80
1200
1200
1200
FFC0
ENDCHAR
STARTCHAR B450
ENCODING 13646
SWIDTH 1200 0
DWIDTH 12 0
BBX 11 11 0 -2
BITMAP
3FC0
2000
2000
2000
3FC0
0000
FFE0
0400
0400
0400
0400
ENDCHAR
STARTCHAR B451
ENCODING 13647
SWIDTH 1200 0
DWIDTH 12 0
BBX 11 11 0 -2
BITMAP
3FC0
2000
2000
3FC0
0000
FFE0
0400
7FC0
0040
0040
0040
ENDCHAR
STARTCHAR B454
ENCODING 13648
SWIDTH 1200 0
DWIDTH 12 0
BBX 11 11 1 -2
BITMAP
7F80
4000
4000
7F80
0000
FFE0
0400
0400
4000
4000
7F80
ENDCHAR
STARTCHAR B458
ENCODING 13649
SWIDTH 1200 0
DWIDTH 12 0
BBX 11 11 0 -2
BITMAP
3FC0
2000
2000
3FC0
0000
FFE0
0400
7FC0
3FC0
2000
3FC0
ENDCHAR
STARTCHAR B460
ENCODING 13650
SWIDTH 1200 0
DWIDTH 12 0
BBX 11 11 0 -2
BITMAP
3FC0
2000
2000
3FC0
0000
FFE0
0400
3FC0
2040
2040
3FC0
ENDCHAR
STARTCHAR B461
ENCODING 13651
SWIDTH 1200 0
DWIDTH 12 0
BBX 11 11 0 -2
BITMAP
3FC0
2000
2000
3FC0
0000
FFE0
0400
2440
3FC0
2040
3FC0
ENDCHAR
STARTCHAR B463
ENCODING 13652
SWIDTH 1200 0
DWIDTH 12 0
BBX 10 11 1 -2
BITMAP
7F80
4000
4000
7F80
0000
FFC0
0000
0000
0C00
1200
6180
ENDCHAR
STARTCHAR B465
ENCODING 13653
SWIDTH 1200 0
DWIDTH 12 0
BBX 11 11 0 -2
BITMAP
3FC0
2000
2000
3FC0
0000
FFE0
0400
1F80
2040
2040
1F80
ENDCHAR
STARTCHAR B46C
ENCODING 13654
SWIDTH 1200 0
DWIDTH 12 0
BBX 9 11 2 -2
BITMAP
0080
FC80
8080
8080
FC80
0080
FE80
1380
1080
1080
0080
ENDCHAR
STARTCHAR B480
ENCODING 13655
SWIDTH 1200 0
DWIDTH 12 0
BBX 10 11 1 -2
BITMAP
7E80
4080
4080
7E80
0680
FB80
1080
1100
1100
2A80
C440
ENDCHAR
STARTCHAR B488
ENCODING 13656
SWIDTH 1200 0
DWIDTH 12 0
BBX 9 11 2 -2
BITMAP
0080
FA80
8280
8280
FA80
0280
FE80
2280
2E80
2280
0280
ENDCHAR
STARTCHAR B49D
ENCODING 13657
SWIDTH 1200 0
DWIDTH 12 0
BBX 10 11 1 -2
BITMAP
0140
7D40
4140
7D40
FD40
1740
1140
1F80
2040
2040
1080
ENDCHAR
STARTCHAR B4A4
ENCODING 13658
SWIDTH 1200 0
DWIDTH 12 0
BBX 10 11 1 -2
BITMAP
0040
7E40
4040
4040
7E40
0040
FF40
0840
0840
0840
0840
ENDCHAR
STARTCHAR B4A8
ENCODING 13659
SWIDTH 1200 0
DWIDTH 12 0
BBX 10 11 1 -2
BITMAP
0040
7E40
4040
7E40
0040
FF40
0840
0840
2000
2000
3FC0
ENDCHAR
STARTCHAR B4AC
ENCODING 13660
SWIDTH 1200 0
DWIDTH 12 0
BBX 10 11 1 -2
BITMAP
7E40
4040
7E40
0040
FF40
0840
0000
3FC0
3FC0
2000
3FC0
ENDCHAR
STARTCHAR B4B5
ENCODING 13661
SWIDTH 1200 0
DWIDTH 12 0
BBX 10 11 1 -2
BITMAP
7E40
4040
4040
7E40
FE40
0840
0800
2040
3FC0
2040
3FC0
ENDCHAR
STARTCHAR B4B7
ENCODING 13662
SWIDTH 1200 0
DWIDTH 12 0
BBX 11 11 0 -2
BITMAP
3F40
2040
2040
3F40
0040
FF40
0840
0A40
0200
0500
38E0
ENDCHAR
STARTCHAR B4B9
ENCODING 13663
SWIDTH 1200 0
DWIDTH 12 0
BBX 9 11 2 -2
BITMAP
FC80
8080
8080
FC80
0E80
F080
1080
3F00
4080
4080
3F00
ENDCHAR
STARTCHAR B4C0
ENCODING 13664
SWIDTH 1200 0
DWIDTH 12 0
BBX 12 12 0 -3
BITMAP
3FC0
2000
2000
2000
3FC0
0000
FFF0
1080
1080
1080
1080
1000
ENDCHAR
STARTCHAR B4C4
ENCODING 13665
SWIDTH 1200 0
DWIDTH 12 0
BBX 11 11 1 -2
BITMAP
7F80
4000
4000
7F80
0000
FFE0
1100
5100
5100
4000
7F80
ENDCHAR
STARTCHAR B4C8
ENCODING 13666
SWIDTH 1200 0
DWIDTH 12 0
BBX 10 11 1 -2
BITMAP
7F80
4000
4000
7F80
0000
FFC0
1200
7F80
7F80
4000
7F80
ENDCHAR
STARTCHAR B4D0
ENCODING 13667
SWIDTH 1200 0
DWIDTH 12 0
BBX 10 11 1 -2
BITMAP
7F80
4000
4000
7F80
0000
FFC0
1200
7F80
4080
4080
7F80
ENDCHAR
STARTCHAR B4D5
ENCODING 13668
SWIDTH 1200 0
DWIDTH 12 0
BBX 10 11 1 -2
BITMAP
7F80
4000
4000
7F80
0000
FFC0
1200
3F00
4080
4080
3300
ENDCHAR
STARTCHAR B4DC
ENCODING 13669
SWIDTH 1200 0
DWIDTH 12 0
BBX 10 9 1 -1
BITMAP
7F80
4000
4000
4000
7F80
0000
0000
0000
FFC0
ENDCHAR
STARTCHAR B4DD
ENCODING 13670
SWIDTH 1200 0
DWIDTH 12 0
BBX 10 11 1 -2
BITMAP
7F80
4000
4000
7F80
0000
FFC0
0000
7F80
0080
0080
0080
ENDCHAR
STARTCHAR B4E0
ENCODING 13671
SWIDTH 1200 0
DWIDTH 12 0
BBX 10 11 1 -2
BITMAP
7F80
4000
4000
7F80
0000
0000
FFC0
4000
4000
4000
7F80
ENDCHAR
STARTCHAR B4E3
ENCODING 13672
SWIDTH 1200 0
DWIDTH 12 0
BBX 10 11 1 -2
BITMAP
7F80
4000
4000
7F80
0000
FFC0
0000
7F80
4000
4000
7F80
ENDCHAR
STARTCHAR B4E4
ENCODING 13673
SWIDTH 1200 0
DWIDTH 12 0
BBX 10 11 1 -2
BITMAP
7F80
4000
4000
7F80
0000
FFC0
7F80
0080
7F80
4000
7F80
ENDCHAR
STARTCHAR B4E6
ENCODING 13674
SWIDTH 1200 0
DWIDTH 12 0
BBX 10 11 1 -2
BITMAP
7F80
4000
4000
7F80
0000
FFC0
7F80
0C80
7C80
4480
7F80
ENDCHAR
STARTCHAR B4EC
ENCODING 13675
SWIDTH 1200 0
DWIDTH 12 0
BBX 10 11 1 -2
BITMAP
7F80
4000
4000
7F80
0000
FFC0
0000
7F80
4080
4080
7F80
ENDCHAR
STARTCHAR B4ED
ENCODING 13676
SWIDTH 1200 0
DWIDTH 12 0
BBX 10 11 1 -2
BITMAP
7F80
4000
4000
7F80
0000
FFC0
0000
4080
7F80
4080
7F80
ENDCHAR
STARTCHAR B4EF
ENCODING 13677
SWIDTH 1200 0
DWIDTH 12 0
BBX 10 11 1 -2
BITMAP
7F80
4000
4000
7F80
0000
FFC0
0000
0000
0C00
1200
6180
ENDCHAR
STARTCHAR B4F1
ENCODING 13678
SWIDTH 1200 0
DWIDTH 12 0
BBX 10 11 1 -2
BITMAP
7F80
4000
4000
7F80
0000
FFC0
0000
3F00
6180
4080
2100
ENDCHAR
STARTCHAR B4F8
ENCODING 13679
SWIDTH 1200 0
DWIDTH 12 0
BBX 9 11 2 -2
BITMAP
0080
FC80
8080
8080
8080
FC80
0080
0080
FC80
0080
0080
ENDCHAR
STARTCHAR B514
ENCODING 13680
SWIDTH 1200 0
DWIDTH 12 0
BBX 9 11 1 -2
BITMAP
0080
F880
8080
8080
8080
8080
8080
8280
FC80
0080
0080
ENDCHAR
STARTCHAR B515
ENCODING 13681
SWIDTH 1200 0
DWIDTH 12 0
BBX 9 11 1 -2
BITMAP
0080
F880
8080
8080
8080
BE80
4080
7F80
0080
0080
0080
ENDCHAR
STARTCHAR B518
ENCODING 13682
SWIDTH 1200 0
DWIDTH 12 0
BBX 9 11 1 -2
BITMAP
0080
F880
8080
8080
8080
8680
7880
0080
4000
4000
7F80
ENDCHAR
STARTCHAR B51B
ENCODING 13683
SWIDTH 1200 0
DWIDTH 12 0
BBX 9 11 1 -2
BITMAP
F880
8080
8080
8080
9E80
6080
0000
7F80
4000
4000
7F80
ENDCHAR
STARTCHAR B51C
ENCODING 13684
SWIDTH 1200 0
DWIDTH 12 0
BBX 9 11 1 -2
BITMAP
0080
F880
8080
8080
8080
FC80
7F80
0080
7F80
4000
7F80
ENDCHAR
STARTCHAR B524
ENCODING 13685
SWIDTH 1200 0
DWIDTH 12 0
BBX 9 11 1 -2
BITMAP
0080
F880
8080
8080
8080
9E80
6000
7F80
4080
4080
7F80
ENDCHAR
STARTCHAR B525
ENCODING 13686
SWIDTH 1200 0
DWIDTH 12 0
BBX 9 11 1 -2
BITMAP
F880
8080
8080
8080
BE80
4080
0000
4080
7F80
4080
7F80
ENDCHAR
STARTCHAR B527
ENCODING 13687
SWIDTH 1200 0
DWIDTH 12 0
BBX 10 11 1 -2
BITMAP
0080
F880
8080
8080
8080
FC80
0080
0400
0400
0A00
31C0
ENDCHAR
STARTCHAR B528
ENCODING 13688
SWIDTH 1200 0
DWIDTH 12 0
BBX 10 11 1 -2
BITMAP
0080
F880
8080
8080
8080
9E80
6000
1100
1100
2A80
4440
ENDCHAR
STARTCHAR B529
ENCODING 13689
SWIDTH 1200 0
DWIDTH 12 0
BBX 9 11 1 -2
BITMAP
0080
F880
8080
8080
8080
FE80
0080
3F00
4080
4080
3F00
ENDCHAR
STARTCHAR B52A
ENCODING 13690
SWIDTH 1200 0
DWIDTH 12 0
BBX 9 11 1 -2
BITMAP
0080
F880
8080
8080
8080
BE80
4000
7F80
0400
0A00
7180
ENDCHAR
STARTCHAR B530
ENCODING 13691
SWIDTH 1200 0
DWIDTH 12 0
BBX 10 11 1 -2
BITMAP
0100
FD00
9100
9100
9100
91C0
9100
9100
DD00
0100
0100
ENDCHAR
STARTCHAR B531
ENCODING 13692
SWIDTH 1200 0
DWIDTH 12 0
BBX 10 11 1 -2
BITMAP
E100
9D00
9100
91C0
9100
5300
0D00
FF00
0100
0100
0100
ENDCHAR
STARTCHAR B534
ENCODING 13693
SWIDTH 1200 0
DWIDTH 12 0
BBX 10 11 1 -2
BITMAP
0100
FD00
9100
9100
91C0
9100
DD00
4100
4100
4000
7F80
ENDCHAR
STARTCHAR B538
ENCODING 13694
SWIDTH 1200 0
DWIDTH 12 0
BBX 10 11 1 -2
BITMAP
FD00
9100
9100
91C0
B300
4D00
FF00
0100
7F00
4000
7F80
ENDCHAR
STARTCHAR B540
ENCODING 13857
SWIDTH 1200 0
DWIDTH 12 0
BBX 10 11 1 -2
BITMAP
0100
FD00
9100
91C0
9100
9100
DC00
7F00
4100
4100
7F00
ENDCHAR
STARTCHAR B541
ENCODING 13858
SWIDTH 1200 0
DWIDTH 12 0
BBX 10 11 1 -2
BITMAP
0100
FD00
9100
91C0
9100
9300
4C00
4100
7F00
4100
7F00
ENDCHAR
STARTCHAR B543
ENCODING 13859
SWIDTH 1200 0
DWIDTH 12 0
BBX 10 11 1 -2
BITMAP
0100
FD00
9100
9100
91C0
9100
DD00
0100
0C00
1200
6180
ENDCHAR
STARTCHAR B544
ENCODING 13860
SWIDTH 1200 0
DWIDTH 12 0
BBX 10 11 1 -2
BITMAP
0100
FD00
9100
91C0
9100
9100
DD00
2100
2100
5300
8480
ENDCHAR
STARTCHAR B545
ENCODING 13861
SWIDTH 1200 0
DWIDTH 12 0
BBX 10 11 1 -2
BITMAP
0100
FD00
9100
91C0
9100
9100
DD00
7F00
8080
8080
7F00
ENDCHAR
STARTCHAR B54B
ENCODING 13862
SWIDTH 1200 0
DWIDTH 12 0
BBX 10 11 1 -2
BITMAP
0100
FD00
9100
91C0
9100
FD00
1C00
FF80
4200
4100
3E00
ENDCHAR
STARTCHAR B54C
ENCODING 13863
SWIDTH 1200 0
DWIDTH 12 0
BBX 10 11 1 -2
BITMAP
0240
DE40
9240
9240
9240
93C0
9240
9240
DA40
0240
0240
ENDCHAR
STARTCHAR B54D
ENCODING 13864
SWIDTH 1200 0
DWIDTH 12 0
BBX 10 11 1 -2
BITMAP
0240
DE40
9240
93C0
9240
9240
4A40
3FC0
0040
0040
0040
ENDCHAR
STARTCHAR B550
ENCODING 13865
SWIDTH 1200 0
DWIDTH 12 0
BBX 10 11 1 -2
BITMAP
0040
DE40
9240
9240
93C0
9240
DA40
4240
4040
4000
7F80
ENDCHAR
STARTCHAR B554
ENCODING 13866
SWIDTH 1200 0
DWIDTH 12 0
BBX 10 11 1 -2
BITMAP
0040
DA40
9240
93C0
9240
B640
4800
7F80
7F80
4000
7F80
ENDCHAR
STARTCHAR B55C
ENCODING 13867
SWIDTH 1200 0
DWIDTH 12 0
BBX 10 11 1 -2
BITMAP
0240
DA40
9240
93C0
9240
9240
4840
7FC0
4040
4040
7FC0
ENDCHAR
STARTCHAR B55D
ENCODING 13868
SWIDTH 1200 0
DWIDTH 12 0
BBX 10 11 1 -2
BITMAP
0240
DA40
9240
93C0
9240
B240
4A40
4040
7FC0
4040
7FC0
ENDCHAR
STARTCHAR B55F
ENCODING 13869
SWIDTH 1200 0
DWIDTH 12 0
BBX 9 11 1 -2
BITMAP
0080
DA80
9280
9280
9380
9280
DA80
0480
0400
0A00
7180
ENDCHAR
STARTCHAR B560
ENCODING 13870
SWIDTH 1200 0
DWIDTH 12 0
BBX 9 11 1 -2
BITMAP
0280
DA80
9280
9380
9280
B280
4800
1000
1100
2B00
C480
ENDCHAR
STARTCHAR B561
ENCODING 13871
SWIDTH 1200 0
DWIDTH 12 0
BBX 10 12 1 -2
BITMAP
0200
0240
DA40
9240
93C0
9240
9240
DA40
1500
60C0
60C0
3F80
ENDCHAR
STARTCHAR B5A0
ENCODING 13872
SWIDTH 1200 0
DWIDTH 12 0
BBX 9 11 1 -2
BITMAP
0080
EE80
8880
8880
8B80
8880
8880
8880
CC80
0080
0080
ENDCHAR
STARTCHAR B5A1
ENCODING 13873
SWIDTH 1200 0
DWIDTH 12 0
BBX 9 11 1 -2
BITMAP
E080
8E80
8880
8B80
8880
4880
0480
7F80
0080
0080
0080
ENDCHAR
STARTCHAR B5A4
ENCODING 13874
SWIDTH 1200 0
DWIDTH 12 0
BBX 9 11 1 -2
BITMAP
0080
EE80
8880
8B80
8880
8880
CC80
4080
4000
4000
7F80
ENDCHAR
STARTCHAR B5A8
ENCODING 13875
SWIDTH 1200 0
DWIDTH 12 0
BBX 9 11 1 -2
BITMAP
EE80
8880
8880
8B80
AA80
4480
7F80
0080
7F80
4000
7F80
ENDCHAR
STARTCHAR B5AA
ENCODING 13876
SWIDTH 1200 0
DWIDTH 12 0
BBX 9 11 1 -2
BITMAP
0080
EE80
8880
8B80
8880
AA80
7F80
0A80
7A80
4280
3380
ENDCHAR
STARTCHAR B5AB
ENCODING 13877
SWIDTH 1200 0
DWIDTH 12 0
BBX 9 12 1 -3
BITMAP
0080
EE80
8880
8B80
8880
AA80
7E80
0A80
7B80
4280
4B80
3000
ENDCHAR
STARTCHAR B5B0
ENCODING 13878
SWIDTH 1200 0
DWIDTH 12 0
BBX 9 11 1 -2
BITMAP
EE80
8880
8880
8B80
8880
4480
0080
7F80
4080
4080
7F80
ENDCHAR
STARTCHAR B5B1
ENCODING 13879
SWIDTH 1200 0
DWIDTH 12 0
BBX 9 11 1 -2
BITMAP
0080
EE80
8880
8B80
8880
8880
4480
4080
7F80
4080
7F80
ENDCHAR
STARTCHAR B5B3
ENCODING 13880
SWIDTH 1200 0
DWIDTH 12 0
BBX 10 11 1 -2
BITMAP
0080
EE80
8880
8B80
8880
8880
CC80
0480
0400
0A00
71C0
ENDCHAR
STARTCHAR B5B4
ENCODING 13881
SWIDTH 1200 0
DWIDTH 12 0
BBX 10 11 1 -2
BITMAP
0080
EE80
8880
8B80
8880
8880
CC80
1100
1100
2A80
4640
ENDCHAR
STARTCHAR B5B5
ENCODING 13882
SWIDTH 1200 0
DWIDTH 12 0
BBX 10 11 1 -2
BITMAP
0080
EE80
8880
8B80
8880
8880
CC80
3F80
4040
4040
3F80
ENDCHAR
STARTCHAR B5BB
ENCODING 13883
SWIDTH 1200 0
DWIDTH 12 0
BBX 10 11 1 -2
BITMAP
0080
EE80
8B80
8880
8880
EE80
0E00
7FC0
3F00
4080
3F00
ENDCHAR
STARTCHAR B5BC
ENCODING 13884
SWIDTH 1200 0
DWIDTH 12 0
BBX 10 11 1 -2
BITMAP
0040
D940
9140
9140
9740
9140
9140
9140
D940
0140
0040
ENDCHAR
STARTCHAR B5BD
ENCODING 13885
SWIDTH 1200 0
DWIDTH 12 0
BBX 10 11 1 -2
BITMAP
0140
D940
9140
9740
9140
B140
4940
3FC0
0040
0040
0040
ENDCHAR
STARTCHAR B5C0
ENCODING 13886
SWIDTH 1200 0
DWIDTH 12 0
BBX 10 11 1 -2
BITMAP
0040
D940
9140
9740
9140
9140
D940
4140
4040
4000
7F80
ENDCHAR
STARTCHAR B5C4
ENCODING 13887
SWIDTH 1200 0
DWIDTH 12 0
BBX 10 11 1 -2
BITMAP
0140
D940
9140
9740
9140
B540
4800
7FC0
7FC0
4000
7F80
ENDCHAR
STARTCHAR B5CC
ENCODING 13888
SWIDTH 1200 0
DWIDTH 12 0
BBX 10 11 1 -2
BITMAP
0040
D940
9140
9740
9140
B140
4940
7FC0
4040
4040
7FC0
ENDCHAR
ENDFONT
